<svg width="50" height="54" viewBox="0 0 50 54" fill="none" xmlns="http://www.w3.org/2000/svg">
<path d="M34.4017 18.8572L39.1217 15.5772C39.5217 15.2572 39.9217 15.2572 38.8415 17.1775C38.1228 18.6126 37.0745 20.6627 34.5617 27.3372C34.0818 29.0172 29.9217 40.5372 31.9217 43.3372C33.0417 44.6172 36.0017 47.4972 35.6017 44.6172C34.1617 40.6172 39.9217 25.5772 42.6417 17.8172C43.9217 14.9372 43.7617 11.0172 42.2417 9.41723C41.2017 10.2172 40.1617 10.4572 34.4017 16.6172V18.8572Z" fill="#FF3E40"/>
<path d="M20.7615 47.797C20.0328 50.6328 19.4619 52.8544 17.2016 53.1773C7.9217 53.1773 -10.3983 2.61729 9.28157 0.937271C14.1078 0.635638 18.388 4.33716 20.9903 6.58763C21.839 7.32157 22.5092 7.90118 22.9617 8.13727C25.0417 9.49727 26.8017 9.09723 28.2417 7.73723C38.9577 -1.49259 43.9379 2.04929 44.9021 2.73503C44.924 2.75064 44.9439 2.76478 44.9617 2.77725C52.8017 8.26543 49.6817 25.8172 41.6017 29.9772C48.2417 23.0972 47.4417 15.4972 46.4817 10.9372C43.6017 0.937227 36.0017 6.69723 33.6017 9.09723C26.8017 15.5772 23.2817 14.2972 18.7217 10.9372C6.6417 0.137226 5.6817 9.09723 5.3617 13.8172C4.8817 26.5372 11.9217 43.0972 14.3217 47.1772C16.9279 51.6078 17.2414 50.8609 18.1265 48.7523C18.277 48.3938 18.4441 47.9958 18.6417 47.5772C22.205 38.8174 25.0106 37.8418 27.1223 37.1075C27.2863 37.0504 27.4461 36.9949 27.6017 36.9372C22.7924 39.8934 21.6576 44.3097 20.7615 47.797Z" fill="#00CCCD"/>
<path d="M16.8817 46.3772C5.68173 29.3372 5.3617 8.85723 10.6417 8.85723C12.0817 8.61723 15.4417 11.0972 17.7617 13.1772C17.946 13.3239 18.1227 13.4648 18.2925 13.6002C21.7339 16.3434 22.3347 16.8224 25.8417 17.7372C22.4065 18.1518 19.2344 15.8478 16.1631 13.617C15.0859 12.8346 14.0211 12.0612 12.9617 11.4172C9.87549 9.5413 9.68687 11.4821 9.44964 13.9231C9.42245 14.2029 9.39462 14.4893 9.3617 14.7772C9.3617 25.8972 12.5617 36.0572 16.8817 46.3772Z" fill="#00CCCD"/>
</svg>
