<svg width="223" height="228" viewBox="0 0 223 228" fill="none" xmlns="http://www.w3.org/2000/svg">
<path d="M73.4202 177.667L73.8042 177.162C55.6282 155.224 48.0453 121.663 47.9711 121.326L47.3855 121.413C47.4602 121.751 55.0927 155.546 73.4202 177.667Z" fill="#223242"/>
<path d="M48.2729 122.119C48.2729 122.119 47.2106 100.765 42.2026 86.2592C40.4746 81.2545 38.45 77.0295 36.5978 73.6803C36.5978 73.6803 35.7359 100.344 48.2729 122.119Z" fill="#80BA91"/>
<path d="M36.5983 73.6803C36.5983 73.6803 41.3236 83.726 41.506 96.4378C41.6884 109.15 40.1044 118.536 54.1924 136.234C54.1924 136.234 46.8447 89.3414 36.5983 73.6803Z" fill="#223242"/>
<path d="M64.3749 168.037C66.1029 167.274 63.6288 154.958 58.5749 143.875C52.7952 131.201 48.4544 130.694 42.4352 117.676C36.9589 105.833 39.2853 103.514 34.6048 95.202C25.7434 79.466 9.56369 73.8524 9.13969 75.7369C8.88636 76.8621 14.4549 79.7432 18.3157 87.9347C22.7418 97.3275 19.4032 101.99 22.2853 111.302C25.5904 121.979 32.1269 122.781 45.0048 139.19C57.737 155.414 64.3749 168.037 64.3749 168.037Z" fill="#80BA91"/>
<path d="M64.375 168.037C64.375 168.037 45.0102 148.533 26.0299 118.688C26.0299 118.688 49.3953 135.997 64.375 168.037Z" fill="#223242"/>
<path d="M68.3899 178.738C67.1851 171.623 63.6331 164.199 63.5974 164.125C58.5435 149.579 52.2112 137.705 44.7995 128.886C44.1062 128.06 43.3926 127.248 42.6699 126.425C39.2566 122.54 35.7275 118.524 33.0939 111.816C31.6688 108.186 31.2118 105.553 30.7702 103.008C30.3211 100.418 29.8966 97.972 28.5286 94.7025C25.8555 88.3171 21.0864 82.6473 14.3542 77.851L14.1227 78.4978C20.7259 83.2018 25.3947 88.7417 27.999 94.9629C29.3227 98.1254 29.7371 100.517 30.1766 103.048C30.6267 105.644 31.0923 108.329 32.5558 112.055C35.2528 118.924 38.8368 123.004 42.303 126.948C43.0214 127.766 43.7307 128.574 44.4208 129.394C51.7574 138.125 58.0315 149.895 63.0678 164.38C63.1248 164.507 66.615 171.804 67.7958 178.774L68.3899 178.738Z" fill="#223242"/>
<path d="M66.9465 173.499C66.9465 173.499 39.7977 150.088 19.5513 137.735L37.0303 139.315L56.5156 156.854L66.9465 173.499Z" fill="#223242"/>
<path d="M66.9465 173.499C62.3284 162.691 57.4777 156.247 53.9279 152.373C48.794 146.77 45.882 145.999 39.0468 138.321C32.9524 131.475 32.0953 128.525 28.9892 125.312C24.1412 120.297 15.7812 116.675 0.439323 123.806C0.439323 123.806 2.82814 122.838 5.55401 124.353C8.28041 125.867 16.5828 138.593 25.3385 140.331C34.0948 142.068 42.7999 143.343 52.5327 154.617C62.2649 165.891 66.9465 173.499 66.9465 173.499Z" fill="#80BA91"/>
<path d="M69.4388 179.175L69.9412 178.855L67.1977 173.339C58.7902 156.435 47.8084 148.391 37.1881 140.613C33.0377 137.573 29.1172 134.701 25.499 131.389C12.7598 119.729 5.90115 122.468 5.61528 122.59L5.89262 123.316C5.95982 123.288 12.7732 120.609 25.1956 131.979C28.8446 135.318 32.7811 138.202 36.9486 141.255C47.4889 148.974 58.3876 156.957 66.6948 173.66L69.4388 179.175Z" fill="#223242"/>
<path d="M147.814 184.873L147.349 184.467C161.254 158.835 162.716 124.231 162.729 123.884L163.317 123.835C163.305 124.184 161.835 159.027 147.814 184.873Z" fill="#223242"/>
<path d="M162.574 124.73C162.574 124.73 159.819 103.57 162.146 88.2203C162.949 82.9238 164.181 78.3243 165.401 74.6212C165.401 74.6212 170.984 100.542 162.574 124.73Z" fill="#80BA91"/>
<path d="M165.4 74.6207C165.4 74.6207 162.557 85.538 164.638 98.0312C166.719 110.524 169.939 119.357 159.284 139.905C159.284 139.905 158.147 92.2968 165.4 74.6207Z" fill="#223242"/>
<path d="M154.963 173.378C153.135 173.024 153.369 160.396 156.35 148.388C159.758 134.656 163.92 133.169 167.502 119.047C170.762 106.198 168.07 104.456 171.178 95.2479C177.06 77.814 191.912 68.6272 192.662 70.3764C193.11 71.4207 188.168 75.5122 185.842 84.4158C183.176 94.6252 187.275 98.4316 186.106 108.21C184.766 119.422 178.506 121.698 168.809 140.706C159.221 159.5 154.963 173.378 154.963 173.378Z" fill="#80BA91"/>
<path d="M154.963 173.378C154.963 173.378 170.464 149.859 183.752 116.298C183.752 116.298 163.941 138.579 154.963 173.378Z" fill="#223242"/>
<path d="M152.932 184.776C152.848 177.531 155.007 169.45 155.029 169.37C157.395 153.969 161.486 140.895 167.179 130.566C167.711 129.6 168.266 128.641 168.828 127.671C171.481 123.087 174.224 118.348 175.611 111.178C176.362 107.297 176.341 104.614 176.322 102.02C176.301 99.3811 176.282 96.8878 177.041 93.3731C178.524 86.5087 182.188 79.8683 187.93 73.635L188.272 74.2161C182.64 80.3291 179.052 86.8197 177.606 93.5072C176.872 96.9071 176.891 99.3437 176.91 101.923C176.931 104.569 176.952 107.304 176.181 111.289C174.76 118.631 171.974 123.444 169.281 128.1C168.722 129.065 168.171 130.017 167.641 130.978C162.006 141.202 157.953 154.162 155.594 169.498C155.561 169.636 153.439 177.579 153.521 184.676L152.932 184.776Z" fill="#223242"/>
<path d="M153.415 179.315C153.415 179.315 175.847 150.194 193.484 133.479L176.643 139.01L160.674 160.633L153.415 179.315Z" fill="#223242"/>
<path d="M153.415 179.315C156.018 167.675 159.624 160.258 162.412 155.653C166.445 148.995 169.161 147.575 174.491 138.497C179.244 130.402 179.559 127.317 182.031 123.461C185.888 117.444 193.434 111.99 209.729 115.478C209.729 115.478 207.217 115.075 204.815 117.179C202.414 119.284 196.543 133.642 188.276 137.34C180.007 141.038 171.707 144.272 164.178 157.533C156.648 170.794 153.415 179.315 153.415 179.315Z" fill="#80BA91"/>
<path d="M151.982 185.443L151.433 185.243L153.14 179.215C158.371 160.741 167.698 150.358 176.718 140.317C180.244 136.393 183.573 132.687 186.529 128.618C196.935 114.293 204.14 115.412 204.442 115.467L204.299 116.241C204.228 116.228 197.077 115.158 186.931 129.126C183.95 133.23 180.606 136.952 177.067 140.892C168.115 150.856 158.858 161.16 153.69 179.415L151.982 185.443Z" fill="#223242"/>
<path opacity="0.52" d="M107.691 216.235C80.1527 216.235 57.8283 214.702 57.8283 212.812C57.8283 210.921 80.1527 209.388 107.691 209.388C135.23 209.388 157.554 210.921 157.554 212.812C157.554 214.702 135.23 216.235 107.691 216.235Z" fill="#BBC5D4"/>
<path d="M49.7397 43.4621C54.5231 32.6729 62.8383 27.9279 70.9093 25.4925C78.2314 23.2831 85.561 25.4424 92.049 30.9219C96.4938 34.6758 101.446 36.5802 106.408 36.6442C106.836 36.6388 108.547 36.6388 108.975 36.6442C113.936 36.5802 118.889 34.6758 123.334 30.9219C129.821 25.4424 137.151 23.2831 144.474 25.4925C152.544 27.9279 160.859 32.6729 165.643 43.4621C174.064 62.4567 172.346 90.5608 163.981 108.806C162.22 112.647 161.995 117.64 162.206 122.311C162.51 129.063 162.596 135.398 162.416 142.155C162.196 150.495 161.675 158.843 160.587 167.031C158.721 181.076 155.05 195.13 147.896 204.888C146.112 207.322 144.149 209.444 142.056 211.219C136.194 216.192 129.739 211.544 127.045 202.654C125.34 197.027 125.051 190.687 124.689 184.515C123.891 170.904 120.775 158.196 110.661 156.573C110.098 156.483 109.535 156.449 108.975 156.465C108.549 156.452 108.12 156.498 107.692 156.547C107.263 156.498 106.835 156.452 106.408 156.465C105.848 156.449 105.286 156.483 104.723 156.573C94.609 158.196 91.4928 170.904 90.6949 184.515C90.3333 190.687 90.0442 197.027 88.3391 202.654C85.6453 211.545 79.1909 216.193 73.3279 211.219C71.2357 209.444 69.2719 207.323 67.4885 204.888C60.3354 195.129 56.6634 181.076 54.7978 167.031C53.7098 158.843 53.1887 150.495 52.9679 142.155C52.7887 135.398 52.8741 129.063 53.1786 122.311C53.3893 117.64 53.1642 112.647 51.4037 108.806C43.0373 90.5608 41.3178 62.4567 49.7397 43.4621Z" fill="white"/>
<path d="M60.1115 182.892C68.2293 187.866 77.1653 183.218 80.8955 174.328C83.256 168.7 83.656 162.361 84.1573 156.189C85.2624 142.577 89.5771 129.869 103.58 128.247C104.359 128.157 105.138 128.122 105.914 128.138C106.504 128.126 107.097 128.172 107.691 128.221C108.284 128.172 108.877 128.126 109.468 128.138C110.243 128.122 111.022 128.157 111.802 128.247C125.804 129.869 130.119 142.577 131.224 156.189C131.725 162.361 132.125 168.701 134.486 174.328C138.216 183.219 147.152 187.866 155.27 182.892C156.199 182.323 157.103 181.705 157.994 181.065C155.824 190.052 152.635 198.421 147.894 204.888C146.11 207.322 144.147 209.444 142.055 211.219C136.192 216.192 129.738 211.544 127.044 202.654C125.339 197.027 125.05 190.686 124.688 184.515C123.89 170.904 120.773 158.195 110.66 156.573C110.098 156.483 109.534 156.449 108.974 156.464C108.548 156.452 108.119 156.498 107.691 156.547C107.263 156.498 106.834 156.452 106.407 156.464C105.847 156.449 105.285 156.483 104.722 156.573C94.608 158.195 91.4917 170.904 90.6939 184.515C90.3323 190.686 90.0432 197.027 88.3381 202.654C85.6443 211.544 79.1899 216.192 73.3269 211.219C71.2347 209.444 69.2709 207.322 67.4875 204.888C62.7461 198.42 59.5579 190.052 57.3877 181.065C58.2784 181.705 59.1819 182.323 60.1115 182.892Z" fill="#D9E7FC"/>
<path d="M107.691 53.5253C93.5332 53.5253 81.514 41.4586 77.1732 24.6831C82.354 24.8293 87.4175 27.0091 92.0489 30.9212C96.4937 34.6757 101.446 36.5795 106.408 36.6435C106.836 36.6381 108.547 36.6381 108.975 36.6435C113.936 36.5795 118.889 34.6751 123.334 30.9212C127.965 27.0091 133.029 24.8287 138.209 24.6831C133.868 41.4586 121.849 53.5253 107.691 53.5253Z" fill="#D9E7FC"/>
<path opacity="0.52" d="M181.674 222.153C181.674 223.493 189.216 224.581 198.519 224.581C207.821 224.581 215.362 223.493 215.362 222.153C215.362 220.812 207.821 219.724 198.519 219.724C189.216 219.725 181.674 220.812 181.674 222.153Z" fill="#BBC5D4"/>
<path d="M207.773 209.981L213.501 210.073C213.025 212.517 212.512 215.018 211.955 217.58L208.009 217.517L207.773 209.981Z" fill="#FCC6BA"/>
<path d="M193.995 208.885L200.057 208.982L197.86 216.172L193.344 214.367C193.344 214.367 193.585 212.296 193.995 208.885Z" fill="#FCC6BA"/>
<path d="M206.54 216.726L212.233 216.706C212.233 216.706 213.501 217.949 214.054 223.452L202.156 223.493C202.156 223.493 201.824 220.242 204.947 218.98L206.54 216.726Z" fill="#223242"/>
<path d="M198.397 215.035C198.397 215.035 198.75 219.316 198.251 221.058L185.138 221.207C185.138 221.207 184.418 217.406 192.821 215.054L198.397 215.035Z" fill="#223242"/>
<path d="M210.764 216.916L211.52 214.975C211.52 214.975 209.173 213.762 206.373 214.681L206.38 217.033L210.764 216.916Z" fill="#223242"/>
<path d="M195.213 215.117L195.707 213.198C195.707 213.198 194.424 211.921 192.809 212.763L192.731 215.113L195.213 215.117Z" fill="#223242"/>
<path d="M206.734 85.12L201.212 83.964L204.432 67.2585L209.497 68.5112L206.734 85.12Z" fill="#FCC6BA"/>
<path d="M204.681 58.9355C204.681 58.9355 196.538 56.7454 197.103 61.9253C197.669 67.1052 199.184 68.739 199.184 68.739L204.681 58.9355Z" fill="#223242"/>
<path d="M198.023 65.5504C197.131 70.1759 199.65 74.727 203.65 75.7158C207.649 76.7045 211.613 73.7564 212.505 69.131C213.397 64.5055 210.878 59.9544 206.878 58.9656C202.88 57.9769 198.915 60.925 198.023 65.5504Z" fill="#FCC6BA"/>
<path d="M198.339 64.3407C198.339 64.3407 195.681 73.8676 199.251 78.969C199.435 79.2317 199.711 79.3845 200.005 79.3912C201.788 79.4298 209.671 78.4513 211.92 70.5546L198.339 64.3407Z" fill="#FCC6BA"/>
<path d="M204.16 71.8218C204.16 71.8218 197.984 68.8096 197.318 70.5987C197.318 70.5987 196.79 79.5306 199.907 79.5361C205.284 79.5457 204.16 71.8218 204.16 71.8218Z" fill="white"/>
<path d="M206.176 68.9691C206.176 68.9691 204.678 71.7064 202.719 72.7646" stroke="white" stroke-width="0.75" stroke-miterlimit="10" stroke-linecap="round"/>
<path d="M207.19 73.0769C207.19 73.0769 205.831 76.6012 202.167 78.1257" stroke="white" stroke-width="0.75" stroke-miterlimit="10" stroke-linecap="round"/>
<path d="M199.628 61.8274C199.628 61.8274 202.18 68.8761 206.247 69.4444C206.247 69.4444 208.195 67.6687 208.789 69.2965C209.383 70.9236 208.417 72.9797 207.191 73.0775C207.191 73.0775 208.236 76.0878 207.933 77.9131C207.933 77.9131 210.798 76.6834 211.921 75.2966C213.388 73.4834 214.274 68.9836 213.627 64.7797C212.883 59.9399 203.07 53.9947 199.628 61.8274Z" fill="#223242"/>
<path d="M210.412 62.2973C210.572 60.3397 212.375 58.2976 214.471 58.3822C216.051 58.4456 217.287 59.6953 217.85 61.0017C218.851 63.3223 217.986 66.419 216.354 67.2749C214.089 68.4629 210.156 65.4272 210.412 62.2973Z" fill="#223242"/>
<path d="M199.713 61.5942C199.713 61.5942 198.763 64.282 201.492 67.0864" stroke="#223242" stroke-width="0.75" stroke-miterlimit="10" stroke-linecap="round"/>
<path d="M210.961 61.8879C210.961 61.8879 210.285 57.9504 214.202 57.5958" stroke="#223242" stroke-width="0.75" stroke-miterlimit="10" stroke-linecap="round"/>
<path d="M202.117 79.1737C202.117 79.1737 204.91 78.4314 205.901 77.7325C205.901 77.7325 203.064 79.8949 201.938 80.1401L202.117 79.1737Z" fill="#223242"/>
<path d="M208.28 73.5608C208.104 74.0416 207.617 74.2699 207.192 74.07C206.767 73.8706 206.566 73.3186 206.742 72.8378C206.918 72.357 207.406 72.1293 207.83 72.3286C208.255 72.5286 208.456 73.08 208.28 73.5608Z" fill="white"/>
<path d="M188.292 122.364C197.228 122.364 211.799 123.131 211.799 123.131C212.167 125.092 211.583 124.563 212.503 126.723C213.9 130.003 214.337 133.701 213.698 137.27C213.468 138.552 213.223 139.911 212.989 141.194C212.989 141.194 212.862 148.73 212.989 153.503C213.116 158.277 214.503 166.846 215.427 171.322C216.351 175.799 216.874 179.775 216.659 185.086C216.443 190.398 213.568 211.151 213.568 211.151C213.568 211.151 211.539 214.025 207.314 211.151C207.314 211.151 206.948 181.41 206.108 178.106C205.268 174.803 205.2 176.806 202.882 171.53C201.835 169.147 199.812 160.279 197.91 151.271C197.865 153.487 197.873 155.484 197.969 156.986C198.436 164.326 200.94 174.17 201.189 177.393C201.439 180.614 200.489 209.263 200.489 209.263C200.489 209.263 198.127 212.586 193.466 209.887C193.466 209.887 191.966 182.966 192.064 179.95C192.161 176.935 186.976 167.67 185.698 159.794C184.42 151.919 185.543 129.652 188.292 122.364Z" fill="#223242"/>
<path d="M208.487 122.969C208.487 122.969 210.507 128.328 209.497 135.053C208.487 141.777 210.388 163.774 212.717 170.474C215.047 177.175 214.981 187.409 211.799 211.791" stroke="#6588FC" stroke-width="0.75" stroke-miterlimit="10" stroke-linecap="round" stroke-linejoin="round"/>
<path d="M197.909 151.272L194.561 142.797" stroke="#223242" stroke-width="0.75" stroke-miterlimit="10" stroke-linecap="round" stroke-linejoin="round"/>
<path d="M198.638 210.621C198.638 210.621 199.594 181.108 198.638 177.612C197.682 174.116 194.561 160.277 196.643 148.068" stroke="#6588FC" stroke-width="0.75" stroke-miterlimit="10" stroke-linecap="round" stroke-linejoin="round"/>
<path d="M180.928 115.847C177.98 110.181 177.683 109.382 173.789 99.2132L176.904 97.5335L182.186 104.996C182.822 103.81 186.89 96.8364 187.944 91.9211C189.512 84.6115 195.842 83.2223 195.842 83.2223C195.363 86.194 193.805 89.4356 192.792 90.7596L192.793 90.759L193.644 93.6419C192.088 95.379 186.578 124.141 180.928 115.847Z" fill="white"/>
<path d="M176.903 97.5334L182.186 104.996C182.593 104.237 184.063 101.426 185.834 97.8886C188.743 98.9643 189.363 101.272 190.369 103.807C187.882 111.883 184.433 120.991 180.929 115.847C177.981 110.181 177.852 109.947 173.473 98.0396L176.903 97.5334Z" fill="#FCC6BA"/>
<path d="M189.514 94.3281C189.514 94.3281 193.578 84.463 193.372 84.3198C193.372 84.3198 194.492 83.1167 201.726 81.9757L202.184 84.0547L206.595 82.9747C206.595 82.9747 212.801 84.1894 216.075 87.7814C216.075 87.7814 216.476 95.9855 215.726 100.043L215.31 102.291C214.76 105.27 209.32 113.954 209.32 113.954L211.798 123.131C211.798 123.131 196.186 126.272 188.292 122.364L191.964 110.867L189.514 94.3281Z" fill="white"/>
<path d="M209.32 113.954C209.32 113.954 214.982 129.074 215.046 136.789C215.111 144.504 216.182 167.397 216.182 167.397C216.182 167.397 199.553 173.679 185.172 165.315C185.172 165.315 182.118 128.495 192.41 110.399L209.32 113.954Z" fill="white"/>
<path d="M198.137 82.8116C198.594 85.0036 199.369 85.973 199.369 85.973L201.202 84.4195L200.002 88.0966C200.002 88.0966 196.003 99.8487 195.363 103.15C194.723 106.451 186.294 147.518 194.561 169.047" stroke="#223242" stroke-width="0.75" stroke-miterlimit="10" stroke-linecap="round" stroke-linejoin="round"/>
<path d="M207.451 81.005L201.902 84.5813L205.289 87.7909L209.32 84.5028C209.32 84.5028 209.406 82.3803 207.451 81.005Z" fill="white"/>
<path d="M198.152 82.6455C198.152 82.6455 199.809 80.7876 201.851 80.6438L202.183 84.0546" fill="white"/>
<path d="M209.32 84.5028L205.289 87.7904L202.67 84.7806L198.49 92.6381" stroke="#223242" stroke-width="0.75" stroke-miterlimit="10" stroke-linecap="round" stroke-linejoin="round"/>
<path d="M206.537 213.1L213.51 213.821C214.14 213.886 214.696 213.361 214.754 212.649L214.951 210.195C215.009 209.483 214.546 208.853 213.916 208.787L206.942 208.067C206.313 208.002 205.757 208.526 205.7 209.239L205.502 211.693C205.444 212.405 205.908 213.036 206.537 213.1Z" fill="#223242"/>
<path d="M193.206 211.79H200.209C200.84 211.79 201.353 211.211 201.353 210.495V208.031C201.353 207.316 200.841 206.735 200.209 206.735H193.206C192.575 206.735 192.062 207.315 192.062 208.031V210.495C192.062 211.211 192.574 211.79 193.206 211.79Z" fill="#223242"/>
<path d="M155.169 65.6L156.571 64.3413L169.541 82.0645L167.448 83.9435L155.169 65.6Z" fill="#BBC5D4"/>
<path d="M165.351 82.3803L168.637 79.4304C169.114 79.0028 169.806 79.0934 170.184 79.6327L171.22 81.1119L166.208 85.6117L165.173 84.1325C164.794 83.5932 164.874 82.8086 165.351 82.3803Z" fill="#BBC5D4"/>
<path d="M166.032 85.2143L167.448 83.9435L169.54 82.0645L170.672 81.0486C171.076 80.6862 171.663 80.7629 171.982 81.2201L208.975 134.064C209.977 135.495 210.068 137.412 209.341 138.92C209.098 139.423 208.764 139.88 208.343 140.259C208.028 140.541 207.687 140.76 207.33 140.916C205.782 141.596 203.96 141.095 202.873 139.543L165.88 86.699C165.561 86.2411 165.628 85.5773 166.032 85.2143Z" fill="#BBC5D4"/>
<path d="M168.869 83.2223L208.344 140.259" stroke="#223242" stroke-width="0.75" stroke-miterlimit="10" stroke-linecap="round" stroke-linejoin="round"/>
<path d="M204.284 140.773L209.728 135.886L209.995 136.267C210.665 137.225 210.523 138.618 209.677 139.377L207.297 141.514C206.451 142.274 205.221 142.113 204.551 141.155L204.284 140.773Z" fill="#BBC5D4"/>
<path d="M137.339 62.763C142.745 70.4852 151.734 72.6094 157.415 67.5081C163.097 62.4067 163.321 52.0106 157.915 44.2885C152.509 36.5663 143.52 34.4421 137.839 39.5435C132.157 44.6448 131.933 55.0409 137.339 62.763Z" fill="#909AB5"/>
<g opacity="0.5">
<path d="M139.112 61.1709C143.586 67.5618 151.025 69.32 155.728 65.0981C160.43 60.8761 160.616 52.2721 156.141 45.8812C151.667 39.4903 144.228 37.732 139.526 41.954C134.824 46.176 134.639 54.7794 139.112 61.1709Z" fill="white"/>
</g>
<g opacity="0.5">
<path d="M139.112 61.1709C134.638 54.78 134.823 46.176 139.526 41.954C144.229 37.732 151.668 39.4903 156.142 45.8812C156.464 46.3421 156.755 46.8162 157.029 47.2976C154.402 46.4623 151.91 46.3789 149.926 47.8545C144.954 51.5504 146.939 62.1729 145.921 66.6781C143.41 65.7305 140.998 63.8641 139.112 61.1709Z" fill="white"/>
</g>
<path d="M212.763 118.579C212.673 118.571 214.028 116.821 215.318 115.131C214.65 111.238 209.953 88.3081 216.075 87.7814C216.075 87.7814 221.476 94.6742 222.088 112.187C222.104 112.333 222.081 116.997 222.08 116.998C221.949 118.633 213.283 128.812 208.358 132.078C207.416 131.039 206.503 129.966 205.581 128.902L212.763 118.579Z" fill="white"/>
<path d="M205.582 128.904L212.763 118.579C212.673 118.571 214.028 116.822 215.318 115.132C215.204 114.464 214.97 113.245 214.693 111.696C218.29 108.892 220.263 108.573 221.874 108.667C221.971 109.789 222.045 110.957 222.089 112.188C222.105 112.334 222.082 116.999 222.081 116.999C221.95 118.634 213.284 128.813 208.358 132.079C207.416 131.04 206.503 129.967 205.582 128.904Z" fill="#FCC6BA"/>
<path d="M206.579 127.975C206.579 127.975 203.757 124.848 203.252 123.042C202.746 121.236 201.65 123.425 202.299 125.116C202.947 126.807 203.473 128.09 203.473 128.09L200.692 128.836C200.692 128.836 199.012 132.802 204.747 134.391L209.062 132.193C209.062 132.193 208.453 128.896 206.579 127.975Z" fill="#6588FC"/>
<path d="M201.232 128.688C201.232 128.688 197.47 129.1 197.059 129.111C195.173 129.161 194.972 130.376 195.905 130.339C197.345 130.282 201.911 130.439 201.911 130.439L201.232 128.688Z" fill="#6588FC"/>
<path d="M201.541 132.132C201.541 132.132 194.493 133.109 194.561 132.627C194.629 132.145 195.838 131.236 196.991 131.109C198.77 130.912 202.381 130.221 202.381 130.221L201.541 132.132Z" fill="#6588FC"/>
<path d="M203.056 133.731C203.056 133.731 196.627 135.099 196.643 134.62C196.659 134.142 197.69 133.178 198.745 132.986C200.372 132.689 203.647 131.8 203.647 131.8L203.056 133.731Z" fill="#6588FC"/>
<path d="M205.526 133.869C205.526 133.869 200.539 137.157 200.428 136.754C200.316 136.351 200.922 135.205 201.748 134.693C203.023 133.902 205.514 132.068 205.514 132.068L205.526 133.869Z" fill="#6588FC"/>
<path d="M207.982 132.744C207.982 132.744 210.53 131.716 211.557 131.139C212.702 130.497 209.487 125.266 207.777 124.611C206.066 123.955 207.235 125.995 205.175 126.814L207.982 132.744Z" fill="#6588FC"/>
<path d="M202.894 126.645C202.894 126.645 203.626 128.611 201.04 128.82L204.804 128.963L202.894 126.645Z" fill="#6588FC"/>
<path d="M213.636 106.116L211.798 98.5905" stroke="#223242" stroke-width="0.75" stroke-miterlimit="10" stroke-linecap="round" stroke-linejoin="round"/>
<path d="M171.973 95.0366C171.973 95.0366 172.585 95.7729 174.404 95.9257C176.223 96.0791 178.122 96.7924 177.801 97.5203C177.48 98.2475 174.316 97.9986 174.316 97.9986C174.316 97.9986 170.948 97.0781 171.973 95.0366Z" fill="#6588FC"/>
<path d="M173.198 97.2206C173.198 97.2206 173.81 97.9569 175.628 98.1097C177.447 98.2631 178.259 99.041 177.938 99.7683C177.617 100.495 175.541 100.183 175.541 100.183C175.541 100.183 172.172 99.2621 173.198 97.2206Z" fill="#6588FC"/>
<path d="M174.615 99.3522C174.615 99.3522 175.048 99.8722 176.333 99.9809C177.619 100.089 178.193 100.639 177.966 101.153C177.739 101.667 176.272 101.446 176.272 101.446C176.272 101.446 173.89 100.795 174.615 99.3522Z" fill="#6588FC"/>
<path d="M171.224 94.2647C171.224 94.2647 172.029 94.7014 173.775 94.1022C175.52 93.503 176.525 93.8968 176.457 94.7062C176.389 95.5155 174.353 96.0712 174.353 96.0712C174.353 96.0712 170.917 96.5882 171.224 94.2647Z" fill="#6588FC"/>
<path d="M191.893 107.44C191.893 107.44 189.613 104.757 189.61 101.881C189.606 99.2132 192.136 96.0948 192.136 96.0948L192.41 91.5931" fill="white"/>
<path d="M191.893 107.44C191.893 107.44 189.613 104.757 189.61 101.881C189.606 99.2132 192.136 96.0948 192.136 96.0948L192.41 91.5931" stroke="#223242" stroke-width="0.75" stroke-miterlimit="10" stroke-linecap="round" stroke-linejoin="round"/>
<path d="M207.331 107.44C207.331 107.44 203.253 110.489 198.152 108.653L207.331 107.44Z" fill="white"/>
<path d="M207.331 107.44C207.331 107.44 203.253 110.489 198.152 108.653" stroke="#223242" stroke-width="0.75" stroke-miterlimit="10" stroke-linecap="round" stroke-linejoin="round"/>
<path d="M202.769 97.8394L207.683 99.2756L207.231 101.258L202.317 99.8215L202.769 97.8394Z" fill="#6588FC"/>
<path d="M208.946 218.024C208.946 218.024 207.349 217.027 205.697 218.024" stroke="white" stroke-width="0.75" stroke-miterlimit="10" stroke-linecap="round"/>
<path d="M208.1 219.091C208.1 219.091 206.503 218.094 204.851 219.091" stroke="white" stroke-width="0.75" stroke-miterlimit="10" stroke-linecap="round"/>
<path d="M192.181 216.394C192.181 216.394 191.226 215.798 190.029 215.988" stroke="white" stroke-width="0.75" stroke-miterlimit="10" stroke-linecap="round"/>
<path d="M193.964 215.755C193.964 215.755 193.009 215.159 191.812 215.349" stroke="white" stroke-width="0.75" stroke-miterlimit="10" stroke-linecap="round"/>
<path opacity="0.52" d="M48.2731 227.478C33.8857 227.478 22.2224 226.616 22.2224 225.552C22.2224 224.488 33.8857 223.626 48.2731 223.626C62.6604 223.626 74.3237 224.488 74.3237 225.552C74.3237 226.616 62.6604 227.478 48.2731 227.478Z" fill="#BBC5D4"/>
<path d="M27.344 225.552H69.2027C70.7126 225.552 71.936 224.166 71.936 222.456V155.256C71.936 153.546 70.712 152.16 69.2027 152.16H27.344C25.8342 152.16 24.6107 153.546 24.6107 155.256V222.456C24.6102 224.166 25.8342 225.552 27.344 225.552Z" fill="#6588FC"/>
<path d="M29.4774 152.161H67.0688V219.963H29.4774V152.161Z" fill="white"/>
<path d="M39.912 148.762H42.2074C42.6261 148.762 42.9978 148.423 43.0538 147.953C43.4026 145.041 45.6064 142.797 48.2736 142.797C50.9402 142.797 53.1445 145.041 53.4933 147.953C53.5493 148.423 53.921 148.762 54.3397 148.762H56.6352C57.097 148.762 57.4714 149.186 57.4714 149.709V155.202C57.4714 155.725 57.097 156.149 56.6352 156.149H39.912C39.4501 156.149 39.0757 155.725 39.0757 155.202V149.709C39.0757 149.186 39.4501 148.762 39.912 148.762ZM48.273 151.224C49.4736 151.224 50.4469 150.122 50.4469 148.762C50.4469 147.403 49.4736 146.3 48.273 146.3C47.0725 146.3 46.0992 147.403 46.0992 148.762C46.0992 150.122 47.0725 151.224 48.273 151.224Z" fill="#909AB5"/>
<path d="M52.0517 164.208C52.3968 163.483 52.9968 163.164 53.5792 163C54.1077 162.852 54.6363 162.997 55.1046 163.365C55.4251 163.618 55.7824 163.746 56.1408 163.75C56.1718 163.749 56.2949 163.749 56.3259 163.75C56.6837 163.746 57.0411 163.618 57.3621 163.365C57.8304 162.997 58.3589 162.852 58.8875 163C59.4699 163.164 60.0699 163.483 60.415 164.208C61.0224 165.485 60.8987 167.375 60.295 168.602C60.168 168.86 60.1515 169.196 60.1669 169.51C60.1888 169.964 60.1952 170.39 60.1819 170.844C60.1659 171.405 60.1285 171.966 60.0501 172.516C59.9157 173.461 59.6507 174.406 59.1344 175.062C59.0059 175.225 58.864 175.368 58.7131 175.488C58.2902 175.822 57.8245 175.509 57.6299 174.912C57.5067 174.534 57.4859 174.107 57.4597 173.692C57.4021 172.777 57.1776 171.923 56.4475 171.814C56.4069 171.808 56.3664 171.806 56.3259 171.807C56.2949 171.806 56.264 171.809 56.2331 171.812C56.2022 171.809 56.1712 171.806 56.1403 171.807C56.0997 171.806 56.0592 171.808 56.0187 171.814C55.2891 171.923 55.064 172.777 55.0064 173.692C54.9803 174.107 54.9595 174.534 54.8363 174.912C54.6416 175.51 54.176 175.822 53.7531 175.488C53.6021 175.368 53.4603 175.225 53.3318 175.062C52.8155 174.406 52.5504 173.461 52.416 172.516C52.3376 171.966 52.2998 171.405 52.2838 170.844C52.271 170.39 52.2768 169.964 52.2992 169.51C52.3147 169.196 52.2982 168.86 52.1712 168.602C51.568 167.375 51.4437 165.486 52.0517 164.208Z" fill="#6588FC"/>
<path d="M58.5781 173.796C58.7429 173.415 58.8698 172.923 58.953 172.343C59.0175 171.891 59.0565 171.389 59.073 170.81C59.0842 170.401 59.0799 170.007 59.0586 169.57C59.0394 169.182 59.0448 168.602 59.3098 168.063C59.7856 167.096 59.8368 165.603 59.4234 164.734C59.3226 164.522 59.1461 164.285 58.6015 164.132C58.5583 164.12 58.5168 164.114 58.4741 164.114C58.3024 164.114 58.1354 164.217 58.025 164.304C57.521 164.7 56.9381 164.914 56.3386 164.921H56.1504C55.528 164.914 54.945 164.701 54.441 164.304C54.3306 164.218 54.1631 164.114 53.9919 164.114C53.9498 164.114 53.9082 164.119 53.865 164.132C53.3205 164.285 53.1445 164.522 53.0437 164.734C52.6298 165.603 52.6805 167.096 53.1562 168.063C53.4208 168.601 53.4266 169.181 53.408 169.57C53.3866 170.007 53.3824 170.401 53.3936 170.81C53.4101 171.389 53.4496 171.891 53.5136 172.343C53.5962 172.923 53.7237 173.415 53.8885 173.796C53.8911 173.758 53.8997 173.615 53.8997 173.615C54.04 171.39 55.0448 170.777 55.8629 170.655C55.9504 170.642 56.0357 170.636 56.12 170.636C56.1621 170.636 56.1978 170.637 56.2304 170.638C56.2586 170.637 56.3178 170.636 56.3189 170.636C56.4325 170.636 56.5168 170.642 56.601 170.654C57.4213 170.777 58.4261 171.39 58.5664 173.615C58.5664 173.615 58.5754 173.758 58.5781 173.796Z" fill="white"/>
<path d="M57.2656 167.627L56.3206 168.74L55.0523 166.937" stroke="#6588FC" stroke-miterlimit="10" stroke-linecap="round" stroke-linejoin="round"/>
<path d="M47.3199 180.201H35.3738C35.0735 180.201 34.8303 179.925 34.8303 179.585C34.8303 179.245 35.0735 178.97 35.3738 178.97H47.3199C47.6202 178.97 47.8634 179.245 47.8634 179.585C47.8634 179.925 47.6202 180.201 47.3199 180.201Z" fill="#6588FC"/>
<path d="M61.1722 184.154H35.3738C35.0735 184.154 34.8303 183.879 34.8303 183.539C34.8303 183.199 35.0735 182.923 35.3738 182.923H61.1722C61.4725 182.923 61.7157 183.199 61.7157 183.539C61.7157 183.879 61.4725 184.154 61.1722 184.154Z" fill="#6588FC"/>
<path d="M61.1722 188.356H35.3738C35.0735 188.356 34.8303 188.081 34.8303 187.741C34.8303 187.401 35.0735 187.125 35.3738 187.125H61.1722C61.4725 187.125 61.7157 187.401 61.7157 187.741C61.7157 188.081 61.4725 188.356 61.1722 188.356Z" fill="#6588FC"/>
<path d="M61.1722 192.558H35.3738C35.0735 192.558 34.8303 192.283 34.8303 191.943C34.8303 191.603 35.0735 191.327 35.3738 191.327H61.1722C61.4725 191.327 61.7157 191.603 61.7157 191.943C61.7157 192.283 61.4725 192.558 61.1722 192.558Z" fill="#6588FC"/>
<path d="M61.1722 196.76H35.3738C35.0735 196.76 34.8303 196.485 34.8303 196.145C34.8303 195.805 35.0735 195.529 35.3738 195.529H61.1722C61.4725 195.529 61.7157 195.805 61.7157 196.145C61.7157 196.485 61.4725 196.76 61.1722 196.76Z" fill="#6588FC"/>
<path d="M61.1722 200.962H35.3738C35.0735 200.962 34.8303 200.687 34.8303 200.347C34.8303 200.007 35.0735 199.731 35.3738 199.731H61.1722C61.4725 199.731 61.7157 200.007 61.7157 200.347C61.7157 200.687 61.4725 200.962 61.1722 200.962Z" fill="#6588FC"/>
<path d="M61.1722 205.65H35.3738C35.0735 205.65 34.8303 205.375 34.8303 205.035C34.8303 204.695 35.0735 204.419 35.3738 204.419H61.1722C61.4725 204.419 61.7157 204.695 61.7157 205.035C61.7157 205.375 61.4725 205.65 61.1722 205.65Z" fill="#6588FC"/>
<path d="M61.1722 209.852H35.3738C35.0735 209.852 34.8303 209.577 34.8303 209.237C34.8303 208.897 35.0735 208.621 35.3738 208.621H61.1722C61.4725 208.621 61.7157 208.897 61.7157 209.237C61.7157 209.577 61.4725 209.852 61.1722 209.852Z" fill="#6588FC"/>
<path d="M29.4779 219.962H67.0688V221.537L48.2731 220.75L29.4779 221.537V219.962Z" fill="#223242"/>
<path d="M109.953 9.39055L108.585 13.9266C108.563 13.9985 108.518 14.0583 108.459 14.0945L104.295 15.6305C104.06 15.7168 104.061 16.0919 104.295 16.1777L108.437 17.6895C108.496 17.7263 108.54 17.7861 108.561 17.858L109.896 22.4176C109.976 22.6912 110.318 22.693 110.4 22.42L111.769 17.884C111.791 17.8121 111.835 17.7523 111.895 17.7161L115.922 16.229C116.193 16.1288 116.195 15.6957 115.924 15.5966C114.519 15.0863 111.916 14.1211 111.916 14.1211C111.858 14.0842 111.813 14.0244 111.793 13.9526L110.457 9.39296C110.377 9.11935 110.036 9.11754 109.953 9.39055Z" fill="white"/>
<path d="M100.287 0.99675L99.5447 3.45624C99.533 3.4955 99.5085 3.52751 99.4765 3.54745L97.2189 4.38036C97.0919 4.42687 97.0925 4.63042 97.2194 4.67692L99.4653 5.49655C99.4967 5.51649 99.5207 5.5491 99.5319 5.58776L100.256 8.05993C100.299 8.20851 100.484 8.20912 100.529 8.06114L101.271 5.60165C101.282 5.56239 101.307 5.53038 101.339 5.51045L103.522 4.7041C103.669 4.64974 103.671 4.41479 103.523 4.36164C102.761 4.08501 101.351 3.56134 101.351 3.56134C101.319 3.5414 101.295 3.50879 101.284 3.47013L100.56 0.997962C100.516 0.849982 100.331 0.849374 100.287 0.99675Z" fill="white"/>
<path d="M32.2546 46.3505L31.5128 48.81C31.5011 48.8486 31.4765 48.8813 31.4445 48.9012L29.1869 49.7341C29.06 49.7806 29.0605 49.9842 29.1875 50.0307L31.4333 50.8503C31.4648 50.8702 31.4888 50.9028 31.5 50.9415L32.2237 53.4137C32.2669 53.5623 32.4525 53.5629 32.4968 53.4149L33.2386 50.9554C33.2504 50.9161 33.2749 50.8841 33.3069 50.8642L35.4904 50.0578C35.6376 50.0035 35.6386 49.7685 35.4914 49.7154C34.7293 49.4387 33.3186 48.9151 33.3186 48.9151C33.2872 48.8951 33.2632 48.8625 33.252 48.8239L32.5282 46.3517C32.4845 46.2037 32.2994 46.2025 32.2546 46.3505Z" fill="white"/>
</svg>
