<svg width="688" height="567" viewBox="0 0 688 567" fill="none" xmlns="http://www.w3.org/2000/svg">
<g clip-path="url(#clip0_27_51)">
<path d="M638.194 463.755C718.957 359.118 698.7 177.771 597.702 77.3231C476.157 -43.5574 296.64 11.3683 270.715 19.3006C138.139 59.8645 12.9062 181.696 0.987366 330.778C-5.74335 414.981 21.7101 532.453 90.3543 561.332C140.689 582.509 168.991 537.462 280.169 538.317C363.291 538.957 372.87 564.332 439.19 560.487C452.332 559.724 570.734 551.157 638.194 463.755Z" fill="#ABD1FF"/>
<path d="M256.754 431.196L257.579 430.249C218.501 389.061 202.197 326.049 202.038 325.417L200.779 325.579C200.939 326.216 217.349 389.665 256.754 431.196Z" fill="#223242"/>
<path d="M202.687 326.906C202.687 326.906 200.403 286.815 189.636 259.579C185.92 250.183 181.568 242.251 177.585 235.963C177.585 235.963 175.732 286.024 202.687 326.906Z" fill="#80BA91"/>
<path d="M177.586 235.963C177.586 235.963 187.746 254.823 188.138 278.69C188.53 302.556 185.125 320.178 215.414 353.407C215.414 353.407 199.616 265.366 177.586 235.963Z" fill="#223242"/>
<path d="M237.306 413.116C241.021 411.683 235.702 388.559 224.836 367.753C212.41 343.957 203.077 343.004 190.136 318.564C178.362 296.329 183.363 291.976 173.3 276.369C154.248 246.825 119.462 236.286 118.55 239.824C118.006 241.937 129.978 247.346 138.279 262.725C147.795 280.36 140.617 289.114 146.813 306.596C153.919 326.643 167.973 328.148 195.66 358.955C223.035 389.416 237.306 413.116 237.306 413.116Z" fill="#80BA91"/>
<path d="M237.306 413.116C237.306 413.116 195.672 376.497 154.864 320.465C154.864 320.465 205.1 352.961 237.306 413.116Z" fill="#223242"/>
<path d="M245.938 433.207C243.348 419.849 235.711 405.911 235.634 405.771C224.768 378.461 211.154 356.168 195.219 339.61C193.728 338.06 192.194 336.535 190.64 334.99C183.301 327.697 175.714 320.155 170.052 307.562C166.988 300.747 166.005 295.804 165.056 291.025C164.09 286.163 163.177 281.57 160.236 275.432C154.489 263.443 144.236 252.798 129.761 243.793L129.264 245.008C143.461 253.839 153.498 264.24 159.098 275.92C161.944 281.858 162.835 286.347 163.779 291.1C164.747 295.974 165.748 301.015 168.895 308.011C174.693 320.906 182.399 328.566 189.851 335.972C191.396 337.508 192.921 339.024 194.405 340.564C210.178 356.956 223.668 379.055 234.496 406.25C234.618 406.488 242.122 420.189 244.661 433.274L245.938 433.207Z" fill="#223242"/>
<path d="M242.835 423.371C242.835 423.371 184.465 379.416 140.936 356.225L178.515 359.19L220.409 392.12L242.835 423.371Z" fill="#223242"/>
<path d="M242.835 423.371C232.906 403.079 222.477 390.981 214.845 383.707C203.807 373.188 197.546 371.74 182.851 357.325C169.748 344.472 167.905 338.933 161.227 332.9C150.804 323.485 132.83 316.684 99.8447 330.072C99.8447 330.072 104.981 328.256 110.841 331.1C116.703 333.943 134.553 357.835 153.378 361.097C172.204 364.36 190.92 366.754 211.845 387.92C232.77 409.086 242.835 423.371 242.835 423.371Z" fill="#80BA91"/>
<path d="M248.194 434.028L249.274 433.426L243.375 423.07C225.299 391.333 201.688 376.232 178.855 361.627C169.931 355.92 161.502 350.528 153.723 344.311C126.334 322.419 111.588 327.562 110.973 327.791L111.569 329.154C111.714 329.1 126.363 324.07 153.071 345.418C160.916 351.687 169.38 357.101 178.34 362.832C201.001 377.326 224.434 392.314 242.294 423.673L248.194 434.028Z" fill="#223242"/>
<path d="M416.701 444.725L415.7 443.962C445.596 395.839 448.739 330.871 448.766 330.22L450.032 330.128C450.005 330.782 446.846 396.199 416.701 444.725Z" fill="#223242"/>
<path d="M448.434 331.807C448.434 331.807 442.511 292.081 447.514 263.261C449.241 253.317 451.89 244.682 454.511 237.729C454.511 237.729 466.516 286.396 448.434 331.807Z" fill="#80BA91"/>
<path d="M454.51 237.728C454.51 237.728 448.398 258.225 452.871 281.681C457.344 305.137 464.268 321.72 441.361 360.298C441.361 360.298 438.915 270.915 454.51 237.728Z" fill="#223242"/>
<path d="M432.071 423.143C428.14 422.48 428.643 398.77 435.052 376.226C442.381 350.443 451.328 347.653 459.03 321.137C466.037 297.014 460.251 293.745 466.932 276.456C479.58 243.724 511.51 226.476 513.123 229.76C514.086 231.72 503.46 239.402 498.459 256.118C492.727 275.286 501.541 282.433 499.028 300.791C496.148 321.843 482.688 326.115 461.838 361.803C441.226 397.087 432.071 423.143 432.071 423.143Z" fill="#80BA91"/>
<path d="M432.071 423.143C432.071 423.143 465.399 378.986 493.967 315.977C493.967 315.977 451.374 357.809 432.071 423.143Z" fill="#223242"/>
<path d="M427.704 444.543C427.523 430.942 432.166 415.769 432.213 415.618C437.299 386.704 446.096 362.157 458.335 342.765C459.48 340.951 460.672 339.151 461.88 337.329C467.584 328.723 473.482 319.825 476.464 306.364C478.079 299.078 478.034 294.041 477.991 289.17C477.947 284.216 477.907 279.534 479.538 272.936C482.727 260.048 490.604 247.581 502.95 235.878L503.685 236.969C491.576 248.446 483.861 260.632 480.754 273.187C479.175 279.571 479.215 284.145 479.257 288.989C479.301 293.955 479.347 299.091 477.69 306.572C474.634 320.357 468.645 329.394 462.853 338.134C461.653 339.946 460.467 341.734 459.328 343.537C447.214 362.734 438.499 387.066 433.427 415.859C433.355 416.118 428.794 431.031 428.97 444.355L427.704 444.543Z" fill="#223242"/>
<path d="M428.742 434.29C428.742 434.29 476.971 379.616 514.89 348.233L478.683 358.618L444.349 399.214L428.742 434.29Z" fill="#223242"/>
<path d="M428.742 434.29C434.338 412.437 442.092 398.51 448.086 389.866C456.757 377.365 462.595 374.7 474.056 357.655C484.275 342.457 484.953 336.664 490.266 329.426C498.559 318.128 514.782 307.889 549.816 314.437C549.816 314.437 544.417 313.68 539.253 317.631C534.091 321.583 521.468 348.539 503.693 355.483C485.916 362.426 468.07 368.497 451.882 393.395C435.693 418.293 428.742 434.29 428.742 434.29Z" fill="#80BA91"/>
<path d="M425.662 445.795L424.481 445.42L428.15 434.103C439.397 399.417 459.451 379.924 478.844 361.072C486.424 353.705 493.583 346.747 499.937 339.108C522.31 312.212 537.801 314.313 538.449 314.416L538.142 315.87C537.99 315.846 522.616 313.836 500.801 340.062C494.392 347.766 487.204 354.754 479.594 362.151C460.346 380.86 440.445 400.204 429.333 434.477L425.662 445.795Z" fill="#223242"/>
<path opacity="0.52" d="M330.436 503.607C271.228 503.607 223.231 500.729 223.231 497.18C223.231 493.63 271.228 490.752 330.436 490.752C389.644 490.752 437.641 493.63 437.641 497.18C437.641 500.729 389.644 503.607 330.436 503.607Z" fill="#BBC5D4"/>
<path d="M205.84 179.229C216.125 158.972 234.002 150.063 251.355 145.491C267.098 141.343 282.856 145.397 296.805 155.685C306.362 162.732 317.01 166.308 327.677 166.428C328.598 166.418 332.275 166.418 333.196 166.428C343.863 166.308 354.511 162.732 364.068 155.685C378.016 145.397 393.774 141.343 409.518 145.491C426.871 150.063 444.747 158.972 455.033 179.229C473.139 214.891 469.443 267.656 451.459 301.912C447.674 309.122 447.19 318.496 447.643 327.266C448.297 339.943 448.481 351.836 448.095 364.523C447.621 380.18 446.5 395.854 444.161 411.228C440.15 437.597 432.257 463.982 416.876 482.304C413.041 486.873 408.82 490.856 404.321 494.189C391.716 503.527 377.839 494.8 372.047 478.109C368.381 467.544 367.76 455.641 366.981 444.054C365.266 418.498 358.566 394.639 336.822 391.593C335.611 391.424 334.401 391.359 333.197 391.389C332.281 391.366 331.359 391.452 330.437 391.544C329.516 391.452 328.594 391.366 327.678 391.389C326.474 391.359 325.265 391.424 324.054 391.593C302.309 394.639 295.609 418.498 293.894 444.054C293.117 455.641 292.495 467.545 288.829 478.109C283.037 494.802 269.16 503.528 256.555 494.189C252.057 490.856 247.835 486.874 244 482.304C228.621 463.981 220.726 437.597 216.715 411.228C214.376 395.854 213.256 380.18 212.781 364.523C212.396 351.836 212.579 339.944 213.234 327.266C213.687 318.496 213.203 309.122 209.418 301.912C191.43 267.656 187.733 214.891 205.84 179.229Z" fill="white"/>
<path d="M228.14 441.007C245.593 450.344 264.805 441.618 272.825 424.927C277.9 414.361 278.76 402.459 279.838 390.872C282.214 365.316 291.491 341.456 321.596 338.411C323.272 338.242 324.947 338.177 326.614 338.206C327.884 338.184 329.159 338.271 330.435 338.362C331.71 338.27 332.986 338.184 334.256 338.206C335.922 338.177 337.598 338.242 339.273 338.411C369.379 341.455 378.656 365.316 381.032 390.872C382.108 402.459 382.969 414.362 388.045 424.927C396.064 441.619 415.277 450.344 432.73 441.007C434.729 439.938 436.672 438.777 438.587 437.575C433.921 454.449 427.066 470.161 416.873 482.304C413.037 486.873 408.816 490.856 404.318 494.189C391.713 503.527 377.836 494.8 372.044 478.108C368.378 467.544 367.757 455.64 366.979 444.053C365.264 418.498 358.563 394.638 336.819 391.593C335.61 391.424 334.399 391.359 333.195 391.389C332.279 391.366 331.357 391.452 330.436 391.544C329.515 391.452 328.593 391.366 327.676 391.389C326.472 391.359 325.262 391.424 324.051 391.593C302.307 394.638 295.607 418.498 293.892 444.053C293.114 455.64 292.493 467.544 288.827 478.108C283.035 494.8 269.158 503.527 256.553 494.189C252.054 490.856 247.832 486.873 243.998 482.304C233.804 470.16 226.949 454.449 222.284 437.575C224.198 438.777 226.141 439.938 228.14 441.007Z" fill="#D9E7FC"/>
<path d="M330.436 198.122C299.997 198.122 274.155 175.467 264.823 143.971C275.961 144.246 286.848 148.339 296.805 155.683C306.362 162.732 317.01 166.307 327.677 166.427C328.598 166.417 332.275 166.417 333.196 166.427C343.863 166.307 354.511 162.731 364.068 155.683C374.025 148.339 384.912 144.245 396.051 143.971C386.716 175.467 360.875 198.122 330.436 198.122Z" fill="#D9E7FC"/>
<path opacity="0.52" d="M489.499 514.717C489.499 517.234 505.713 519.276 525.715 519.276C545.715 519.276 561.929 517.234 561.929 514.717C561.929 512.199 545.715 510.158 525.715 510.158C505.713 510.159 489.499 512.199 489.499 514.717Z" fill="#BBC5D4"/>
<path d="M545.612 491.866L557.928 492.037C556.904 496.626 555.801 501.322 554.603 506.133L546.119 506.015L545.612 491.866Z" fill="#FCC6BA"/>
<path d="M515.988 489.807L529.021 489.989L524.3 503.489L514.588 500.1C514.588 500.1 515.107 496.211 515.988 489.807Z" fill="#FCC6BA"/>
<path d="M542.962 504.528L555.2 504.492C555.2 504.492 557.927 506.825 559.117 517.156L533.535 517.233C533.535 517.233 532.82 511.129 539.535 508.76L542.962 504.528Z" fill="#223242"/>
<path d="M525.454 501.354C525.454 501.354 526.213 509.392 525.14 512.662L496.946 512.941C496.946 512.941 495.399 505.805 513.466 501.389L525.454 501.354Z" fill="#223242"/>
<path d="M552.042 504.885L553.667 501.241C553.667 501.241 548.623 498.965 542.603 500.689L542.616 505.105L552.042 504.885Z" fill="#223242"/>
<path d="M518.607 501.507L519.67 497.904C519.67 497.904 516.91 495.508 513.439 497.088L513.271 501.5L518.607 501.507Z" fill="#223242"/>
<path d="M543.378 257.441L531.505 255.27L538.429 223.906L549.318 226.258L543.378 257.441Z" fill="#FCC6BA"/>
<path d="M538.963 208.28C538.963 208.28 521.456 204.168 522.671 213.893C523.888 223.618 527.146 226.685 527.146 226.685L538.963 208.28Z" fill="#223242"/>
<path d="M524.649 220.699C522.732 229.383 528.148 237.928 536.747 239.784C545.344 241.641 553.869 236.106 555.786 227.421C557.703 218.737 552.287 210.193 543.689 208.336C535.091 206.48 526.566 212.015 524.649 220.699Z" fill="#FCC6BA"/>
<path d="M525.329 218.428C525.329 218.428 519.613 236.314 527.289 245.892C527.684 246.385 528.278 246.672 528.91 246.685C532.744 246.757 549.691 244.92 554.528 230.094L525.329 218.428Z" fill="#FCC6BA"/>
<path d="M537.843 232.473C537.843 232.473 524.564 226.818 523.133 230.177C523.133 230.177 521.998 246.947 528.7 246.957C540.26 246.975 537.843 232.473 537.843 232.473Z" fill="white"/>
<path d="M542.178 227.118C542.178 227.118 538.959 232.257 534.746 234.244" stroke="white" stroke-width="0.75" stroke-miterlimit="10" stroke-linecap="round"/>
<path d="M544.359 234.83C544.359 234.83 541.437 241.447 533.559 244.309" stroke="white" stroke-width="0.75" stroke-miterlimit="10" stroke-linecap="round"/>
<path d="M528.1 213.709C528.1 213.709 533.588 226.943 542.33 228.01C542.33 228.01 546.52 224.676 547.796 227.732C549.073 230.787 546.996 234.647 544.359 234.831C544.359 234.831 546.608 240.483 545.956 243.91C545.956 243.91 552.115 241.601 554.529 238.997C557.684 235.593 559.588 227.145 558.198 219.252C556.599 210.165 535.5 199.003 528.1 213.709Z" fill="#223242"/>
<path d="M551.285 214.591C551.63 210.916 555.506 207.082 560.014 207.241C563.409 207.36 566.067 209.706 567.278 212.159C569.429 216.516 567.57 222.33 564.061 223.937C559.19 226.167 550.735 220.468 551.285 214.591Z" fill="#223242"/>
<path d="M528.283 213.271C528.283 213.271 526.241 218.318 532.107 223.583" stroke="#223242" stroke-width="0.75" stroke-miterlimit="10" stroke-linecap="round"/>
<path d="M552.465 213.823C552.465 213.823 551.012 206.43 559.435 205.764" stroke="#223242" stroke-width="0.75" stroke-miterlimit="10" stroke-linecap="round"/>
<path d="M533.451 246.276C533.451 246.276 539.456 244.883 541.588 243.571C541.588 243.571 535.488 247.63 533.066 248.091L533.451 246.276Z" fill="#223242"/>
<path d="M546.702 235.738C546.324 236.641 545.276 237.07 544.363 236.694C543.45 236.32 543.017 235.283 543.396 234.381C543.775 233.478 544.823 233.051 545.735 233.425C546.648 233.8 547.08 234.836 546.702 235.738Z" fill="white"/>
<path d="M503.727 327.365C522.941 327.365 554.266 328.806 554.266 328.806C555.059 332.488 553.803 331.494 555.781 335.549C558.784 341.708 559.725 348.651 558.35 355.351C557.856 357.758 557.329 360.309 556.826 362.719C556.826 362.719 556.553 376.868 556.826 385.829C557.099 394.791 560.081 410.88 562.067 419.284C564.053 427.688 565.179 435.153 564.716 445.126C564.253 455.098 558.071 494.062 558.071 494.062C558.071 494.062 553.708 499.458 544.625 494.062C544.625 494.062 543.838 438.223 542.032 432.021C540.226 425.819 540.079 429.58 535.095 419.674C532.844 415.201 528.496 398.551 524.406 381.639C524.309 385.799 524.327 389.547 524.532 392.369C525.537 406.148 530.92 424.631 531.457 430.681C531.994 436.73 529.95 490.516 529.95 490.516C529.95 490.516 524.872 496.757 514.852 491.688C514.852 491.688 511.627 441.144 511.836 435.483C512.046 429.822 500.897 412.427 498.151 397.641C495.402 382.854 497.817 341.048 503.727 327.365Z" fill="#223242"/>
<path d="M547.146 328.502C547.146 328.502 551.489 338.564 549.318 351.188C547.146 363.813 551.235 405.111 556.242 417.692C561.25 430.273 561.11 449.487 554.267 495.263" stroke="#6588FC" stroke-width="0.75" stroke-miterlimit="10" stroke-linecap="round" stroke-linejoin="round"/>
<path d="M524.404 381.64L517.205 365.727" stroke="#223242" stroke-width="0.75" stroke-miterlimit="10" stroke-linecap="round" stroke-linejoin="round"/>
<path d="M525.971 493.067C525.971 493.067 528.027 437.656 525.971 431.092C523.915 424.529 517.206 398.547 521.683 375.625" stroke="#6588FC" stroke-width="0.75" stroke-miterlimit="10" stroke-linecap="round" stroke-linejoin="round"/>
<path d="M487.895 315.131C481.558 304.492 480.918 302.992 472.547 283.9L479.242 280.747L490.6 294.758C491.967 292.531 500.713 279.438 502.98 270.21C506.351 256.486 519.961 253.878 519.961 253.878C518.931 259.457 515.58 265.543 513.403 268.029L513.405 268.028L515.235 273.44C511.888 276.702 500.042 330.703 487.895 315.131Z" fill="white"/>
<path d="M479.241 280.747L490.599 294.758C491.475 293.332 494.635 288.055 498.442 281.413C504.696 283.433 506.031 287.765 508.192 292.524C502.847 307.687 495.43 324.788 487.896 315.131C481.559 304.492 481.282 304.053 471.867 281.697L479.241 280.747Z" fill="#FCC6BA"/>
<path d="M506.354 274.729C506.354 274.729 515.093 256.207 514.649 255.938C514.649 255.938 517.058 253.679 532.611 251.537L533.594 255.44L543.079 253.413C543.079 253.413 556.422 255.693 563.462 262.437C563.462 262.437 564.323 277.84 562.711 285.458L561.817 289.679C560.633 295.271 548.938 311.576 548.938 311.576L554.267 328.806C554.267 328.806 520.699 334.702 503.727 327.365L511.623 305.781L506.354 274.729Z" fill="white"/>
<path d="M548.938 311.576C548.938 311.576 561.111 339.963 561.25 354.448C561.388 368.932 563.692 411.914 563.692 411.914C563.692 411.914 527.939 423.709 497.019 408.005C497.019 408.005 490.453 338.876 512.581 304.902L548.938 311.576Z" fill="white"/>
<path d="M524.895 253.107C525.876 257.222 527.543 259.042 527.543 259.042L531.484 256.125L528.903 263.029C528.903 263.029 520.307 285.093 518.931 291.291C517.554 297.489 499.433 374.592 517.205 415.012" stroke="#223242" stroke-width="0.75" stroke-miterlimit="10" stroke-linecap="round" stroke-linejoin="round"/>
<path d="M544.92 249.715L532.989 256.429L540.271 262.455L548.938 256.282C548.938 256.282 549.124 252.297 544.92 249.715Z" fill="white"/>
<path d="M524.927 252.795C524.927 252.795 528.489 249.307 532.88 249.037L533.593 255.44" fill="white"/>
<path d="M548.938 256.282L540.271 262.454L534.641 256.803L525.654 271.556" stroke="#223242" stroke-width="0.75" stroke-miterlimit="10" stroke-linecap="round" stroke-linejoin="round"/>
<path d="M542.954 497.722L557.947 499.075C559.3 499.197 560.496 498.212 560.62 496.873L561.046 492.267C561.169 490.929 560.173 489.746 558.82 489.624L543.826 488.271C542.473 488.148 541.277 489.134 541.154 490.472L540.729 495.078C540.605 496.416 541.602 497.6 542.954 497.722Z" fill="#223242"/>
<path d="M514.294 495.262H529.349C530.707 495.262 531.809 494.173 531.809 492.83V488.204C531.809 486.861 530.708 485.772 529.349 485.772H514.294C512.936 485.772 511.834 486.86 511.834 488.204V492.83C511.834 494.173 512.935 495.262 514.294 495.262Z" fill="#223242"/>
<path d="M432.513 220.792L435.527 218.429L463.413 251.704L458.912 255.232L432.513 220.792Z" fill="#BBC5D4"/>
<path d="M454.404 252.297L461.469 246.758C462.494 245.956 463.983 246.126 464.796 247.138L467.022 249.915L456.247 258.364L454.02 255.587C453.207 254.574 453.379 253.101 454.404 252.297Z" fill="#BBC5D4"/>
<path d="M455.869 257.618L458.912 255.232L463.411 251.704L465.845 249.796C466.713 249.116 467.974 249.26 468.661 250.118L548.196 349.332C550.349 352.019 550.547 355.618 548.983 358.448C548.461 359.393 547.743 360.251 546.837 360.962C546.159 361.493 545.426 361.904 544.66 362.197C541.33 363.473 537.413 362.532 535.077 359.619L455.542 260.405C454.855 259.545 455.001 258.299 455.869 257.618Z" fill="#BBC5D4"/>
<path d="M461.969 253.878L546.838 360.962" stroke="#223242" stroke-width="0.75" stroke-miterlimit="10" stroke-linecap="round" stroke-linejoin="round"/>
<path d="M538.11 361.929L549.814 352.752L550.388 353.469C551.83 355.267 551.525 357.881 549.706 359.307L544.587 363.32C542.769 364.745 540.126 364.444 538.684 362.645L538.11 361.929Z" fill="#BBC5D4"/>
<path d="M394.178 215.466C405.801 229.964 425.127 233.952 437.342 224.374C449.559 214.797 450.039 195.278 438.416 180.78C426.794 166.282 407.468 162.294 395.253 171.871C383.037 181.449 382.556 200.968 394.178 215.466Z" fill="#909AB5"/>
<g opacity="0.5">
<path d="M397.991 212.476C407.61 224.475 423.604 227.776 433.714 219.85C443.824 211.923 444.223 195.769 434.604 183.77C424.984 171.772 408.991 168.47 398.88 176.397C388.77 184.324 388.372 200.476 397.991 212.476Z" fill="white"/>
</g>
<g opacity="0.5">
<path d="M397.991 212.476C388.371 200.478 388.769 184.324 398.881 176.397C408.991 168.47 424.986 171.772 434.604 183.77C435.298 184.636 435.924 185.526 436.512 186.43C430.863 184.861 425.505 184.705 421.239 187.475C410.551 194.414 414.819 214.358 412.63 222.816C407.231 221.037 402.044 217.533 397.991 212.476Z" fill="white"/>
</g>
<path d="M556.341 320.259C556.147 320.244 559.06 316.959 561.835 313.786C560.398 306.477 550.298 263.426 563.462 262.437C563.462 262.437 575.074 275.378 576.389 308.259C576.424 308.532 576.374 317.29 576.372 317.291C576.091 320.361 557.459 339.471 546.869 345.604C544.843 343.653 542.881 341.638 540.9 339.641L556.341 320.259Z" fill="white"/>
<path d="M540.901 339.643L556.341 320.26C556.147 320.245 559.06 316.96 561.835 313.787C561.588 312.533 561.085 310.245 560.489 307.337C568.224 302.072 572.465 301.474 575.929 301.65C576.137 303.756 576.297 305.95 576.39 308.261C576.425 308.534 576.375 317.292 576.373 317.293C576.092 320.363 557.46 339.473 546.871 345.606C544.843 343.654 542.881 341.639 540.901 339.643Z" fill="#FCC6BA"/>
<path d="M543.045 337.9C543.045 337.9 536.978 332.028 535.891 328.638C534.804 325.248 532.448 329.358 533.842 332.533C535.236 335.707 536.367 338.117 536.367 338.117L530.387 339.516C530.387 339.516 526.776 346.963 539.106 349.947L548.384 345.819C548.384 345.819 547.075 339.628 543.045 337.9Z" fill="#6588FC"/>
<path d="M531.55 339.238C531.55 339.238 523.46 340.013 522.576 340.033C518.522 340.126 518.09 342.408 520.096 342.339C523.192 342.231 533.01 342.526 533.01 342.526L531.55 339.238Z" fill="#6588FC"/>
<path d="M532.213 345.706C532.213 345.706 517.061 347.538 517.206 346.633C517.353 345.728 519.953 344.023 522.43 343.783C526.255 343.414 534.019 342.116 534.019 342.116L532.213 345.706Z" fill="#6588FC"/>
<path d="M535.469 348.706C535.469 348.706 521.648 351.275 521.683 350.377C521.717 349.478 523.934 347.669 526.201 347.308C529.699 346.751 536.741 345.082 536.741 345.082L535.469 348.706Z" fill="#6588FC"/>
<path d="M540.781 348.967C540.781 348.967 530.059 355.139 529.82 354.383C529.58 353.627 530.883 351.474 532.659 350.513C535.4 349.028 540.755 345.584 540.755 345.584L540.781 348.967Z" fill="#6588FC"/>
<path d="M546.062 346.853C546.062 346.853 551.539 344.924 553.748 343.841C556.21 342.635 549.298 332.814 545.62 331.584C541.941 330.352 544.456 334.183 540.026 335.721L546.062 346.853Z" fill="#6588FC"/>
<path d="M535.122 335.403C535.122 335.403 536.695 339.093 531.137 339.486L539.229 339.756L535.122 335.403Z" fill="#6588FC"/>
<path d="M558.218 296.861L554.266 282.731" stroke="#223242" stroke-width="0.75" stroke-miterlimit="10" stroke-linecap="round" stroke-linejoin="round"/>
<path d="M468.643 276.059C468.643 276.059 469.958 277.441 473.868 277.728C477.779 278.016 481.863 279.355 481.172 280.722C480.482 282.087 473.68 281.62 473.68 281.62C473.68 281.62 466.438 279.892 468.643 276.059Z" fill="#6588FC"/>
<path d="M471.275 280.159C471.275 280.159 472.591 281.542 476.501 281.829C480.411 282.117 482.157 283.577 481.467 284.942C480.777 286.308 476.313 285.72 476.313 285.72C476.313 285.72 469.07 283.992 471.275 280.159Z" fill="#6588FC"/>
<path d="M474.322 284.161C474.322 284.161 475.252 285.138 478.015 285.342C480.78 285.545 482.014 286.578 481.527 287.543C481.039 288.508 477.884 288.093 477.884 288.093C477.884 288.093 472.763 286.87 474.322 284.161Z" fill="#6588FC"/>
<path d="M467.032 274.609C467.032 274.609 468.762 275.429 472.515 274.304C476.268 273.179 478.428 273.919 478.283 275.438C478.137 276.958 473.758 278.001 473.758 278.001C473.758 278.001 466.371 278.972 467.032 274.609Z" fill="#6588FC"/>
<path d="M511.471 299.345C511.471 299.345 506.567 294.309 506.561 288.909C506.554 283.9 511.992 278.045 511.992 278.045L512.581 269.594" fill="white"/>
<path d="M511.471 299.345C511.471 299.345 506.567 294.309 506.561 288.909C506.554 283.9 511.992 278.045 511.992 278.045L512.581 269.594" stroke="#223242" stroke-width="0.75" stroke-miterlimit="10" stroke-linecap="round" stroke-linejoin="round"/>
<path d="M544.661 299.345C544.661 299.345 535.895 305.071 524.927 301.622Z" fill="white"/>
<path d="M544.661 299.345C544.661 299.345 535.895 305.071 524.927 301.622" stroke="#223242" stroke-width="0.75" stroke-miterlimit="10" stroke-linecap="round" stroke-linejoin="round"/>
<path d="M534.853 281.321L545.418 284.018L544.447 287.739L533.882 285.042L534.853 281.321Z" fill="#6588FC"/>
<path d="M548.134 506.966C548.134 506.966 544.7 505.094 541.148 506.966" stroke="white" stroke-width="0.75" stroke-miterlimit="10" stroke-linecap="round"/>
<path d="M546.316 508.968C546.316 508.968 542.881 507.097 539.329 508.968" stroke="white" stroke-width="0.75" stroke-miterlimit="10" stroke-linecap="round"/>
<path d="M512.089 503.905C512.089 503.905 510.035 502.786 507.462 503.143" stroke="white" stroke-width="0.75" stroke-miterlimit="10" stroke-linecap="round"/>
<path d="M515.922 502.705C515.922 502.705 513.868 501.587 511.295 501.944" stroke="white" stroke-width="0.75" stroke-miterlimit="10" stroke-linecap="round"/>
<path opacity="0.52" d="M202.687 524.715C171.754 524.715 146.678 523.096 146.678 521.099C146.678 519.102 171.754 517.483 202.687 517.483C233.62 517.483 258.696 519.102 258.696 521.099C258.696 523.096 233.62 524.715 202.687 524.715Z" fill="#BBC5D4"/>
<path d="M157.69 521.099H247.686C250.932 521.099 253.562 518.497 253.562 515.286V389.12C253.562 385.909 250.931 383.307 247.686 383.307H157.69C154.443 383.307 151.813 385.909 151.813 389.12V515.286C151.812 518.497 154.443 521.099 157.69 521.099Z" fill="#6588FC"/>
<path d="M162.276 383.308H243.098V510.605H162.276V383.308Z" fill="white"/>
<path d="M184.711 376.928H189.646C190.546 376.928 191.345 376.291 191.466 375.408C192.216 369.941 196.954 365.727 202.688 365.727C208.422 365.727 213.161 369.941 213.911 375.408C214.031 376.291 214.83 376.928 215.73 376.928H220.666C221.659 376.928 222.464 377.724 222.464 378.706V389.018C222.464 390 221.659 390.796 220.666 390.796H184.711C183.718 390.796 182.913 390 182.913 389.018V378.706C182.913 377.724 183.718 376.928 184.711 376.928ZM202.687 381.55C205.268 381.55 207.361 379.481 207.361 376.928C207.361 374.375 205.268 372.306 202.687 372.306C200.106 372.306 198.013 374.375 198.013 376.928C198.013 379.481 200.106 381.55 202.687 381.55Z" fill="#909AB5"/>
<path d="M210.811 405.928C211.553 404.566 212.843 403.967 214.095 403.66C215.232 403.381 216.368 403.653 217.375 404.345C218.064 404.819 218.832 405.059 219.603 405.067C219.669 405.066 219.934 405.066 220.001 405.067C220.77 405.059 221.538 404.819 222.229 404.345C223.235 403.653 224.372 403.381 225.508 403.66C226.76 403.967 228.05 404.566 228.792 405.928C230.098 408.325 229.832 411.873 228.534 414.176C228.261 414.661 228.226 415.291 228.259 415.881C228.306 416.734 228.32 417.533 228.291 418.386C228.257 419.438 228.176 420.493 228.008 421.526C227.719 423.298 227.149 425.073 226.039 426.305C225.763 426.612 225.458 426.88 225.133 427.104C224.224 427.732 223.223 427.145 222.804 426.023C222.539 425.314 222.495 424.513 222.438 423.734C222.315 422.016 221.832 420.411 220.262 420.207C220.175 420.196 220.088 420.191 220.001 420.193C219.934 420.192 219.868 420.198 219.801 420.204C219.735 420.198 219.668 420.191 219.602 420.193C219.514 420.191 219.427 420.196 219.34 420.207C217.772 420.412 217.288 422.016 217.164 423.734C217.108 424.513 217.063 425.314 216.798 426.023C216.379 427.146 215.378 427.732 214.469 427.104C214.145 426.88 213.84 426.612 213.563 426.305C212.453 425.073 211.883 423.298 211.594 421.526C211.426 420.493 211.345 419.438 211.31 418.386C211.283 417.533 211.295 416.734 211.343 415.881C211.377 415.291 211.341 414.661 211.068 414.176C209.771 411.873 209.504 408.326 210.811 405.928Z" fill="#6588FC"/>
<path d="M224.843 423.929C225.197 423.212 225.47 422.289 225.649 421.2C225.788 420.352 225.872 419.41 225.907 418.321C225.931 417.555 225.922 416.815 225.876 415.994C225.835 415.265 225.846 414.176 226.416 413.165C227.439 411.349 227.549 408.546 226.661 406.914C226.444 406.516 226.064 406.071 224.893 405.784C224.801 405.761 224.711 405.75 224.619 405.75C224.25 405.75 223.891 405.944 223.654 406.107C222.57 406.851 221.317 407.252 220.028 407.266H219.623C218.285 407.252 217.032 406.852 215.948 406.107C215.711 405.945 215.351 405.75 214.983 405.75C214.892 405.75 214.803 405.76 214.71 405.784C213.539 406.071 213.161 406.516 212.944 406.914C212.054 408.545 212.163 411.348 213.186 413.164C213.755 414.174 213.767 415.263 213.727 415.993C213.681 416.814 213.672 417.554 213.696 418.321C213.732 419.41 213.817 420.351 213.954 421.199C214.132 422.289 214.406 423.212 214.76 423.929C214.766 423.857 214.784 423.589 214.784 423.589C215.086 419.411 217.246 418.26 219.005 418.031C219.193 418.006 219.377 417.995 219.558 417.995C219.649 417.995 219.725 417.997 219.795 417.999C219.856 417.997 219.983 417.995 219.986 417.995C220.23 417.995 220.411 418.006 220.592 418.03C222.356 418.26 224.516 419.411 224.818 423.588C224.818 423.588 224.837 423.857 224.843 423.929Z" fill="white"/>
<path d="M222.021 412.345L219.989 414.435L217.262 411.051" stroke="#6588FC" stroke-miterlimit="10" stroke-linecap="round" stroke-linejoin="round"/>
<path d="M200.638 435.953H174.954C174.308 435.953 173.785 435.436 173.785 434.797C173.785 434.159 174.308 433.642 174.954 433.642H200.638C201.284 433.642 201.807 434.159 201.807 434.797C201.807 435.436 201.284 435.953 200.638 435.953Z" fill="#6588FC"/>
<path d="M230.42 443.376H174.954C174.308 443.376 173.785 442.859 173.785 442.22C173.785 441.582 174.308 441.065 174.954 441.065H230.42C231.066 441.065 231.589 441.582 231.589 442.22C231.589 442.859 231.066 443.376 230.42 443.376Z" fill="#6588FC"/>
<path d="M230.42 451.265H174.954C174.308 451.265 173.785 450.748 173.785 450.11C173.785 449.471 174.308 448.954 174.954 448.954H230.42C231.066 448.954 231.589 449.471 231.589 450.11C231.589 450.748 231.066 451.265 230.42 451.265Z" fill="#6588FC"/>
<path d="M230.42 459.154H174.954C174.308 459.154 173.785 458.637 173.785 457.999C173.785 457.36 174.308 456.843 174.954 456.843H230.42C231.066 456.843 231.589 457.36 231.589 457.999C231.589 458.637 231.066 459.154 230.42 459.154Z" fill="#6588FC"/>
<path d="M230.42 467.044H174.954C174.308 467.044 173.785 466.526 173.785 465.888C173.785 465.25 174.308 464.732 174.954 464.732H230.42C231.066 464.732 231.589 465.25 231.589 465.888C231.589 466.526 231.066 467.044 230.42 467.044Z" fill="#6588FC"/>
<path d="M230.42 474.933H174.954C174.308 474.933 173.785 474.416 173.785 473.777C173.785 473.139 174.308 472.622 174.954 472.622H230.42C231.066 472.622 231.589 473.139 231.589 473.777C231.589 474.416 231.066 474.933 230.42 474.933Z" fill="#6588FC"/>
<path d="M230.42 483.734H174.954C174.308 483.734 173.785 483.217 173.785 482.578C173.785 481.94 174.308 481.423 174.954 481.423H230.42C231.066 481.423 231.589 481.94 231.589 482.578C231.589 483.217 231.066 483.734 230.42 483.734Z" fill="#6588FC"/>
<path d="M230.42 491.623H174.954C174.308 491.623 173.785 491.106 173.785 490.467C173.785 489.829 174.308 489.312 174.954 489.312H230.42C231.066 489.312 231.589 489.829 231.589 490.467C231.589 491.106 231.066 491.623 230.42 491.623Z" fill="#6588FC"/>
<path d="M162.277 510.604H243.098V513.561L202.687 512.083L162.277 513.561V510.604Z" fill="#223242"/>
<path d="M335.299 115.26L332.357 123.776C332.31 123.911 332.213 124.023 332.086 124.091L323.133 126.975C322.63 127.137 322.631 127.842 323.134 128.003L332.04 130.841C332.165 130.91 332.26 131.022 332.305 131.157L335.176 139.718C335.348 140.232 336.083 140.235 336.26 139.722L339.202 131.206C339.249 131.071 339.346 130.959 339.473 130.891L348.131 128.099C348.714 127.911 348.72 127.098 348.136 126.912C345.115 125.953 339.519 124.141 339.519 124.141C339.394 124.072 339.299 123.96 339.254 123.825L336.383 115.264C336.211 114.751 335.477 114.747 335.299 115.26Z" fill="white"/>
<path d="M314.516 99.5006L312.921 104.118C312.895 104.192 312.843 104.252 312.774 104.289L307.92 105.853C307.647 105.941 307.648 106.323 307.921 106.41L312.75 107.949C312.817 107.986 312.869 108.048 312.893 108.12L314.449 112.762C314.542 113.041 314.941 113.042 315.036 112.764L316.631 108.146C316.656 108.072 316.709 108.012 316.778 107.975L321.472 106.461C321.788 106.359 321.791 105.918 321.475 105.818C319.836 105.299 316.803 104.316 316.803 104.316C316.736 104.278 316.684 104.217 316.66 104.144L315.104 99.5028C315.01 99.225 314.612 99.2239 314.516 99.5006Z" fill="white"/>
<path d="M168.247 184.652L166.652 189.269C166.627 189.342 166.574 189.403 166.505 189.44L161.651 191.004C161.378 191.092 161.38 191.474 161.652 191.561L166.481 193.1C166.549 193.137 166.6 193.198 166.624 193.271L168.18 197.913C168.273 198.191 168.672 198.193 168.768 197.915L170.363 193.297C170.388 193.223 170.441 193.163 170.509 193.126L175.204 191.612C175.52 191.51 175.523 191.069 175.206 190.969C173.567 190.45 170.535 189.466 170.535 189.466C170.467 189.429 170.415 189.368 170.391 189.295L168.835 184.654C168.741 184.376 168.343 184.374 168.247 184.652Z" fill="white"/>
</g>
<defs>
<clipPath id="clip0_27_51">
<rect width="688" height="567" fill="white" transform="matrix(-1 0 0 1 688 0)"/>
</clipPath>
</defs>
</svg>
