<svg width="680" height="339" viewBox="0 0 680 339" fill="none" xmlns="http://www.w3.org/2000/svg">
<path d="M660.957 338.603C660.924 338.627 23.5349 338.526 23.5349 338.526C2.27026 294.099 -8.12482 243.927 7.54279 197.424C21.8259 154.073 60.1378 119.514 92.1136 104.738C116.399 93.4682 138.91 92 158.824 93.868C185.496 96.3704 207.464 104.854 222.839 103.832C238.387 102.795 249.201 87.5794 265.659 69.1432C299.211 31.4951 337.497 7.34 410.3 1.17267C526.122 -8.64721 584.66 45.2408 598.979 86.822C603.532 100.034 604.625 114.95 600.034 131.505C583.787 190.088 608.524 197.379 639.477 225.297C680.789 262.556 694.092 312.831 660.957 338.603Z" fill="#ABD1FF"/>
<path d="M232.339 230.787C232.804 230.787 233.279 230.532 233.759 230.024C235.369 228.32 236.503 223.266 237.131 215.005C237.597 208.873 237.595 203.162 237.595 203.105L237.261 203.106C237.262 203.333 237.244 225.846 233.517 229.792C232.96 230.383 232.45 230.573 231.962 230.374C229.174 229.239 227.392 216.205 227.526 197.94L227.192 197.937C227.054 216.627 228.878 229.481 231.837 230.686C232.003 230.754 232.17 230.787 232.339 230.787Z" fill="#2C3A64"/>
<path d="M238.486 230.449C238.951 230.449 239.427 230.194 239.907 229.686C241.517 227.981 242.651 222.928 243.278 214.666C243.744 208.535 243.743 202.824 243.743 202.767L243.409 202.768C243.409 202.994 243.391 225.508 239.665 229.454C239.107 230.044 238.598 230.235 238.109 230.036C235.322 228.901 233.539 215.867 233.673 197.601L233.339 197.599C233.201 216.288 235.025 229.143 237.984 230.348C238.15 230.415 238.317 230.449 238.486 230.449Z" fill="#2C3A64"/>
<path d="M226.679 230.449C227.144 230.449 227.62 230.194 228.1 229.686C229.71 227.981 230.844 222.928 231.472 214.666C231.937 208.535 231.936 202.824 231.936 202.767L231.602 202.768C231.602 202.994 231.585 225.508 227.858 229.454C227.3 230.044 226.791 230.235 226.303 230.036C223.515 228.901 221.732 215.867 221.867 197.601L221.533 197.599C221.395 216.288 223.218 229.143 226.178 230.348C226.343 230.415 226.51 230.449 226.679 230.449Z" fill="#2C3A64"/>
<path d="M244.608 230.449C245.073 230.449 245.549 230.194 246.028 229.686C247.638 227.981 248.772 222.928 249.4 214.666C249.866 208.535 249.865 202.824 249.865 202.767L249.53 202.768C249.531 202.994 249.513 225.508 245.786 229.454C245.229 230.044 244.719 230.235 244.231 230.036C241.443 228.901 239.661 215.867 239.795 197.601L239.461 197.599C239.323 216.288 241.147 229.143 244.106 230.348C244.272 230.415 244.439 230.449 244.608 230.449Z" fill="#2C3A64"/>
<path d="M248.877 185.091H275.313V189.071H248.877V185.091Z" fill="#BDD1F9"/>
<path d="M276.334 260.09H328.966C330.844 260.09 332.381 258.542 332.381 256.65V183.829C332.381 181.936 330.844 180.388 328.966 180.388H276.334C274.455 180.388 272.919 181.936 272.919 183.829V256.65C272.919 258.542 274.455 260.09 276.334 260.09Z" fill="#D2E3FC"/>
<path d="M400.857 170.362C398.647 169.279 396.418 167.616 395.487 165.298C394.606 163.105 394.061 162.463 396.234 162.045C397.169 161.865 400.998 158.274 401.918 157.358C405.248 154.044 407.338 152.414 407.338 152.414L422.082 152.723C420.267 153.185 416.052 162.498 415.2 167.78C414.455 172.397 405.082 172.43 400.857 170.362Z" fill="#FFB27D"/>
<path d="M401.918 157.358C404.136 153.653 405.558 151.474 405.558 151.474L418.997 155.879C415.285 158.586 410.307 160.377 401.918 157.358Z" fill="#E8945B"/>
<path d="M401.17 154.081C401.17 154.081 417.31 162.4 422.297 152.194C427.284 141.988 432.726 136.188 422.632 130.445C412.538 124.703 408.618 127.597 406.13 130.595C403.643 133.594 397.1 151.655 401.17 154.081Z" fill="#FFB27D"/>
<path d="M420.05 148.43C420.05 148.43 423.041 146.853 422.196 144.984C421.352 143.116 419.899 145.084 418.892 144.685C417.885 144.286 416.995 140.653 417.731 137.846C418.467 135.038 407.238 136.081 403.675 133.492C400.113 130.904 398.32 124.429 405.449 123.537C409.639 123.012 430.665 120.133 434.795 131.222C440.061 145.357 424.517 153.413 422.372 154.703C420.227 155.993 419.493 155.174 419.493 155.174C419.493 155.174 417.91 150.487 420.05 148.43Z" fill="#2C3A64"/>
<path d="M350.228 207.347C350.228 207.347 276.981 202.6 268.017 209.777C259.054 216.955 220.865 260.82 220.865 260.82L233.946 266.908C233.946 266.908 274.721 230.443 277.567 230.156C280.412 229.87 356.59 234.839 365.218 232.546C373.847 230.252 379.985 226.138 379.985 226.138L350.228 207.347Z" fill="#2C3A64"/>
<path d="M340.806 214.406C341.233 215.155 341.702 215.911 342.211 216.668C344.377 219.891 347.243 223.136 350.333 225.851C352.675 227.91 355.148 229.664 357.544 230.88C360.313 232.279 362.977 232.958 365.219 232.546C396.388 226.812 423.895 184.71 423.895 184.71C423.895 184.71 420.201 168.799 413.656 166.792C407.111 164.785 397.609 163.546 397.609 163.546C397.609 163.546 388.377 160.671 379.715 170.39C373.349 177.537 346.822 197.408 339.912 203.993L339.909 203.996C338.884 204.971 338.292 205.656 338.261 205.963C338.023 208.285 339.021 211.276 340.806 214.406Z" fill="#FF3E40"/>
<path d="M233.472 265.152C233.472 265.152 228.029 273.993 226.203 273.173C225.96 273.064 217.285 268.366 217.285 268.366L206.247 262.304C206.247 262.304 207.754 259.655 211.294 260.84C214.833 262.025 221.474 262.667 225.735 259.419C230.217 256.002 233.472 265.152 233.472 265.152Z" fill="#163560"/>
<path d="M398.747 161.091C399.103 161.074 414.135 160.284 415.936 161.718C417.736 163.153 418.004 170.39 418.004 170.39L391.487 163.267C391.487 163.267 394.204 161.313 398.747 161.091Z" fill="#FF3E40"/>
<path d="M342.211 216.668C344.377 219.891 347.243 223.136 350.333 225.851C372.066 227.038 389.47 214.98 390.076 214.644L342.211 216.668Z" fill="#D43F41"/>
<path d="M340.806 214.406L375.412 209.776L388.99 189.911C388.691 190.155 367.812 207.098 339.912 203.993L339.909 203.996C338.885 204.971 338.293 205.656 338.261 205.963C338.023 208.285 339.021 211.276 340.806 214.406Z" fill="#A53334"/>
<path d="M301.932 326.604H332.096L358.17 260.09H328.005L301.932 326.604Z" fill="#D2E0FF"/>
<path d="M385.021 239.403C385.021 239.403 380.189 274.998 343.194 277.292C306.2 279.586 293.51 249.791 293.51 241.62L385.021 239.403Z" fill="#AEC3FF"/>
<path d="M397.125 339.236C397.125 339.236 394.738 334.344 389.331 334.058C383.925 333.771 337.148 334.058 337.148 334.058V338.931L397.125 339.236Z" fill="#AEC3FF"/>
<path d="M267.435 338.617C267.435 338.617 272.266 303.021 309.261 300.728C346.255 298.434 360.553 330.446 360.553 338.617H267.435Z" fill="#AEC3FF"/>
<path d="M215.692 181.883H253.54L264.923 191.918H227.359L215.692 181.883Z" fill="#D2E3FC"/>
<path d="M227.359 191.918H264.923V197.939H227.359V191.918Z" fill="#BDD1F9"/>
<path d="M215.692 181.883V197.938H227.359V191.918L215.692 181.883Z" fill="#A8C3EF"/>
<path d="M280.67 180.389H284.654V104.564C284.654 98.9644 289.177 94.4092 294.735 94.4092H341.58C344.233 94.4092 346.831 95.4939 348.707 97.3847L362.199 110.976L365.017 108.137L351.525 94.5455C348.868 91.8691 345.337 90.3962 341.58 90.3962H294.735C286.979 90.3962 280.67 96.752 280.67 104.564V180.389Z" fill="#D2E3FC"/>
<path d="M352.274 120.555C354.597 123.287 361.363 121.288 367.389 116.089C373.414 110.889 376.417 104.46 374.094 101.728C368.933 95.6568 359.864 94.9505 353.838 100.15C347.813 105.349 347.113 114.485 352.274 120.555Z" fill="#D2E3FC"/>
<path d="M352.274 120.555C354.597 123.287 361.363 121.288 367.389 116.089C373.414 110.889 376.417 104.46 374.094 101.728C371.77 98.9942 365.003 100.995 358.977 106.194C352.951 111.394 349.95 117.822 352.274 120.555Z" fill="#BDD1F9"/>
<path d="M334.02 213.266C332.332 213.713 330.032 214.759 326.96 216.952C326.96 216.952 324.517 218.544 327.519 219.264C329.526 219.745 330.373 219.063 333.212 219.696C336.052 220.328 338.947 219.585 340.164 217.804L342.211 216.495L340.997 212.501C340.997 212.501 333.838 213.027 334.02 213.266Z" fill="#FFB27D"/>
<path d="M412.308 172.701C412.308 172.701 439.025 189.4 385.662 217.003C377.128 221.418 339.985 218.101 339.985 218.101C339.985 218.101 339.347 213.616 341.861 211.986C341.861 211.986 372.911 204.111 375.798 204.918C378.36 205.633 394.547 181.041 400.404 176.466C406.261 171.892 412.308 172.701 412.308 172.701Z" fill="#D43F41"/>
<path d="M390.078 226.804C391.494 226.804 392.799 225.871 393.217 224.432C393.725 222.685 392.73 220.853 390.996 220.342C389.872 220.01 363.054 212.291 327.229 218.207C325.445 218.501 324.236 220.197 324.528 221.994C324.821 223.791 326.504 225.01 328.287 224.714C362.658 219.039 388.896 226.594 389.157 226.671C389.464 226.761 389.773 226.804 390.078 226.804Z" fill="white"/>
<path d="M227.571 291.897C229.621 291.897 231.681 291.193 233.366 289.751L287.545 243.426L381.417 248.421C384.326 248.575 387.132 247.295 388.935 244.987L452.082 164.131C455.143 160.211 454.471 154.533 450.58 151.449C446.689 148.365 441.053 149.042 437.992 152.962L377.72 230.138L284.933 225.2C282.647 225.08 280.405 225.842 278.66 227.333L221.765 275.981C217.991 279.208 217.528 284.907 220.731 288.71C222.505 290.814 225.029 291.897 227.571 291.897Z" fill="white"/>
<path d="M244.055 191.385C244.283 192.106 245.157 192.69 246.009 192.69C246.861 192.69 247.367 192.106 247.14 191.385C246.913 190.664 246.038 190.079 245.186 190.079C244.335 190.079 243.828 190.664 244.055 191.385Z" fill="#BDD1F9"/>
<path d="M237.911 191.385C238.139 192.106 239.013 192.69 239.865 192.69C240.717 192.69 241.223 192.106 240.996 191.385C240.769 190.664 239.894 190.079 239.042 190.079C238.191 190.079 237.684 190.664 237.911 191.385Z" fill="#BDD1F9"/>
<path d="M232.096 191.385C232.323 192.106 233.198 192.69 234.05 192.69C234.902 192.69 235.408 192.106 235.181 191.385C234.954 190.664 234.079 190.079 233.227 190.079C232.375 190.079 231.869 190.664 232.096 191.385Z" fill="#BDD1F9"/>
<path d="M250.149 191.385C250.376 192.106 251.251 192.69 252.103 192.69C252.954 192.69 253.461 192.106 253.234 191.385C253.007 190.664 252.132 190.079 251.28 190.079C250.428 190.079 249.922 190.664 250.149 191.385Z" fill="#BDD1F9"/>
<path d="M253.245 183.168C253.324 183.168 253.395 183.111 253.409 183.03L254.242 178.353C254.258 178.261 254.198 178.174 254.107 178.157C254.018 178.141 253.929 178.202 253.913 178.293L253.08 182.97C253.064 183.062 253.124 183.149 253.215 183.166C253.225 183.168 253.235 183.168 253.245 183.168Z" fill="#2C3A64"/>
<path d="M249.666 203.106C250.185 203.2 250.686 202.849 250.779 202.326L254.157 183.348C254.25 182.825 253.902 182.321 253.383 182.227C252.864 182.133 252.363 182.484 252.27 183.007L248.892 201.985C248.799 202.508 249.148 203.012 249.666 203.106Z" fill="#2C3A64"/>
<path d="M247.152 183.168C247.231 183.168 247.301 183.111 247.316 183.03L248.148 178.353C248.214 177.983 248.458 177.674 248.802 177.528L250.375 176.856C250.459 176.82 250.499 176.721 250.463 176.635C250.427 176.55 250.329 176.51 250.244 176.546L248.672 177.218C248.224 177.409 247.905 177.811 247.819 178.293L246.987 182.97C246.971 183.062 247.031 183.149 247.122 183.166C247.132 183.168 247.142 183.168 247.152 183.168Z" fill="#2C3A64"/>
<path d="M243.573 203.106C244.092 203.2 244.592 202.849 244.685 202.326L248.063 183.348C248.157 182.825 247.808 182.321 247.289 182.227C246.771 182.133 246.27 182.484 246.177 183.007L242.799 201.985C242.706 202.508 243.054 203.012 243.573 203.106Z" fill="#2C3A64"/>
<path d="M241.007 183.168C241.087 183.168 241.157 183.111 241.171 183.03L241.442 181.511C241.458 181.419 241.398 181.332 241.307 181.316C241.218 181.299 241.129 181.36 241.113 181.451L240.842 182.97C240.826 183.062 240.887 183.149 240.978 183.166C240.987 183.168 240.998 183.168 241.007 183.168Z" fill="#2C3A64"/>
<path d="M237.429 203.106C237.947 203.2 238.448 202.849 238.541 202.326L241.919 183.348C242.012 182.825 241.664 182.321 241.145 182.227C240.626 182.133 240.125 182.484 240.032 183.007L236.654 201.985C236.561 202.508 236.91 203.012 237.429 203.106Z" fill="#2C3A64"/>
<path d="M235.359 183.168C235.438 183.168 235.509 183.111 235.523 183.03L235.794 181.511C235.81 181.419 235.749 181.332 235.659 181.316C235.57 181.299 235.481 181.36 235.465 181.451L235.195 182.97C235.178 183.062 235.239 183.149 235.33 183.166C235.339 183.168 235.349 183.168 235.359 183.168Z" fill="#2C3A64"/>
<path d="M231.78 203.106C232.299 203.2 232.8 202.849 232.893 202.326L236.271 183.348C236.364 182.825 236.015 182.321 235.497 182.227C234.978 182.133 234.477 182.484 234.384 183.007L231.006 201.985C230.913 202.508 231.262 203.012 231.78 203.106Z" fill="#2C3A64"/>
<path d="M296.026 170.184H296.694V149.783C296.694 148.32 297.876 147.129 299.328 147.129H302.058C303.59 147.129 304.836 148.384 304.836 149.928V152.636H305.505V149.928C305.505 148.013 303.959 146.456 302.058 146.456H299.328C297.507 146.456 296.026 147.948 296.026 149.783V170.184Z" fill="#D2E3FC"/>
<path d="M330.298 169.916C326.836 177.713 319.075 183.15 310.047 183.15C301.021 183.15 293.259 177.714 289.797 169.916H330.298Z" fill="#D2E3FC"/>
<path d="M117.175 249.951V252.171C117.175 252.948 116.926 253.582 116.621 253.582H36.2149C35.9101 253.582 35.6603 252.948 35.6603 252.171V249.951C35.6603 249.175 35.9101 248.539 36.2149 248.539H116.621C116.926 248.539 117.175 249.175 117.175 249.951Z" fill="#8FADEF"/>
<path d="M117.175 249.951V252.171C117.175 252.948 116.946 253.582 116.666 253.582H52.8329C52.5533 253.582 52.3243 252.948 52.3243 252.171V249.951C52.3243 249.175 52.5536 248.539 52.8329 248.539H116.666C116.946 248.539 117.175 249.175 117.175 249.951Z" fill="#BBD0FF"/>
<path d="M96.8249 337.405H39.7415L39.7415 253.583H96.8249V337.405Z" fill="#AEC3FF"/>
<path d="M112.822 337.405H55.7385L55.7385 253.583H112.822V337.405Z" fill="#D2E0FF"/>
<path d="M109.755 255.951H58.8066V332.777H109.755V255.951ZM59.357 256.505H109.205V332.223H59.357V256.505Z" fill="#AEC3FF"/>
<path d="M59.0816 281.366H109.48V281.92H59.0816V281.366Z" fill="#AEC3FF"/>
<path d="M59.0816 307.276H109.48V307.83H59.0816V307.276Z" fill="#AEC3FF"/>
<path d="M89.445 260.906H80.0932C79.6391 260.906 79.2679 260.531 79.2679 260.074C79.2679 259.617 79.6391 259.243 80.0932 259.243H89.445C89.8988 259.243 90.2703 259.617 90.2703 260.074C90.2703 260.531 89.8988 260.906 89.445 260.906Z" fill="#AEC3FF"/>
<path d="M89.445 286.243H80.0932C79.6391 286.243 79.2679 285.869 79.2679 285.411C79.2679 284.954 79.6391 284.58 80.0932 284.58H89.445C89.8988 284.58 90.2703 284.954 90.2703 285.411C90.2703 285.869 89.8988 286.243 89.445 286.243Z" fill="#AEC3FF"/>
<path d="M89.445 312.655H80.0932C79.6391 312.655 79.2679 312.281 79.2679 311.824C79.2679 311.367 79.6391 310.993 80.0932 310.993H89.445C89.8988 310.993 90.2703 311.367 90.2703 311.824C90.2703 312.281 89.8988 312.655 89.445 312.655Z" fill="#AEC3FF"/>
<path d="M71.7577 214.867C71.7577 214.867 77.1046 208.582 72.0873 204.59C72.0873 204.59 68.4221 202.354 65.4336 202.536C65.4336 202.536 69.6683 209.689 68.2984 210.401C66.9282 211.112 64.1504 202.087 64.1504 202.087C64.1504 202.087 55.81 201.272 53.1269 202.572C53.1269 202.572 60.2567 208.45 58.7553 208.8C57.2536 209.15 49.5521 203.38 49.5521 203.38C49.5521 203.38 41.7897 204.711 42.2036 209.482C42.6175 214.252 45.2922 215.725 46.4678 215.599C47.6434 215.472 54.5201 212.827 54.6701 213.798C54.8197 214.768 50.6805 217.939 47.7815 218.088C47.7815 218.088 53.2543 224.168 56.8916 222.413C60.5287 220.659 60.8392 217.877 63.1065 216.834C65.3737 215.79 67.3091 215.793 66.3731 216.857C65.4369 217.921 61.3336 218.955 60.0371 221.266C58.7404 223.576 57.577 225.135 61.3404 224.564C65.1036 223.994 71.2202 221.22 71.4887 218.043C71.7576 214.867 71.7577 214.867 71.7577 214.867Z" fill="#6588FC"/>
<path d="M46.0176 209.611C46.0176 209.611 67.1012 208.792 71.7575 214.867C71.7575 214.867 72.7872 217.974 75.9556 220.803L76.4495 222.159C76.4495 222.159 72.7961 218.278 71.4888 218.043C71.4888 218.043 73.5333 210.517 46.0176 209.611Z" fill="#6588FC"/>
<path d="M75.9557 220.803C75.9557 220.803 80.4811 224.174 80.7954 230.199L79.974 230.273C79.974 230.273 78.5288 224.044 75.9162 221.608C73.3041 219.172 75.9557 220.803 75.9557 220.803Z" fill="#6588FC"/>
<path d="M90.4534 206.963C90.4534 206.963 81.9475 202.164 85.917 195.651C85.917 195.651 89.0924 191.651 92.4948 190.623C92.4948 190.623 90.68 200.335 92.4948 200.564C94.3095 200.792 93.7421 189.595 93.7421 189.595C93.7421 189.595 102.702 185.253 106.218 185.596C106.218 185.596 100.661 195.079 102.475 194.851C104.29 194.622 110.528 185.024 110.528 185.024C110.528 185.024 119.714 183.31 121.188 188.795C122.663 194.28 120.281 197.022 118.92 197.364C117.559 197.707 108.826 197.593 109.053 198.736C109.28 199.878 115.178 201.706 118.467 200.678C118.467 200.678 114.837 209.705 110.074 209.248C105.31 208.791 103.836 205.82 100.887 205.591C97.9386 205.363 95.7836 206.163 97.2581 206.963C98.7324 207.762 103.723 207.225 106.104 209.264C108.486 211.304 110.414 212.561 105.991 213.475C101.568 214.39 93.6291 213.818 92.041 210.39C90.4534 206.963 90.4534 206.963 90.4534 206.963Z" fill="#6588FC"/>
<path d="M116.992 190.509C116.992 190.509 93.1754 198.279 90.4533 206.963C90.4533 206.963 90.5666 210.848 88.1852 215.304V217.017C88.1852 217.017 90.6802 211.19 92.0411 210.391C92.0411 210.391 86.7105 202.849 116.992 190.509Z" fill="#6588FC"/>
<path d="M88.1849 215.304C88.1849 215.304 84.5117 220.923 86.6058 227.763L87.5507 227.507C87.5507 227.507 86.6334 219.973 88.5551 216.184C90.4768 212.395 88.1849 215.304 88.1849 215.304Z" fill="#6588FC"/>
<path d="M76.9206 200.344C76.9206 200.344 88.1332 194.018 82.9008 185.433C82.9008 185.433 78.7148 180.161 74.2296 178.806C74.2296 178.806 76.6217 191.608 74.2296 191.91C71.8373 192.211 72.5849 177.45 72.5849 177.45C72.5849 177.45 60.7744 171.727 56.1397 172.179C56.1397 172.179 63.4653 184.68 61.0735 184.379C58.6817 184.077 50.4589 171.426 50.4589 171.426C50.4589 171.426 38.3492 169.166 36.4056 176.396C34.4621 183.626 37.6015 187.24 39.3955 187.692C41.1897 188.144 52.7012 187.994 52.4023 189.5C52.1032 191.006 44.3292 193.416 39.9935 192.061C39.9935 192.061 44.7776 203.959 51.0565 203.357C57.3356 202.754 59.2793 198.838 63.1662 198.537C67.0533 198.235 69.8937 199.29 67.9505 200.344C66.0071 201.399 59.4287 200.69 56.2892 203.379C53.1496 206.068 50.6079 207.725 56.4386 208.93C62.2694 210.134 72.7346 209.381 74.8275 204.863C76.9206 200.344 76.9206 200.344 76.9206 200.344Z" fill="#6588FC"/>
<path d="M41.9371 178.655C41.9371 178.655 73.3326 188.897 76.9205 200.344C76.9205 200.344 76.7711 205.465 79.9106 211.339V213.599C79.9106 213.599 76.6216 205.917 74.8276 204.863C74.8276 204.863 81.8543 194.922 41.9371 178.655Z" fill="#6588FC"/>
<path d="M79.9106 211.339C79.9106 211.339 84.7523 218.747 81.992 227.763L80.7465 227.426C80.7465 227.426 81.9556 217.495 79.4226 212.5C76.8893 207.505 79.9106 211.339 79.9106 211.339Z" fill="#6588FC"/>
<path d="M77.2987 247.316C65.1683 247.316 55.3349 237.409 55.3349 225.188H99.2625C99.2622 237.409 89.4289 247.316 77.2987 247.316Z" fill="#AEC3FF"/>
<path d="M55.0316 248.442H99.5657C99.5657 246.935 98.3523 245.712 96.8558 245.712H57.7412C56.2447 245.712 55.0316 246.935 55.0316 248.442Z" fill="#AEC3FF"/>
<path d="M54.8352 225.188H99.9846V225.867H54.8352V225.188Z" fill="#BBD0FF"/>
<path d="M473.909 282.253H475.333V334.921H473.909V282.253Z" fill="#AEC3FF"/>
<path d="M416.177 282.253H417.601V334.921H416.177V282.253Z" fill="#AEC3FF"/>
<path d="M416.166 246.591H475.333V283.565H416.166V246.591Z" fill="#AEC3FF"/>
<path d="M435.356 246.591H494.523V283.565H435.356V246.591Z" fill="#AEC3FF"/>
<path d="M416.889 247.274H474.62V264.425H416.889V247.274Z" fill="#D2E0FF"/>
<path d="M416.889 265.188H474.62V282.798H416.889V265.188Z" fill="#D2E0FF"/>
<path d="M416.468 301.832H475.333V302.773H416.468V301.832Z" fill="#AEC3FF"/>
<path d="M478.627 334.921C478.627 332.849 476.96 331.169 474.903 331.169C472.846 331.169 471.178 332.849 471.178 334.921C471.178 336.994 472.846 338.674 474.903 338.674C476.96 338.674 478.627 336.994 478.627 334.921Z" fill="#131375"/>
<path d="M474.903 337.123C473.696 337.123 472.718 336.137 472.718 334.921C472.718 333.706 473.696 332.72 474.903 332.72C476.109 332.72 477.087 333.706 477.087 334.921C477.087 336.137 476.109 337.123 474.903 337.123Z" fill="#CEDAEF"/>
<path d="M492.797 282.253H494.221V334.921H492.797V282.253Z" fill="#AEC3FF"/>
<path d="M435.356 301.832H494.221V302.773H435.356V301.832Z" fill="#AEC3FF"/>
<path d="M493.791 338.674C491.734 338.674 490.066 336.994 490.066 334.921C490.066 332.849 491.734 331.169 493.791 331.169C495.848 331.169 497.516 332.849 497.516 334.921C497.516 336.994 495.848 338.674 493.791 338.674Z" fill="#131375"/>
<path d="M493.791 337.123C492.584 337.123 491.606 336.137 491.606 334.921C491.606 333.706 492.584 332.72 493.791 332.72C494.998 332.72 495.976 333.706 495.976 334.921C495.976 336.137 494.998 337.123 493.791 337.123Z" fill="#CEDAEF"/>
<path d="M420.905 334.921C420.905 332.849 419.237 331.169 417.18 331.169C415.123 331.169 413.455 332.849 413.455 334.921C413.455 336.994 415.123 338.674 417.18 338.674C419.237 338.674 420.905 336.994 420.905 334.921Z" fill="#131375"/>
<path d="M417.18 337.123C415.973 337.123 414.995 336.137 414.995 334.921C414.995 333.706 415.973 332.72 417.18 332.72C418.387 332.72 419.365 333.706 419.365 334.921C419.365 336.137 418.387 337.123 417.18 337.123Z" fill="#CEDAEF"/>
<path d="M441.995 256.346H449.36C449.779 256.346 450.119 256.004 450.119 255.582C450.119 255.16 449.779 254.818 449.36 254.818H441.995C441.576 254.818 441.237 255.16 441.237 255.582C441.236 256.004 441.576 256.346 441.995 256.346Z" fill="#91B5F8"/>
<path d="M441.995 275.007H449.36C449.779 275.007 450.119 274.665 450.119 274.243C450.119 273.821 449.779 273.479 449.36 273.479H441.995C441.576 273.479 441.237 273.821 441.237 274.243C441.236 274.665 441.576 275.007 441.995 275.007Z" fill="#91B5F8"/>
<path d="M510.773 180.344C512.99 173.175 522.627 171.831 526.504 178.244C527.202 179.397 527.643 180.722 527.681 182.24C527.895 190.646 511.439 223.183 509.255 226.061C505.279 231.3 481.277 243.901 481.277 243.901L476.176 243.152C476.176 243.152 479.06 241.327 482.046 238.324C488.213 232.121 497.203 222.037 498.85 220.64C501.676 218.244 506.565 193.956 510.773 180.344Z" fill="#ED985F"/>
<path d="M503.807 139.218C503.674 138.678 515.45 144.58 516.047 145.247C521.57 151.42 519.995 159.474 516.835 159.551C514.808 159.601 515.201 162.995 515.201 162.995L492.621 153.372C492.621 153.372 495.34 137.401 503.807 139.218Z" fill="#B5453C"/>
<path d="M501.027 140.464C501.027 140.464 500.22 131.602 510.047 131.602C510.047 131.602 507.069 132.416 505.529 134.044C505.529 134.044 511.797 130.337 518.618 136.033C525.44 141.73 521.201 156.017 523.276 158.73C525.35 161.442 533.428 161.985 532.441 170.756C531.453 179.527 506.803 190.513 508.386 197.77C508.386 197.77 498.726 183.464 505.634 176.935C505.634 176.935 502.267 180.13 501.924 183.928C501.924 183.928 501.01 176.513 505.694 174.141C509.838 172.043 513.233 164.367 512.874 162.995C512.515 161.623 501.027 140.464 501.027 140.464Z" fill="#B5453C"/>
<path d="M528.632 332.074L533.518 331.351C533.518 331.351 549.947 318.198 552.393 293.655C552.643 291.157 552.695 288.621 552.51 286.066C552.489 285.771 552.521 285.476 552.681 285.229C552.681 285.227 552.682 285.225 552.686 285.221C553.212 284.409 554.521 282.375 556.292 279.481C558.039 276.631 561.028 271.242 564.316 265.194C570.24 254.303 577.137 241.278 579.503 237.13C587.04 223.908 583.407 215.017 583.407 215.017C583.407 215.017 562.379 212.923 556.617 207.845L554.542 211.068C554.542 211.068 549.986 231.388 550.201 231.482C549.977 232.173 549.749 232.876 549.518 233.593C545.922 244.773 541.786 258.747 539.532 270.128C538.264 276.532 537.593 282.111 537.954 285.912C538.077 287.216 537.927 289.22 537.582 291.694C535.546 306.278 528.632 332.074 528.632 332.074Z" fill="#2B478B"/>
<path d="M518.382 338.302H538.767C538.767 338.302 539.256 335.172 538.191 332.798C537.171 330.519 535.717 330.446 538.006 326.875C536.71 328.218 532.546 328.774 529.599 328.375C529.238 328.964 527.271 332.921 526.065 333.794C524.733 334.759 518.792 334.415 518.382 338.302Z" fill="#233862"/>
<path d="M549.518 233.593C551.298 243.487 555.504 259.953 564.316 265.194C570.24 254.304 577.137 241.279 579.503 237.13C587.04 223.908 583.407 215.018 583.407 215.018C583.407 215.018 562.379 212.923 556.617 207.845L554.542 211.068C554.542 211.068 549.986 231.388 550.201 231.482C549.977 232.173 549.749 232.876 549.518 233.593Z" fill="#233862"/>
<path d="M563.814 216.545L563.745 212.704C571.342 213.669 589.938 203.559 589.938 203.559C589.938 203.559 597.885 208.884 598.973 224.092C599.504 231.514 602.863 262.906 603.234 272.28C603.37 275.677 603.415 278.102 603.43 279.071C603.429 279.076 603.429 279.078 603.429 279.08C603.434 279.376 603.572 279.637 603.752 279.871C605.324 281.883 606.688 284.015 607.869 286.227C619.46 307.954 613.398 337.477 613.398 337.477L610.707 336.788C610.707 336.788 600.905 306.183 594.5 292.944C593.413 290.699 592.425 288.953 591.599 287.941C589.19 284.994 586.651 279.989 584.147 273.966C579.415 262.578 574.821 247.552 571.545 235.916C571.313 235.958 563.814 216.545 563.814 216.545Z" fill="#2B478B"/>
<path d="M519.361 190.909C531.779 188.038 523.846 170.458 523.126 170.767C521.406 170.414 517.627 167.37 514.247 161.425L513.79 161.825L506.163 168.562C506.163 168.562 507.926 171.182 509.409 173.748C510.568 175.757 511.553 177.737 511.397 178.417C510.783 178.903 516.049 191.676 519.361 190.909Z" fill="#FFB27D"/>
<path d="M511.521 177.85C511.521 177.85 509.337 182.191 508.172 185.951C507.007 189.712 504.093 201.67 504.093 201.67C504.093 201.67 510.104 208.581 518.466 208.178C518.466 208.178 522.962 201.087 521.378 194.684C519.793 188.281 511.521 177.85 511.521 177.85Z" fill="#ECECEC"/>
<path d="M506.163 168.564C506.163 168.564 507.927 171.181 509.409 173.75C514.151 170.805 514.156 164.891 513.791 161.827L506.163 168.564Z" fill="#ED985F"/>
<path d="M505.952 171.938C505.952 171.938 517.466 165.483 513.365 158.321C509.265 151.16 507.99 145.503 500.465 149.321C492.94 153.14 493.089 156.695 493.88 159.421C494.672 162.147 502.851 173.432 505.952 171.938Z" fill="#FFB27D"/>
<path d="M491.936 155.244C492.463 152.064 494.066 151.76 495.184 151.972C499.436 144.888 506.384 147.653 506.384 147.653C510.094 152.344 515.458 153.144 515.458 153.144C515.458 153.144 514.122 155.649 508.617 157.199C506.936 157.673 505.027 157.386 503.186 156.762C507.006 158.907 511 159.729 511 159.729C503.745 160.398 496.843 153.716 496.127 153.001C495.792 154.037 495.205 156.205 495.556 157.79C496.034 159.943 497.932 163.844 496.773 164.349C496.773 164.349 491.145 160.012 491.936 155.244Z" fill="#B5453C"/>
<path d="M597.187 338.302H617.572C617.572 338.302 618.061 335.172 616.996 332.798C615.976 330.519 614.378 329.483 614.761 326.726C613.465 328.07 611.354 329.575 608.407 329.175C608.046 329.765 606.076 332.921 604.87 333.794C603.538 334.759 597.598 334.415 597.187 338.302Z" fill="#233862"/>
<path d="M517.9 204.847C520.523 205.768 524.203 206.275 527.969 206.686C533.33 207.276 538.864 207.677 541.763 208.844C542.329 209.071 543.978 209.766 545.63 210.971V210.974C545.63 210.974 545.671 210.999 545.744 211.06C546.291 211.462 546.838 211.927 547.342 212.45C548.111 213.247 548.781 214.178 549.212 215.246C550.275 217.892 548.867 225.228 547.965 229.238C547.601 230.852 548.357 232.519 549.816 233.281C551.854 234.342 553.857 235.325 555.826 236.22C555.93 236.268 556.031 236.313 556.136 236.36C556.116 235.952 556.11 235.547 556.11 235.152C556.107 232.385 556.455 230.083 556.455 230.083C556.94 232.876 558.765 235.892 560.468 238.213C587.824 249.272 606.938 244.465 606.625 238.955C605.546 219.827 592.742 203.558 592.742 203.558C568.863 175.583 520.561 168.218 520.561 168.218C520.561 168.218 518.248 167.938 515.456 171.317C511.441 176.185 511.241 177.454 511.241 177.454C511.241 177.454 510.182 202.134 517.9 204.847Z" fill="white"/>
<path d="M527.971 206.686C533.331 207.275 538.866 207.679 541.765 208.843C542.95 191.008 534.595 177.592 534.595 177.592C534.595 177.592 529.145 199.937 527.971 206.686Z" fill="#D2D2D2"/>
<path d="M522.342 174.142C522.342 174.142 535.776 175.479 536.853 184.273C537.93 193.068 523.973 228.888 521.974 232.131C518.335 238.036 496.908 258.276 496.908 258.276L492.959 255.865C492.959 255.865 508.157 229.943 510.511 227.517C514.205 223.709 517.793 177.188 522.342 174.142Z" fill="#FFB27D"/>
<path d="M515.458 190.943C515.458 190.943 514.078 168.268 531.305 173.75C548.532 179.233 528.632 218.234 528.632 218.234C528.632 218.234 518.521 217.731 514.935 208.843L515.458 190.943Z" fill="#ECECEC"/>
<path d="M547.966 229.239C547.602 230.852 548.358 232.519 549.817 233.281C551.855 234.343 553.858 235.325 555.826 236.22C555.93 235.882 556.025 235.529 556.111 235.152C556.421 233.756 556.564 232.085 556.456 230.083C556 221.616 550.276 215.204 547.342 212.45C548.111 213.247 548.782 214.178 549.212 215.246C550.276 217.892 548.867 225.228 547.966 229.239Z" fill="#ECECEC"/>
<path d="M520.561 168.219C520.561 168.219 518.458 165.54 517.037 165.627C517.037 165.627 511.288 173.734 511.242 177.455C511.242 177.455 518.412 167.843 520.561 168.219Z" fill="#F8F8F8"/>
<path d="M465.412 246.674C465.412 246.674 468.469 246.729 469.128 246.634C469.776 246.54 470.641 246.256 471.512 246.225C472.368 246.193 473.154 246.473 473.958 246.639C474.078 246.664 474.2 246.674 474.322 246.674H479.392C479.392 246.674 479.9 246.429 480.457 245.528C480.697 245.137 480.73 244.208 481.277 243.901C484.347 242.175 476.177 243.152 476.177 243.152C476.177 243.152 471.047 243.058 470.574 243.415C469.731 244.053 465.221 246.43 465.412 246.674Z" fill="#ED985F"/>
<path d="M479.391 246.676C479.391 246.676 476.279 247.581 475.433 248.162L474.54 248.73C474.54 248.73 474.024 248.149 474.838 247.503C475.267 247.163 476.452 246.167 476.491 245.024C476.529 243.882 480.043 244.88 479.391 246.676Z" fill="#ED985F"/>
<path d="M492.959 255.865C492.959 255.865 490.735 257.856 489.043 258.277C487.351 258.697 485.429 263.577 485.122 264.275C484.814 264.972 486.736 263.965 487.505 262.777C488.274 261.589 488.799 261.124 489.024 261.383C489.248 261.641 488.889 264.895 487.608 266.702C486.326 268.509 485.557 270.11 486.48 270.007C487.403 269.904 492.887 268.561 494.015 265.204C495.143 261.848 494.316 261.73 496.908 258.277C499.5 254.824 492.959 255.865 492.959 255.865Z" fill="#FFB27D"/>
<path d="M198.65 159.614L227.328 165.265L241.352 119.627L212.673 113.976L198.65 159.614Z" fill="#AEC3FF"/>
<path d="M212.123 136.961C212.128 136.943 212.133 136.925 212.138 136.908C212.166 136.806 212.194 136.704 212.223 136.604C212.229 136.579 212.236 136.555 212.243 136.531C212.309 136.297 212.377 136.065 212.447 135.836C212.455 135.81 212.463 135.783 212.471 135.757C212.499 135.666 212.526 135.575 212.555 135.485C212.563 135.459 212.571 135.433 212.579 135.406C212.614 135.294 212.65 135.183 212.685 135.072C212.688 135.064 212.691 135.055 212.693 135.047C212.726 134.946 212.759 134.846 212.792 134.747C212.802 134.716 212.813 134.684 212.823 134.653C212.851 134.57 212.879 134.486 212.907 134.403C212.916 134.378 212.925 134.352 212.933 134.327C212.969 134.222 213.006 134.117 213.042 134.013C213.049 133.994 213.056 133.974 213.063 133.955C213.093 133.87 213.123 133.786 213.154 133.702C213.165 133.671 213.176 133.64 213.188 133.609C213.217 133.53 213.246 133.45 213.275 133.371C213.283 133.349 213.292 133.326 213.3 133.304C213.337 133.206 213.374 133.109 213.411 133.013C213.42 132.988 213.43 132.964 213.44 132.939C213.468 132.865 213.496 132.792 213.525 132.72C213.537 132.691 213.548 132.662 213.56 132.632C213.592 132.552 213.624 132.473 213.655 132.395C213.661 132.381 213.667 132.366 213.673 132.352C213.71 132.261 213.747 132.172 213.785 132.083C213.795 132.058 213.805 132.034 213.816 132.01C213.844 131.943 213.872 131.877 213.901 131.811C213.912 131.786 213.923 131.76 213.934 131.735C213.971 131.652 214.007 131.569 214.044 131.487C214.045 131.486 214.046 131.484 214.046 131.482C214.084 131.399 214.121 131.318 214.158 131.238C214.169 131.215 214.179 131.193 214.19 131.17C214.218 131.109 214.247 131.05 214.275 130.992C214.285 130.971 214.295 130.95 214.305 130.929C214.341 130.853 214.378 130.778 214.415 130.706C214.419 130.698 214.422 130.691 214.426 130.683C214.459 130.618 214.492 130.553 214.525 130.491C214.535 130.471 214.545 130.452 214.555 130.434C214.584 130.378 214.613 130.324 214.642 130.271C214.649 130.257 214.657 130.242 214.665 130.228C214.701 130.162 214.737 130.098 214.772 130.036C214.778 130.027 214.783 130.017 214.789 130.008C214.819 129.955 214.849 129.905 214.879 129.855C214.888 129.84 214.897 129.825 214.906 129.81C214.935 129.761 214.965 129.714 214.994 129.668C214.999 129.66 215.005 129.651 215.01 129.643C215.044 129.589 215.078 129.538 215.112 129.488C215.118 129.479 215.125 129.47 215.131 129.461C215.158 129.421 215.186 129.382 215.212 129.345C215.221 129.334 215.229 129.323 215.237 129.312C215.267 129.271 215.298 129.231 215.328 129.194C215.329 129.192 215.331 129.189 215.333 129.187C215.365 129.147 215.396 129.11 215.427 129.075C215.434 129.067 215.441 129.06 215.447 129.053C215.472 129.025 215.496 128.999 215.521 128.975C215.528 128.968 215.535 128.961 215.542 128.954C215.572 128.925 215.601 128.897 215.629 128.873C216.896 127.802 217.996 128.078 218.973 128.705C219.088 128.778 219.201 128.857 219.313 128.939C219.44 129.032 219.565 129.13 219.689 129.229C219.781 129.304 219.873 129.38 219.963 129.455C220.016 129.499 220.068 129.544 220.12 129.588C220.194 129.65 220.266 129.711 220.338 129.772C220.673 130.054 220.993 130.316 221.301 130.499C221.72 130.747 222.045 130.88 222.354 130.93C222.428 130.942 222.501 130.949 222.574 130.952C222.664 130.956 222.755 130.953 222.848 130.945C222.865 130.944 222.882 130.942 222.899 130.94C223.02 130.927 223.146 130.906 223.281 130.877C223.345 130.864 223.412 130.849 223.481 130.832C224.023 130.702 224.721 130.488 225.807 130.286C226.007 130.248 226.196 130.221 226.377 130.2C228.896 129.916 229.61 131.199 229.739 132.371C229.739 132.371 229.739 132.371 229.739 132.371C229.768 132.636 229.767 132.895 229.751 133.129C228.894 145.275 222.774 151.025 221.431 150.802C219.772 150.526 220.478 144.388 219.569 143.511C218.332 142.319 217.238 143.105 215.978 145.128C214.639 147.277 212.531 151.992 211.217 146.831C210.978 145.893 210.912 144.752 210.975 143.505C210.975 143.505 210.975 143.505 210.975 143.504C210.975 143.503 210.975 143.502 210.975 143.501C210.975 143.5 210.975 143.498 210.975 143.496C210.983 143.357 210.992 143.217 211.002 143.076C211.002 143.071 211.002 143.066 211.003 143.06C211.003 143.058 211.003 143.056 211.004 143.054C211.008 142.986 211.014 142.917 211.02 142.849C211.021 142.829 211.023 142.81 211.025 142.79C211.039 142.623 211.055 142.454 211.074 142.284C211.075 142.276 211.075 142.268 211.076 142.259C211.081 142.215 211.086 142.171 211.091 142.127C211.092 142.116 211.094 142.104 211.095 142.093C211.119 141.89 211.145 141.685 211.174 141.479C211.175 141.469 211.177 141.458 211.178 141.448C211.179 141.441 211.18 141.434 211.181 141.427C211.184 141.41 211.186 141.393 211.188 141.376C211.221 141.148 211.257 140.919 211.295 140.689C211.297 140.676 211.299 140.664 211.301 140.651C211.303 140.642 211.304 140.634 211.306 140.625C211.344 140.401 211.384 140.177 211.427 139.952C211.429 139.942 211.43 139.933 211.432 139.923C211.438 139.89 211.445 139.856 211.452 139.823C211.452 139.819 211.453 139.816 211.454 139.812C211.455 139.803 211.458 139.793 211.459 139.784C211.491 139.62 211.524 139.457 211.559 139.293C211.56 139.286 211.561 139.28 211.563 139.273C211.567 139.254 211.571 139.235 211.575 139.216C211.579 139.2 211.582 139.184 211.585 139.169C211.613 139.04 211.641 138.911 211.67 138.782C211.672 138.773 211.674 138.764 211.676 138.755C211.711 138.596 211.749 138.436 211.787 138.277C211.792 138.256 211.796 138.236 211.801 138.216C211.838 138.061 211.877 137.906 211.916 137.752C211.918 137.74 211.921 137.728 211.924 137.716C211.927 137.707 211.929 137.698 211.931 137.689C211.993 137.446 212.057 137.203 212.123 136.961Z" fill="#8CAAEA"/>
<path d="M228.258 135.714C228.278 135.597 228.215 135.502 228.118 135.503C228.02 135.504 227.925 135.599 227.905 135.716C227.885 135.833 227.948 135.928 228.046 135.927C228.143 135.926 228.238 135.831 228.258 135.714Z" fill="#D3A688"/>
<path d="M227.967 134.648C227.977 134.59 227.945 134.543 227.897 134.543C227.848 134.544 227.8 134.591 227.791 134.65C227.781 134.708 227.812 134.756 227.861 134.755C227.909 134.755 227.957 134.707 227.967 134.648Z" fill="#D3A688"/>
<path d="M227.077 135.934C227.087 135.875 227.056 135.828 227.007 135.829C226.958 135.829 226.911 135.877 226.901 135.935C226.89 135.993 226.922 136.041 226.971 136.04C227.02 136.04 227.067 135.992 227.077 135.934Z" fill="#D3A688"/>
<path d="M225.166 146.672C225.166 146.672 225.246 146.138 225.881 145.44C226.291 144.685 227.269 142.408 227.314 141.884C227.457 140.226 228.574 140.806 228.749 142.261C228.787 142.577 228.597 143.352 228.594 143.689C230.407 142.946 235.783 138.393 235.92 141.909C235.991 143.753 234.073 148.115 233.613 148.914C232.838 150.261 228.394 151.634 226.108 151.929L223.395 152.142L221.818 147.732L225.166 146.672Z" fill="#FFB27D"/>
<path d="M141.763 326.661C141.763 326.661 142.48 338.311 144.717 338.478C145.015 338.501 156.065 338.501 156.065 338.501L170.171 338.418C170.171 338.418 170.079 334.994 165.955 334.27C161.832 333.546 154.931 330.627 152.433 325.137C149.805 319.361 141.763 326.661 141.763 326.661Z" fill="#163560"/>
<path d="M140.95 327.469C140.95 327.469 145.238 328.915 148.586 328.915C152.32 328.915 155.714 327.89 155.714 327.89C155.714 327.89 156.522 320.024 160.964 302.694C163.294 293.61 166.62 281.93 171.352 267.418C184.436 227.308 188.415 203.844 188.778 201.622C188.798 201.505 188.805 201.447 188.805 201.447L188.763 201.427L148.537 183.633C148.537 183.633 153.509 238.914 147.165 260.132C146.277 263.098 145.516 266.554 144.863 270.298C140.857 293.346 140.95 327.469 140.95 327.469Z" fill="#FF3E40"/>
<path d="M144.863 270.298L160.964 302.694C163.294 293.61 166.62 281.931 171.352 267.418C184.436 227.308 188.415 203.844 188.778 201.622C188.774 201.556 188.771 201.493 188.763 201.427L148.537 183.634C148.537 183.634 153.509 238.914 147.166 260.132C146.277 263.098 145.516 266.554 144.863 270.298Z" fill="#D43F41"/>
<path d="M173.182 326.661C173.182 326.661 173.899 338.311 176.136 338.478C176.434 338.501 187.484 338.501 187.484 338.501L201.59 338.418C201.59 338.418 201.497 334.994 197.374 334.27C193.251 333.546 186.35 330.627 183.852 325.137C181.224 319.361 173.182 326.661 173.182 326.661Z" fill="#163560"/>
<path d="M195.988 184.936C195.988 184.936 196.511 220.759 190.358 264.742C184.207 308.725 186.292 327.395 186.292 327.395C186.292 327.395 182.065 328.775 180.359 328.915C176.014 329.272 171.558 327.889 171.558 327.889C171.558 327.889 162.752 283.889 165.277 261.874C167.801 239.86 153.219 186.333 153.219 186.333L195.988 184.936Z" fill="#FF3E40"/>
<path d="M166.655 99.811L173.286 106.505L184.824 106.757C184.858 105.822 184.901 101.924 184.937 98.3923C184.938 98.1837 184.939 97.9756 184.942 97.772C184.968 94.7664 184.989 92.1841 184.989 92.1841L175.572 85.39L172.061 82.8571C172.058 82.9199 171.697 86.1221 171.642 86.5891C170.679 94.8844 166.655 99.811 166.655 99.811Z" fill="#FFB27D"/>
<path d="M198.333 186.487C198.172 205.394 196.921 249.627 195.999 250.526C186.225 260.033 143.228 247.92 140.948 237.447C138.672 226.975 149.612 103.163 166.308 98.2187C169.772 97.1947 188.296 103.227 188.296 103.227C188.296 103.227 191.199 110.883 193.105 120.638C193.811 124.252 196.116 150.041 197.462 167.273C197.817 171.867 198.108 175.851 198.279 178.646C198.349 179.8 198.365 182.614 198.333 186.487Z" fill="white"/>
<path d="M172.391 86.8964C173.862 91.2631 181.653 96.4113 184.937 98.3924C184.938 98.1837 184.939 97.9756 184.942 97.772C184.968 94.7664 184.989 92.1841 184.989 92.1841L175.572 85.39C173.286 84.8757 171.783 85.0988 172.391 86.8964Z" fill="#FCA56B"/>
<path d="M189.03 92.3715C189.03 92.3715 171.233 94.1054 170.332 82.9228C169.431 71.7401 166.526 64.4324 177.851 62.8524C189.177 61.2725 191.731 65.3589 192.933 69.0176C194.135 72.6768 193.637 91.6322 189.03 92.3715Z" fill="#FFB27D"/>
<path d="M192.487 67.8649C192.487 67.8649 188.879 79.898 186.474 78.8361C184.068 77.7745 181.868 76.8996 181.47 80.672C181.072 84.4442 183.676 89.4452 175.787 88.4666C167.897 87.488 160.928 64.995 163.849 61.6288C172.278 51.9165 204.155 56.3081 192.487 67.8649Z" fill="#163560"/>
<path d="M183.755 98.4913C183.534 98.3978 171.048 92.7548 169.588 93.2407C168.127 93.7265 166.307 98.2197 166.307 98.2197L188.294 103.228C188.294 103.228 186.564 99.683 183.755 98.4913Z" fill="#ECECEC"/>
<path d="M198.333 186.487C157.537 158.654 160.862 120.373 160.862 120.373C176.779 129.42 192.558 150.835 197.463 167.273C197.817 171.867 198.108 175.851 198.279 178.646C198.349 179.8 198.365 182.614 198.333 186.487Z" fill="#B3B3B3"/>
<path d="M177.301 110.791C177.301 110.791 188.805 151.059 193.491 151.059C196.6 151.059 223.789 146.524 223.789 146.524L226.294 152.459C226.294 152.459 195.999 172.568 184.988 168.519C167.548 162.104 157.028 130.979 160.862 120.374C164.695 109.768 169.946 106.209 177.301 110.791Z" fill="#ECECEC"/>
<path d="M471.323 60.4137H548.772V111.138H471.323V60.4137Z" fill="#6588FC"/>
<path d="M528.788 101.602C529.57 101.602 530.665 100.786 531.72 99.4173C532.671 98.1834 534.388 95.4322 535.196 90.87C535.986 86.4142 535.701 81.4969 534.347 76.2546C534.253 75.889 534.124 75.5393 533.964 75.2151C533.125 73.5072 531.13 71.7683 526.39 73.1839C525.18 73.5455 524.304 73.8718 523.601 74.134C521.902 74.7672 521.266 75.0044 519.33 74.4199C518.683 74.2246 517.955 73.8961 517.185 73.5483C514.671 72.4137 511.542 71.0017 509.191 73.5398C507.315 75.5655 506.178 86.4563 508.323 94.0321C508.825 95.8054 509.48 97.2862 510.27 98.4339C511.694 100.504 512.913 101.434 513.998 101.279C515.587 101.051 516.4 98.6073 517.118 96.451C517.276 95.9741 517.426 95.5235 517.575 95.1311C518.251 93.3418 518.979 92.3484 519.865 92.0049C520.548 91.7402 521.786 91.6698 522.418 92.1484C523.058 92.6331 523.785 94.3832 524.569 96.1387C525.768 98.8205 527.007 101.594 528.784 101.601C528.785 101.602 528.787 101.602 528.788 101.602ZM529.749 73.4665C535.762 74.7123 536.026 93.1041 531.37 99.1437C530.225 100.629 529.265 101.156 528.788 101.156C528.788 101.156 528.786 101.156 528.786 101.156C527.293 101.149 526.06 98.3904 524.973 95.956C524.12 94.0475 523.287 92.5527 522.532 91.9612C521.758 91.3543 520.513 91.2763 519.706 91.5889C518.694 91.9809 517.886 93.0561 517.161 94.9724C517.009 95.3734 516.858 95.8283 516.698 96.3095C516.055 98.2427 515.098 100.206 513.78 100.395C512.889 100.523 512.013 99.7903 510.712 97.8989C509.95 96.7916 509.237 95.6361 508.748 93.91C506.679 86.6026 507.745 75.7556 509.514 73.8445C511.65 71.5395 514.494 72.8231 517.003 73.9558C517.787 74.3095 518.528 74.644 519.203 74.8476C521.281 75.4749 522.005 75.2046 523.754 74.5529C524.452 74.2924 527.262 72.9513 529.749 73.4665Z" fill="white"/>
<path d="M513.693 77.7877L513.782 77.6695L505.646 71.4099H489.093V71.5585H505.596L513.693 77.7877Z" fill="white"/>
<path d="M489.093 97.8742H505.646L505.666 97.859L513.782 91.6146L513.693 91.4963L505.596 97.7255H489.093V97.8742Z" fill="white"/>
<path d="M488.601 84.6915H513.738V84.8391H488.601V84.6915Z" fill="white"/>
<path d="M489.363 81.822H496.783C496.932 81.822 497.054 81.6993 497.054 81.5494C497.054 81.3996 496.932 81.2768 496.783 81.2768H489.363C489.214 81.2768 489.093 81.3996 489.093 81.5494C489.093 81.6993 489.214 81.822 489.363 81.822Z" fill="white"/>
<path d="M489.363 82.9124H496.783C496.932 82.9124 497.054 82.7897 497.054 82.6398C497.054 82.49 496.932 82.3672 496.783 82.3672H489.363C489.214 82.3672 489.093 82.49 489.093 82.6398C489.093 82.7897 489.214 82.9124 489.363 82.9124Z" fill="white"/>
<path d="M489.363 69.3829H496.783C496.932 69.3829 497.054 69.2602 497.054 69.1103C497.054 68.9605 496.932 68.8377 496.783 68.8377H489.363C489.214 68.8377 489.093 68.9605 489.093 69.1103C489.093 69.2602 489.214 69.3829 489.363 69.3829Z" fill="white"/>
<path d="M489.363 70.4731H496.783C496.932 70.4731 497.054 70.3503 497.054 70.2005C497.054 70.0506 496.932 69.9279 496.783 69.9279H489.363C489.214 69.9279 489.093 70.0506 489.093 70.2005C489.093 70.3506 489.214 70.4731 489.363 70.4731Z" fill="white"/>
<path d="M489.363 95.5497H496.783C496.932 95.5497 497.054 95.4269 497.054 95.2771C497.054 95.1272 496.932 95.0045 496.783 95.0045H489.363C489.214 95.0045 489.093 95.1272 489.093 95.2771C489.093 95.4272 489.214 95.5497 489.363 95.5497Z" fill="white"/>
<path d="M489.363 96.6401H496.783C496.932 96.6401 497.054 96.5173 497.054 96.3675C497.054 96.2176 496.932 96.0949 496.783 96.0949H489.363C489.214 96.0949 489.093 96.2174 489.093 96.3675C489.093 96.5173 489.214 96.6401 489.363 96.6401Z" fill="white"/>
<path d="M469.795 112.678H550.3V58.8741H469.795V112.678ZM547.244 109.599H472.851V61.9532H547.244V109.599Z" fill="white"/>
<path d="M436.755 233.051V246.405H450.119V233.009C450.119 232.879 450.113 232.752 450.099 232.625C449.959 231.091 448.981 229.803 447.632 229.227C446.671 228.817 445.995 227.93 445.942 226.88L445.843 224.951H440.937L440.907 226.874C440.887 227.922 440.228 228.823 439.269 229.23C437.915 229.806 436.931 231.094 436.777 232.625C436.763 232.765 436.755 232.907 436.755 233.051Z" fill="#C8DBF4"/>
<path d="M440.587 225.798H446.311L446.159 224.291H440.739L440.587 225.798Z" fill="#B7D3F3"/>
<path d="M436.755 233.051V241.662H450.119V233.008C450.119 232.878 450.113 232.751 450.099 232.624H436.777C436.763 232.765 436.755 232.907 436.755 233.051Z" fill="white"/>
<path d="M425.775 238.935V246.404H433.251V238.911C433.251 238.838 433.248 238.767 433.24 238.696C433.162 237.839 432.614 237.118 431.86 236.796C431.322 236.567 430.944 236.071 430.914 235.483L430.86 234.404H428.115L428.098 235.48C428.087 236.066 427.719 236.57 427.182 236.797C426.425 237.119 425.874 237.84 425.788 238.696C425.78 238.775 425.775 238.854 425.775 238.935Z" fill="#C8DBF4"/>
<path d="M427.919 234.878H431.121L431.036 234.035H428.004L427.919 234.878Z" fill="#B7D3F3"/>
<path d="M425.775 238.935V243.752H433.251V238.911C433.251 238.838 433.248 238.767 433.24 238.696H425.788C425.78 238.775 425.775 238.854 425.775 238.935Z" fill="white"/>
</svg>
