<svg width="468" height="430" viewBox="0 0 468 430" fill="none" xmlns="http://www.w3.org/2000/svg">
<path d="M234 390.951C134.063 390.951 53.0486 310.042 53.0486 210.235C53.0486 110.428 134.063 29.5188 234 29.5188C333.937 29.5188 414.951 110.428 414.951 210.235C414.951 310.042 333.937 390.951 234 390.951Z" fill="#ABD1FF"/>
<path fill-rule="evenodd" clip-rule="evenodd" d="M351.541 284.234C348.714 289.976 352.707 291.011 355.269 285.53C364.947 264.833 391.738 221.466 409.626 207.608C411.239 206.361 410.16 205.159 408.546 206.405C387.284 222.877 363.363 260.214 351.541 284.234Z" fill="#6588FC"/>
<path fill-rule="evenodd" clip-rule="evenodd" d="M396.305 219.126C400.108 212.593 433.401 204.018 434.645 211.371C435.898 218.778 401.688 223.317 396.305 219.126Z" fill="#6588FC"/>
<path fill-rule="evenodd" clip-rule="evenodd" d="M396.305 219.126C392.73 212.465 402.887 179.659 409.808 182.459C416.779 185.279 402.701 216.747 396.305 219.126Z" fill="#6588FC"/>
<path fill-rule="evenodd" clip-rule="evenodd" d="M396.305 219.125C395.989 211.575 419.428 186.452 424.439 191.981C429.487 197.551 403.1 219.765 396.305 219.125Z" fill="#6588FC"/>
<path fill-rule="evenodd" clip-rule="evenodd" d="M120.352 264.705C122.685 270.664 118.62 271.359 116.527 265.683C108.625 244.248 85.5745 198.787 68.9153 183.478C67.4126 182.1 68.5897 180.993 70.0924 182.37C89.8937 200.567 110.591 239.779 120.352 264.705Z" fill="#6588FC"/>
<path fill-rule="evenodd" clip-rule="evenodd" d="M81.2207 196.072C77.9804 189.243 45.5256 177.905 43.6682 185.129C41.7968 192.404 75.5045 199.796 81.2207 196.072Z" fill="#6588FC"/>
<path fill-rule="evenodd" clip-rule="evenodd" d="M81.2207 196.072C85.3425 189.734 77.9804 156.193 70.8485 158.403C63.6651 160.628 75.047 193.166 81.2207 196.072Z" fill="#6588FC"/>
<path fill-rule="evenodd" clip-rule="evenodd" d="M81.2208 196.072C82.1696 188.575 60.9264 161.575 55.4684 166.665C49.9703 171.79 74.3958 196.138 81.2208 196.072Z" fill="#6588FC"/>
<path fill-rule="evenodd" clip-rule="evenodd" d="M318.565 395.267C329.218 388.362 380.878 386.356 381.51 398.241C382.359 414.188 328.304 411.222 318.565 395.267Z" fill="#6588FC"/>
<path fill-rule="evenodd" clip-rule="evenodd" d="M317.272 392.813C326.666 384.279 321.697 336.055 310.348 332.422C295.12 327.55 304.297 379.352 317.272 392.813Z" fill="#6588FC"/>
<path fill-rule="evenodd" clip-rule="evenodd" d="M349.157 367.514C352.354 357.919 387.597 344.7 392.213 352.996C397.732 362.912 363.173 372.614 349.157 367.514Z" fill="#6588FC"/>
<path fill-rule="evenodd" clip-rule="evenodd" d="M347.381 366.193C353.569 358.187 346.87 318.839 337.586 320.859C328.566 322.822 338.428 359.607 347.381 366.193Z" fill="#6588FC"/>
<path fill-rule="evenodd" clip-rule="evenodd" d="M335.7 384.305C341.632 374.97 380.581 365.916 384.509 374.042C389.815 385.019 349.218 393.415 335.7 384.305Z" fill="#6588FC"/>
<path fill-rule="evenodd" clip-rule="evenodd" d="M334.347 382.3C341.861 372.192 335.356 329.594 326.851 331.697C313.656 334.957 325.373 373.335 334.347 382.3Z" fill="#6588FC"/>
<path fill-rule="evenodd" clip-rule="evenodd" d="M400.246 282.673C404.836 279.884 436.147 288.489 435.211 293.437C433.954 300.084 404.168 289.539 400.246 282.673Z" fill="#6588FC"/>
<path fill-rule="evenodd" clip-rule="evenodd" d="M399.914 281.547C405.093 280.12 421.356 257.123 417.161 254.27C411.57 250.468 397.595 273.99 399.914 281.547Z" fill="#6588FC"/>
<path fill-rule="evenodd" clip-rule="evenodd" d="M386.107 293.442C390.59 289.089 419.932 294.608 419.677 300.461C419.335 308.29 392.339 300.213 386.107 293.442Z" fill="#6588FC"/>
<path fill-rule="evenodd" clip-rule="evenodd" d="M385.439 292.251C390.942 289.29 403.929 258.891 397.782 256.867C390.308 254.408 380.845 284.279 385.439 292.251Z" fill="#6588FC"/>
<path fill-rule="evenodd" clip-rule="evenodd" d="M375.686 306.931C379.424 301.247 411.009 305.513 411.277 311.888C411.632 320.311 383.911 312.665 375.686 306.931Z" fill="#6588FC"/>
<path fill-rule="evenodd" clip-rule="evenodd" d="M374.693 305.821C379.847 301.378 385.216 270.955 378.701 269.718C370.278 268.12 367.926 298.426 374.693 305.821Z" fill="#6588FC"/>
<path fill-rule="evenodd" clip-rule="evenodd" d="M366.789 325.846C369.851 318.241 402.268 316.004 405.715 322.883C410.072 331.576 377.876 330.665 366.789 325.846Z" fill="#6588FC"/>
<path fill-rule="evenodd" clip-rule="evenodd" d="M365.353 324.773C370.383 318.296 370.377 287.676 363.123 287.176C352.814 286.464 355.593 317.645 365.353 324.773Z" fill="#6588FC"/>
<path fill-rule="evenodd" clip-rule="evenodd" d="M359.5 346.36C362.261 337.578 388.337 329.622 394.25 335.926C401.733 343.905 372.335 350.787 359.5 346.36Z" fill="#6588FC"/>
<path fill-rule="evenodd" clip-rule="evenodd" d="M357.798 345.284C362.862 337.592 355.767 302.986 348.72 305.825C340.389 309.181 346.245 338.155 357.798 345.284Z" fill="#6588FC"/>
<path fill-rule="evenodd" clip-rule="evenodd" d="M293.803 401.412C288.542 402.388 287.763 395.027 293.476 395.116C379.386 388.174 337.107 300.078 414.129 275.357C417.26 274.345 418.094 277.145 414.962 278.157C340.89 301.931 383.903 394.132 293.803 401.412Z" fill="#6588FC"/>
<path fill-rule="evenodd" clip-rule="evenodd" d="M411.022 277.86C414.533 268.527 444.619 260.531 446.383 265.247C448.504 270.915 417.436 282.042 411.022 277.86Z" fill="#6588FC"/>
<path fill-rule="evenodd" clip-rule="evenodd" d="M141.092 351.972C130.75 344.611 79.2258 340.364 78.0777 352.211C76.5356 368.106 130.67 367.488 141.092 351.972Z" fill="#6588FC"/>
<path fill-rule="evenodd" clip-rule="evenodd" d="M142.491 349.577C133.477 340.642 140.54 292.679 152.036 289.543C167.461 285.335 156.039 336.691 142.491 349.577Z" fill="#6588FC"/>
<path fill-rule="evenodd" clip-rule="evenodd" d="M111.738 322.917C108.961 313.191 74.3255 298.456 69.3542 306.543C63.4087 316.212 97.5132 327.404 111.738 322.917Z" fill="#6588FC"/>
<path fill-rule="evenodd" clip-rule="evenodd" d="M113.569 321.674C107.736 313.407 116.14 274.387 125.328 276.808C134.253 279.161 122.8 315.484 113.569 321.674Z" fill="#6588FC"/>
<path fill-rule="evenodd" clip-rule="evenodd" d="M124.45 340.276C118.931 330.693 80.4113 319.957 76.1342 327.905C70.3563 338.641 110.549 348.792 124.45 340.276Z" fill="#6588FC"/>
<path fill-rule="evenodd" clip-rule="evenodd" d="M125.889 338.332C118.823 327.908 127.174 285.633 135.58 288.101C148.621 291.932 135.245 329.765 125.889 338.332Z" fill="#6588FC"/>
<path fill-rule="evenodd" clip-rule="evenodd" d="M64.3875 235.94C59.9232 232.954 28.2675 240.192 28.9871 245.176C29.9537 251.871 60.1712 242.63 64.3875 235.94Z" fill="#6588FC"/>
<path fill-rule="evenodd" clip-rule="evenodd" d="M64.7674 234.829C59.6556 233.179 44.4074 209.497 48.7238 206.829C54.4746 203.274 67.4135 227.38 64.7674 234.829Z" fill="#6588FC"/>
<path fill-rule="evenodd" clip-rule="evenodd" d="M78.0439 247.311C73.7556 242.769 44.2006 247.01 44.2006 252.868C44.2015 260.704 71.524 253.807 78.0439 247.311Z" fill="#6588FC"/>
<path fill-rule="evenodd" clip-rule="evenodd" d="M78.7635 246.151C73.3936 242.955 61.7413 212.02 67.9702 210.266C75.5457 208.132 83.6994 238.386 78.7635 246.151Z" fill="#6588FC"/>
<path fill-rule="evenodd" clip-rule="evenodd" d="M87.8689 261.24C84.3815 255.399 52.6407 258.291 52.0952 264.649C51.3747 273.049 79.4017 266.611 87.8689 261.24Z" fill="#6588FC"/>
<path fill-rule="evenodd" clip-rule="evenodd" d="M88.9085 260.174C83.953 255.511 79.9117 224.885 86.4756 223.931C94.9596 222.701 95.9908 253.08 88.9085 260.174Z" fill="#6588FC"/>
<path fill-rule="evenodd" clip-rule="evenodd" d="M95.9337 280.524C93.2061 272.793 60.916 269.151 57.1732 275.874C52.4433 284.369 84.6473 284.857 95.9337 280.524Z" fill="#6588FC"/>
<path fill-rule="evenodd" clip-rule="evenodd" d="M97.4159 279.514C92.6728 272.824 94.0108 242.234 101.278 242.048C111.609 241.785 107.477 272.816 97.4159 279.514Z" fill="#6588FC"/>
<path fill-rule="evenodd" clip-rule="evenodd" d="M102.324 301.335C99.9469 292.44 74.2414 283.361 68.0611 289.402C60.2377 297.049 89.308 305.2 102.324 301.335Z" fill="#6588FC"/>
<path fill-rule="evenodd" clip-rule="evenodd" d="M104.071 300.333C99.3471 292.429 107.94 258.163 114.858 261.306C123.034 265.019 115.923 293.713 104.071 300.333Z" fill="#6588FC"/>
<path fill-rule="evenodd" clip-rule="evenodd" d="M165.564 359.186C170.777 360.389 171.876 353.068 166.164 352.909C80.6359 342.246 126.708 256.068 50.8348 228.027C47.7508 226.881 46.7963 229.641 49.8813 230.789C122.849 257.755 75.8658 348.002 165.564 359.186Z" fill="#6588FC"/>
<path fill-rule="evenodd" clip-rule="evenodd" d="M53.8309 230.663C50.73 221.188 21.0196 211.892 19.0519 216.528C16.6864 222.098 47.2417 234.564 53.8309 230.663Z" fill="#6588FC"/>
<path d="M259.046 78.8668C227.987 74.4224 210.982 100.184 210.778 139.205" stroke="#425682" stroke-width="3.8398" stroke-miterlimit="22.9256" stroke-linecap="round" stroke-linejoin="round"/>
<path fill-rule="evenodd" clip-rule="evenodd" d="M293.474 141.42C289.231 157.124 272.628 168.299 250.124 176.582C235.462 170.258 217.572 154.95 210.651 132.003C192.968 73.3833 224.534 73.687 261.804 81.4189C289.28 82.3151 301.686 111.029 293.474 141.42Z" fill="#9C756C"/>
<path fill-rule="evenodd" clip-rule="evenodd" d="M189.192 250.188C178.955 254.558 144.369 270.111 131.618 271.828C113.984 274.203 110.826 251.8 123.468 241.645C143.553 225.512 186.364 207.299 196.88 202.45C209.308 208.884 218.522 237.666 189.192 250.188Z" fill="white"/>
<path fill-rule="evenodd" clip-rule="evenodd" d="M156.982 221.079C152.398 229.925 147.393 237.979 144.219 241.238C150.528 239.506 159.596 228.719 162.824 218.095C160.967 219.096 158.867 220.032 156.982 221.079Z" fill="white"/>
<path fill-rule="evenodd" clip-rule="evenodd" d="M195.215 203.223C193.378 256.761 187.45 287.893 194.645 330.075C198.007 349.787 198.336 364.492 195.266 388.949C233.173 395.248 281.248 393.712 319.156 386.627C315.227 365.211 313.852 279.451 326.066 207.172C307.302 191.98 225.303 188.516 195.215 203.223Z" fill="white"/>
<mask id="mask0_54_37" style="mask-type:luminance" maskUnits="userSpaceOnUse" x="191" y="193" width="136" height="200">
<path d="M195.215 203.223C193.378 256.761 187.45 287.893 194.645 330.075C198.007 349.787 198.336 364.492 195.266 388.949C233.173 395.248 281.248 393.712 319.156 386.627C315.227 365.211 313.852 279.451 326.066 207.172C307.302 191.98 225.303 188.516 195.215 203.223Z" fill="white"/>
</mask>
<g mask="url(#mask0_54_37)">
<path opacity="0.5" d="M351.326 284.563L341.025 274.276M341.025 274.275L330.724 284.563L320.423 274.275L310.123 284.563L299.823 274.276M279.222 274.275L268.921 284.563L258.62 274.276L248.32 284.564L238.02 274.277M279.222 274.276L289.523 284.563L299.823 274.275M238.019 274.276L227.719 284.564L217.418 274.276M196.816 274.276L186.516 284.564L176.216 274.277L165.916 284.565M196.817 274.277L207.118 284.564L217.419 274.276" stroke="white" stroke-width="3.1198" stroke-miterlimit="22.9256" stroke-linecap="round" stroke-linejoin="round"/>
<path opacity="0.5" d="M351.326 270.329L341.025 260.042L330.724 270.329L320.423 260.042L310.123 270.329L299.823 260.043L289.523 270.329L279.222 260.042L268.921 270.329L258.62 260.043L248.32 270.329L238.02 260.043M238.019 260.043L227.719 270.33L217.418 260.043M196.816 260.043L186.516 270.33L176.216 260.044M196.817 260.044L207.118 270.33L217.419 260.043M165.916 270.33L176.216 260.043" stroke="white" stroke-width="3.1198" stroke-miterlimit="22.9256" stroke-linecap="round" stroke-linejoin="round"/>
</g>
<path fill-rule="evenodd" clip-rule="evenodd" d="M315.431 387.3C316.683 387.081 317.925 386.858 319.156 386.627C316.332 371.238 314.828 322.619 318.737 269.655C314.496 266.368 310.667 263.65 305.626 260.593C307.498 279.304 316.834 312.165 309.367 320.237C301.9 328.309 275.357 332.26 250.376 329.856C234.385 328.317 280.309 362.499 315.431 387.3Z" fill="white"/>
<path fill-rule="evenodd" clip-rule="evenodd" d="M313.959 285.704C326.658 310.366 342.896 327.481 347.139 336.903C354.97 354.292 383.642 345.228 378.969 328.481C371.238 300.782 350.285 223.003 327.824 208.168C309.143 195.831 293.428 245.828 313.959 285.704Z" fill="white"/>
<path fill-rule="evenodd" clip-rule="evenodd" d="M338.193 324.183C346.787 324.06 370.949 320.57 375.73 324.149C371.178 315.373 353.838 308.17 330.824 313.116C333.103 315.631 336.497 322.039 338.193 324.183Z" fill="white"/>
<path fill-rule="evenodd" clip-rule="evenodd" d="M232.753 137.464L231.928 191.523C231.752 203.064 228.193 220.586 246.621 235.855C269.801 221.049 271.173 205.089 271.363 192.675L272.188 138.615C272.547 115.068 233.129 112.863 232.753 137.464Z" fill="#FBC9BE"/>
<path fill-rule="evenodd" clip-rule="evenodd" d="M232.169 175.713C244.978 177.223 255.723 177.086 271.621 175.793C262.98 189.94 247.814 193.709 231.782 193.736L232.169 175.713Z" fill="#E3B4AA"/>
<path fill-rule="evenodd" clip-rule="evenodd" d="M173.554 169.733C163.458 155.348 195.679 116.949 199.501 121.816C202.026 125.032 193.959 130.663 191.079 139.035C195.096 134.145 209.148 119.803 212.052 125.416C213.332 127.891 201.178 135.17 197.168 146.264C201.585 141.179 214.16 129.45 216.866 133.712C219.997 138.641 201.014 149.346 198.223 160.199C202.153 158.446 209.742 155.791 211.011 157.317C214.278 161.244 182.08 181.882 173.554 169.733Z" fill="#FBC9BE"/>
<path fill-rule="evenodd" clip-rule="evenodd" d="M210.777 153.674C206.306 153.674 202.66 147.175 202.66 139.206C202.66 131.236 206.306 124.737 210.777 124.737C215.248 124.737 218.894 131.236 218.894 139.206C218.894 147.174 215.248 153.674 210.777 153.674Z" fill="#425682"/>
<path fill-rule="evenodd" clip-rule="evenodd" d="M250.356 81.3387C286.364 84.2795 290.162 119.92 286.538 150.659C284.447 168.393 265.702 187.562 237.86 186.311C203.78 184.779 195.6 78.4287 250.356 81.3387Z" fill="#FBC9BE"/>
<path fill-rule="evenodd" clip-rule="evenodd" d="M210.853 137.956C211.258 112.274 217.978 103.345 224.534 100.799C229.609 98.8284 231.298 100.202 239.028 100.202C246.757 100.202 255.072 98.8985 263.666 102.427C283.424 110.541 275.821 135.204 286.083 147.788C290.093 133.088 291.135 114.262 282.509 98.7536C275.321 85.8344 262.157 79.7668 248.991 79.8266C213.198 79.9892 206.276 110.233 210.853 137.956Z" fill="#9C756C"/>
<path fill-rule="evenodd" clip-rule="evenodd" d="M291.018 133.811C288.539 133.127 285.338 136.872 283.869 142.178C282.4 147.484 283.219 152.34 285.698 153.025C288.177 153.709 291.377 149.963 292.846 144.657C294.316 139.351 293.498 134.496 291.018 133.811Z" fill="#FBC9BE"/>
<path fill-rule="evenodd" clip-rule="evenodd" d="M208.533 107.989C213.773 86.4456 235.575 86.269 247.623 95.668C238.667 80.8378 203.125 76.1439 208.533 107.989Z" fill="#B58C83"/>
<path fill-rule="evenodd" clip-rule="evenodd" d="M294.573 125.928C282.72 103.437 274.735 97.0427 255.632 97.2501C277.787 90.8256 292.594 99.7723 294.573 125.928Z" fill="#B58C83"/>
<path fill-rule="evenodd" clip-rule="evenodd" d="M293.611 135.752C287.588 122.866 287.371 120.197 277.071 111.802C289.009 115.616 294.012 126.959 293.611 135.752Z" fill="#B58C83"/>
<path fill-rule="evenodd" clip-rule="evenodd" d="M223.128 82.9627C234.055 79.279 246.19 86.253 250.857 90.3956C247.202 81.6236 238.149 76.2737 223.128 82.9627Z" fill="#B58C83"/>
<path fill-rule="evenodd" clip-rule="evenodd" d="M288.363 100.304C280.557 91.5403 265.038 90.3404 260.763 91.4132C262.667 86.338 282.594 85.2783 288.363 100.304Z" fill="#B58C83"/>
<path fill-rule="evenodd" clip-rule="evenodd" d="M211.074 126.597C213.785 110.015 219.139 102.894 224.533 100.799C228.113 99.4088 233.795 99.8966 237.316 100.179C212.845 85.8205 208.743 110.231 211.074 126.597ZM253.01 100.083C256.497 100.315 260.056 100.945 263.665 102.427C272.529 106.067 275.885 113.038 277.819 120.755C277.79 104.986 268.257 97.0287 253.01 100.083Z" fill="#825E56"/>
<path d="M288.237 139.212C289.92 138.468 293.325 140.075 289.381 146.742" stroke="#D9ABA1" stroke-width="1.1999" stroke-miterlimit="22.9256" stroke-linecap="round" stroke-linejoin="round"/>
<path d="M290.161 144.451C288.232 143.702 285.927 143.953 285.458 146.049" stroke="#D9ABA1" stroke-width="1.1999" stroke-miterlimit="22.9256" stroke-linecap="round" stroke-linejoin="round"/>
<path fill-rule="evenodd" clip-rule="evenodd" d="M257.108 221.632C254.189 227.498 248.883 234.359 246.621 235.854C251.685 235.24 257.827 232.789 261.52 227.981C263.007 226.045 270.42 237.841 273.082 241.517C277.341 234.315 282.601 211.78 279.876 194.919C274.303 199.944 262.447 219.191 257.108 221.632Z" fill="white"/>
<path fill-rule="evenodd" clip-rule="evenodd" d="M257.108 221.632C266.621 208.268 268.65 198.851 271.456 184.849L279.877 194.92C277.839 211.803 277.198 226.561 271.782 236.209C270.409 232.143 263.309 224.753 257.108 221.632Z" fill="white"/>
<path fill-rule="evenodd" clip-rule="evenodd" d="M233.901 218.396C236.672 225.868 243.342 231.744 246.621 235.855C236.861 227.492 230.6 221.536 221.421 232.784C214.135 217.917 219.913 203.31 223.038 195.849C228.378 198.291 228.561 215.955 233.901 218.396Z" fill="white"/>
<path fill-rule="evenodd" clip-rule="evenodd" d="M233.901 218.396C230.704 206.419 231.693 201.023 232.07 186.079L223.038 195.848C219.982 208.244 219.801 219.187 222.192 229.384C224.386 225.695 227.183 220.154 233.901 218.396Z" fill="white"/>
<path d="M48.6978 332.604H419.302C446.197 332.604 468 354.407 468 381.302C468 408.197 446.197 430 419.302 430H48.6978C21.8027 430 0 408.197 0 381.302C0 354.407 21.8027 332.604 48.6978 332.604Z" fill="#6588FC"/>
<path d="M125.199 378.638H316.387V382.734H125.199V378.638Z" fill="#435C94"/>
<path fill-rule="evenodd" clip-rule="evenodd" d="M149.649 343.966H291.936L316.387 378.638H125.199L149.649 343.966Z" fill="#5571AD"/>
<path fill-rule="evenodd" clip-rule="evenodd" d="M298.526 374.776C300.515 374.78 302.504 374.783 304.493 374.787C305.183 374.788 305.593 374.525 305.403 374.203C304.987 373.497 304.553 372.801 304.122 372.093C303.929 371.773 303.229 371.507 302.555 371.506C300.616 371.504 298.678 371.499 296.74 371.495C296.083 371.494 295.673 371.759 295.846 372.079C296.229 372.784 296.619 373.477 296.992 374.189C297.158 374.506 297.852 374.774 298.526 374.776Z" fill="#6588FC"/>
<path fill-rule="evenodd" clip-rule="evenodd" d="M296.587 370.755C298.34 370.76 300.076 370.759 301.846 370.763C302.655 370.765 303.144 370.438 302.908 370.045C302.335 369.091 301.761 368.137 301.188 367.183C300.952 366.791 300.092 366.466 299.317 366.465C297.614 366.464 295.912 366.459 294.227 366.457C293.452 366.456 293.002 366.779 293.216 367.175C293.727 368.122 294.238 369.084 294.749 370.034C294.964 370.43 295.779 370.752 296.587 370.755Z" fill="#6588FC"/>
<path fill-rule="evenodd" clip-rule="evenodd" d="M293.823 365.713C295.508 365.715 297.194 365.72 298.896 365.722C299.655 365.723 300.11 365.399 299.874 365.007C299.302 364.053 298.727 363.099 298.154 362.144C297.918 361.749 297.109 361.428 296.351 361.427C294.717 361.425 293.098 361.423 291.463 361.421C290.722 361.42 290.289 361.737 290.502 362.136C291.013 363.087 291.525 364.048 292.036 364.998C292.25 365.396 293.065 365.712 293.823 365.713Z" fill="#6588FC"/>
<path fill-rule="evenodd" clip-rule="evenodd" d="M291.059 360.678C292.677 360.68 294.278 360.682 295.913 360.684C296.654 360.685 297.094 360.361 296.857 359.966C296.286 359.014 295.71 358.062 295.139 357.107C294.902 356.711 294.093 356.389 293.386 356.389C291.819 356.389 290.25 356.386 288.7 356.386C287.992 356.386 287.581 356.712 287.79 357.101C288.305 358.06 288.825 359.005 289.34 359.961C289.55 360.351 290.318 360.677 291.059 360.678Z" fill="#6588FC"/>
<path fill-rule="evenodd" clip-rule="evenodd" d="M288.295 355.642C289.845 355.642 291.396 355.645 292.947 355.645C293.656 355.645 294.061 355.323 293.823 354.927C293.032 353.611 292.256 352.296 291.463 350.98C290.672 349.664 289.879 348.346 289.086 347.027C288.851 346.635 288.092 346.31 287.452 346.31C286.019 346.31 284.587 346.31 283.171 346.31C282.514 346.31 282.172 346.638 282.378 347.027C283.081 348.349 283.794 349.665 284.503 350.98C285.21 352.293 285.925 353.605 286.627 354.925C286.834 355.317 287.587 355.642 288.295 355.642Z" fill="#6588FC"/>
<path fill-rule="evenodd" clip-rule="evenodd" d="M285.548 350.607C287.014 350.607 288.497 350.607 289.998 350.607C290.672 350.607 291.044 350.285 290.807 349.89C290.236 348.935 289.661 347.981 289.088 347.027C288.853 346.634 288.094 346.31 287.454 346.31C286.021 346.31 284.589 346.31 283.173 346.31C282.516 346.31 282.175 346.637 282.38 347.027C282.883 347.983 283.404 348.938 283.914 349.89C284.126 350.289 284.856 350.607 285.548 350.607Z" fill="#6588FC"/>
<path fill-rule="evenodd" clip-rule="evenodd" d="M287.975 374.756C289.963 374.758 291.953 374.766 293.959 374.767C294.632 374.768 295.055 374.51 294.886 374.186C294.516 373.482 294.147 372.788 293.773 372.076C293.607 371.759 292.948 371.487 292.273 371.486C290.319 371.485 288.38 371.483 286.441 371.478C285.784 371.477 285.351 371.745 285.497 372.062C285.824 372.771 286.153 373.469 286.475 374.169C286.624 374.495 287.301 374.755 287.975 374.756Z" fill="#6588FC"/>
<path fill-rule="evenodd" clip-rule="evenodd" d="M277.019 370.723C281.839 370.732 286.677 370.736 291.515 370.745C292.391 370.747 292.916 370.4 292.695 369.979C292.209 369.058 291.719 368.139 291.245 367.22C291.028 366.797 290.166 366.451 289.324 366.451C284.655 366.446 279.969 366.437 275.301 366.431C274.458 366.43 273.907 366.778 274.07 367.197C274.429 368.12 274.792 369.035 275.149 369.951C275.313 370.374 276.143 370.721 277.019 370.723Z" fill="#6588FC"/>
<path fill-rule="evenodd" clip-rule="evenodd" d="M281.418 365.699C283.929 365.703 286.44 365.704 288.952 365.708C289.795 365.709 290.261 365.369 290.048 364.944C289.587 364.027 289.1 363.107 288.615 362.187C288.392 361.765 287.57 361.416 286.761 361.416C284.334 361.412 281.907 361.414 279.48 361.41C278.687 361.409 278.182 361.749 278.367 362.173C278.77 363.093 279.172 364.015 279.564 364.93C279.745 365.351 280.592 365.697 281.418 365.699Z" fill="#6588FC"/>
<path fill-rule="evenodd" clip-rule="evenodd" d="M271.928 360.659C276.731 360.663 281.552 360.666 286.373 360.673C287.182 360.673 287.656 360.33 287.435 359.909C286.949 358.988 286.464 358.068 286.002 357.15C285.789 356.724 284.957 356.384 284.182 356.383C279.53 356.379 274.896 356.374 270.26 356.372C269.502 356.372 269.027 356.711 269.181 357.136C269.515 358.05 269.862 358.973 270.21 359.892C270.367 360.311 271.136 360.658 271.928 360.659Z" fill="#6588FC"/>
<path fill-rule="evenodd" clip-rule="evenodd" d="M279.26 355.637C280.81 355.637 282.362 355.639 283.912 355.639C284.62 355.639 285.026 355.317 284.823 354.922C284.335 353.973 283.849 353.016 283.339 352.065C283.125 351.666 282.412 351.347 281.704 351.347C280.221 351.347 278.738 351.346 277.238 351.344C276.547 351.344 276.145 351.665 276.327 352.062C276.767 353.015 277.184 353.969 277.625 354.919C277.809 355.313 278.536 355.637 279.26 355.637Z" fill="#6588FC"/>
<path fill-rule="evenodd" clip-rule="evenodd" d="M276.901 350.604C278.384 350.604 279.867 350.604 281.334 350.604C282.025 350.604 282.417 350.283 282.21 349.89C281.709 348.934 281.199 347.98 280.71 347.027C280.509 346.634 279.8 346.31 279.126 346.31C277.71 346.31 276.295 346.31 274.879 346.31C274.205 346.31 273.841 346.631 274.02 347.027C274.447 347.978 274.877 348.934 275.318 349.887C275.499 350.284 276.209 350.604 276.901 350.604Z" fill="#6588FC"/>
<path fill-rule="evenodd" clip-rule="evenodd" d="M278.232 374.738C279.951 374.742 281.671 374.745 283.407 374.747C284.081 374.748 284.526 374.487 284.385 374.166C284.072 373.458 283.754 372.765 283.44 372.058C283.298 371.737 282.648 371.473 281.991 371.472C280.289 371.468 278.62 371.467 276.934 371.463C276.278 371.461 275.831 371.726 275.957 372.044C276.236 372.752 276.517 373.45 276.783 374.153C276.905 374.475 277.558 374.738 278.232 374.738Z" fill="#6588FC"/>
<path fill-rule="evenodd" clip-rule="evenodd" d="M268.338 374.719C270.057 374.721 271.777 374.728 273.513 374.73C274.186 374.731 274.641 374.471 274.524 374.146C274.271 373.445 274.002 372.752 273.732 372.038C273.614 371.726 272.99 371.456 272.333 371.454C270.631 371.45 268.961 371.446 267.276 371.443C266.618 371.441 266.148 371.71 266.248 372.029C266.469 372.736 266.704 373.434 266.922 374.134C267.024 374.459 267.665 374.719 268.338 374.719Z" fill="#6588FC"/>
<path fill-rule="evenodd" clip-rule="evenodd" d="M258.444 374.702C260.163 374.706 261.883 374.707 263.602 374.711C264.276 374.712 264.753 374.453 264.664 374.132C264.467 373.427 264.231 372.728 264.023 372.024C263.928 371.703 263.315 371.438 262.658 371.437C260.989 371.435 259.303 371.433 257.635 371.431C256.96 371.43 256.476 371.691 256.556 372.013C256.729 372.716 256.916 373.415 257.078 374.117C257.153 374.438 257.753 374.7 258.444 374.702Z" fill="#6588FC"/>
<path fill-rule="evenodd" clip-rule="evenodd" d="M248.533 374.684C250.252 374.688 251.972 374.691 253.708 374.693C254.381 374.694 254.872 374.436 254.803 374.111C254.654 373.411 254.493 372.713 254.331 372.01C254.257 371.686 253.673 371.424 253.016 371.423C251.314 371.421 249.628 371.418 247.96 371.415C247.303 371.413 246.795 371.674 246.847 371.996C246.962 372.697 247.086 373.397 247.201 374.097C247.255 374.423 247.859 374.683 248.533 374.684Z" fill="#6588FC"/>
<path fill-rule="evenodd" clip-rule="evenodd" d="M238.639 374.665C240.358 374.667 242.078 374.669 243.797 374.673C244.488 374.675 245.002 374.416 244.96 374.096C244.867 373.394 244.743 372.691 244.64 371.991C244.592 371.669 244.016 371.41 243.342 371.407C241.657 371.401 239.987 371.401 238.302 371.399C237.645 371.398 237.124 371.655 237.156 371.98C237.225 372.68 237.301 373.381 237.358 374.082C237.384 374.402 237.965 374.664 238.639 374.665Z" fill="#6588FC"/>
<path fill-rule="evenodd" clip-rule="evenodd" d="M228.745 374.648C230.464 374.651 232.184 374.654 233.903 374.656C234.576 374.657 235.103 374.399 235.083 374.075C235.037 373.377 234.971 372.677 234.914 371.976C234.888 371.652 234.341 371.389 233.684 371.389C232.015 371.389 230.329 371.387 228.661 371.384C227.969 371.382 227.42 371.641 227.43 371.962C227.453 372.666 227.481 373.363 227.481 374.064C227.481 374.385 228.055 374.646 228.745 374.648Z" fill="#6588FC"/>
<path fill-rule="evenodd" clip-rule="evenodd" d="M218.834 374.631C220.553 374.633 222.273 374.64 224.009 374.642C224.682 374.643 225.239 374.383 225.239 374.061C225.239 373.36 225.233 372.659 225.222 371.959C225.217 371.635 224.682 371.376 224.025 371.375C222.34 371.373 220.654 371.369 218.986 371.367C218.329 371.366 217.76 371.625 217.738 371.948C217.693 372.648 217.666 373.346 217.621 374.047C217.6 374.371 218.16 374.63 218.834 374.631Z" fill="#6588FC"/>
<path fill-rule="evenodd" clip-rule="evenodd" d="M208.94 374.613C210.659 374.617 212.379 374.618 214.098 374.622C214.789 374.624 215.341 374.365 215.362 374.044C215.408 373.343 215.456 372.642 215.513 371.944C215.54 371.619 215.041 371.359 214.367 371.358C212.682 371.354 211.013 371.351 209.327 371.349C208.671 371.348 208.09 371.607 208.046 371.933C207.955 372.63 207.87 373.327 207.777 374.029C207.735 374.35 208.266 374.612 208.94 374.613Z" fill="#6588FC"/>
<path fill-rule="evenodd" clip-rule="evenodd" d="M199.029 374.594C200.748 374.597 202.467 374.603 204.203 374.605C204.877 374.606 205.454 374.346 205.501 374.023C205.605 373.324 205.717 372.625 205.821 371.927C205.869 371.605 205.367 371.344 204.709 371.343C203.007 371.342 201.337 371.339 199.652 371.335C198.994 371.333 198.401 371.591 198.338 371.916C198.2 372.613 198.038 373.309 197.9 374.012C197.837 374.332 198.355 374.592 199.029 374.594Z" fill="#6588FC"/>
<path fill-rule="evenodd" clip-rule="evenodd" d="M189.136 374.577C190.855 374.579 192.575 374.581 194.31 374.585C194.984 374.587 195.585 374.33 195.659 374.008C195.82 373.308 195.965 372.606 196.113 371.912C196.183 371.586 195.708 371.328 195.051 371.328C193.365 371.326 191.68 371.321 190.012 371.319C189.355 371.318 188.72 371.575 188.63 371.9C188.434 372.595 188.253 373.294 188.056 373.994C187.966 374.315 188.461 374.576 189.136 374.577Z" fill="#6588FC"/>
<path fill-rule="evenodd" clip-rule="evenodd" d="M179.241 374.559C180.96 374.563 182.68 374.566 184.398 374.567C185.073 374.568 185.686 374.308 185.78 373.989C185.989 373.285 186.198 372.592 186.404 371.896C186.501 371.57 186.033 371.31 185.375 371.309C183.707 371.307 182.021 371.302 180.353 371.301C179.679 371.3 179.032 371.558 178.92 371.882C178.679 372.577 178.434 373.271 178.178 373.975C178.065 374.292 178.55 374.558 179.241 374.559Z" fill="#6588FC"/>
<path fill-rule="evenodd" clip-rule="evenodd" d="M169.33 374.539C171.049 374.541 172.769 374.549 174.504 374.551C175.178 374.552 175.815 374.293 175.937 373.973C176.203 373.271 176.459 372.577 176.713 371.88C176.83 371.557 176.392 371.297 175.735 371.296C174.033 371.294 172.363 371.291 170.678 371.287C170.02 371.285 169.362 371.543 169.229 371.865C168.941 372.562 168.636 373.259 168.335 373.958C168.199 374.279 168.656 374.538 169.33 374.539Z" fill="#6588FC"/>
<path fill-rule="evenodd" clip-rule="evenodd" d="M159.436 374.522C161.155 374.526 162.875 374.527 164.593 374.531C165.284 374.533 165.934 374.273 166.077 373.952C166.389 373.251 166.72 372.561 167.021 371.862C167.158 371.541 166.734 371.28 166.06 371.278C164.374 371.274 162.705 371.273 161.02 371.27C160.363 371.268 159.703 371.527 159.537 371.851C159.18 372.544 158.834 373.234 158.475 373.938C158.313 374.257 158.762 374.521 159.436 374.522Z" fill="#6588FC"/>
<path fill-rule="evenodd" clip-rule="evenodd" d="M149.542 374.502C151.261 374.506 152.98 374.511 154.699 374.513C155.374 374.514 156.047 374.256 156.216 373.935C156.586 373.237 156.929 372.536 157.295 371.844C157.469 371.515 157.059 371.262 156.402 371.26C154.734 371.257 153.048 371.258 151.379 371.255C150.705 371.253 150.003 371.503 149.812 371.832C149.414 372.52 149.019 373.222 148.615 373.92C148.428 374.245 148.851 374.501 149.542 374.502Z" fill="#6588FC"/>
<path fill-rule="evenodd" clip-rule="evenodd" d="M138.418 374.482C140.407 374.486 142.396 374.49 144.385 374.494C145.059 374.495 145.75 374.23 145.936 373.918C146.358 373.209 146.782 372.528 147.2 371.828C147.39 371.509 146.998 371.245 146.34 371.244C144.402 371.239 142.463 371.237 140.524 371.235C139.851 371.234 139.155 371.488 138.94 371.813C138.482 372.504 138.023 373.198 137.558 373.9C137.349 374.218 137.727 374.482 138.418 374.482Z" fill="#6588FC"/>
<path fill-rule="evenodd" clip-rule="evenodd" d="M266.652 370.706C268.354 370.708 270.074 370.708 271.81 370.712C272.601 370.714 273.137 370.401 272.99 370.008C272.631 369.053 272.287 368.086 271.928 367.128C271.782 366.738 271.034 366.426 270.276 366.424C268.591 366.421 266.938 366.418 265.27 366.416C264.512 366.415 263.98 366.729 264.107 367.12C264.419 368.077 264.699 369.038 265.001 369.999C265.12 370.383 265.861 370.705 266.652 370.706Z" fill="#6588FC"/>
<path fill-rule="evenodd" clip-rule="evenodd" d="M256.236 370.686C257.938 370.687 259.658 370.69 261.393 370.694C262.185 370.696 262.74 370.381 262.624 369.993C262.336 369.036 262.069 368.076 261.782 367.117C261.666 366.729 260.956 366.412 260.198 366.411C258.529 366.408 256.86 366.405 255.209 366.403C254.451 366.402 253.886 366.717 253.978 367.104C254.206 368.061 254.42 369.022 254.636 369.98C254.722 370.366 255.444 370.685 256.236 370.686Z" fill="#6588FC"/>
<path fill-rule="evenodd" clip-rule="evenodd" d="M245.82 370.669C247.539 370.673 249.242 370.675 250.96 370.677C251.769 370.678 252.341 370.364 252.258 369.976C252.055 369.02 251.855 368.059 251.651 367.103C251.569 366.715 250.892 366.398 250.117 366.396C248.449 366.393 246.797 366.39 245.128 366.388C244.353 366.387 243.785 366.704 243.847 367.089C244.003 368.05 244.125 369.007 244.268 369.962C244.327 370.351 245.01 370.668 245.82 370.669Z" fill="#6588FC"/>
<path fill-rule="evenodd" clip-rule="evenodd" d="M235.386 370.652C237.105 370.654 238.808 370.658 240.543 370.66C241.335 370.661 241.962 370.346 241.908 369.962C241.777 369.005 241.653 368.046 241.52 367.086C241.468 366.702 240.795 366.384 240.037 366.382C238.369 366.378 236.699 366.376 235.048 366.374C234.29 366.373 233.687 366.69 233.716 367.075C233.788 368.031 233.846 368.991 233.919 369.945C233.948 370.333 234.594 370.651 235.386 370.652Z" fill="#6588FC"/>
<path fill-rule="evenodd" clip-rule="evenodd" d="M224.969 370.637C226.688 370.639 228.407 370.643 230.127 370.643C230.919 370.643 231.562 370.329 231.543 369.943C231.495 368.988 231.439 368.032 231.391 367.072C231.372 366.688 230.733 366.369 229.975 366.368C228.29 366.366 226.638 366.364 224.969 366.363C224.211 366.362 223.571 366.676 223.571 367.063C223.571 368.02 223.549 368.977 223.537 369.934C223.531 370.318 224.177 370.637 224.969 370.637Z" fill="#6588FC"/>
<path fill-rule="evenodd" clip-rule="evenodd" d="M214.553 370.62C216.272 370.622 217.991 370.627 219.711 370.629C220.502 370.629 221.151 370.315 221.16 369.928C221.185 368.974 221.221 368.017 221.244 367.06C221.254 366.672 220.654 366.354 219.896 366.353C218.228 366.351 216.558 366.351 214.907 366.348C214.148 366.346 213.474 366.661 213.441 367.049C213.357 368.005 213.271 368.962 213.188 369.916C213.153 370.301 213.762 370.619 214.553 370.62Z" fill="#6588FC"/>
<path fill-rule="evenodd" clip-rule="evenodd" d="M204.136 370.603C205.856 370.605 207.575 370.61 209.277 370.612C210.085 370.613 210.767 370.296 210.81 369.914C210.919 368.958 211.023 368.001 211.131 367.046C211.174 366.66 210.575 366.341 209.799 366.339C208.147 366.336 206.478 366.337 204.827 366.334C204.051 366.332 203.373 366.646 203.31 367.035C203.155 367.988 202.989 368.946 202.821 369.9C202.754 370.285 203.328 370.602 204.136 370.603Z" fill="#6588FC"/>
<path fill-rule="evenodd" clip-rule="evenodd" d="M193.703 370.586C195.422 370.588 197.142 370.591 198.878 370.595C199.653 370.597 200.373 370.281 200.445 369.898C200.624 368.943 200.821 367.988 201.001 367.033C201.073 366.647 200.495 366.328 199.736 366.326C198.051 366.322 196.399 366.322 194.73 366.321C193.973 366.321 193.276 366.637 193.18 367.021C192.94 367.978 192.695 368.931 192.456 369.884C192.358 370.269 192.911 370.586 193.703 370.586Z" fill="#6588FC"/>
<path fill-rule="evenodd" clip-rule="evenodd" d="M183.286 370.57C185.005 370.572 186.725 370.574 188.46 370.578C189.236 370.58 189.977 370.265 190.078 369.88C190.331 368.926 190.589 367.974 190.854 367.018C190.961 366.632 190.415 366.312 189.657 366.311C187.989 366.309 186.32 366.308 184.668 366.306C183.91 366.305 183.179 366.626 183.05 367.006C182.724 367.964 182.414 368.916 182.089 369.868C181.959 370.252 182.495 370.569 183.286 370.57Z" fill="#6588FC"/>
<path fill-rule="evenodd" clip-rule="evenodd" d="M172.87 370.552C174.589 370.554 176.308 370.557 178.027 370.56C178.82 370.561 179.577 370.246 179.712 369.862C180.048 368.911 180.388 367.957 180.724 367.003C180.86 366.616 180.352 366.297 179.578 366.296C177.909 366.294 176.257 366.293 174.589 366.291C173.814 366.29 173.078 366.61 172.919 366.992C172.522 367.949 172.121 368.894 171.722 369.851C171.566 370.231 172.078 370.552 172.87 370.552Z" fill="#6588FC"/>
<path fill-rule="evenodd" clip-rule="evenodd" d="M162.437 370.535C164.156 370.537 165.875 370.54 167.611 370.543C168.387 370.545 169.199 370.232 169.364 369.848C169.772 368.896 170.175 367.941 170.594 366.989C170.764 366.603 170.256 366.286 169.498 366.285C167.83 366.283 166.162 366.278 164.509 366.277C163.751 366.276 162.982 366.596 162.79 366.977C162.308 367.933 161.843 368.881 161.375 369.834C161.186 370.217 161.662 370.534 162.437 370.535Z" fill="#6588FC"/>
<path fill-rule="evenodd" clip-rule="evenodd" d="M152.019 370.518C153.738 370.52 155.458 370.523 157.194 370.527C157.969 370.529 158.799 370.216 158.998 369.832C159.49 368.883 159.974 367.926 160.464 366.976C160.664 366.588 160.194 366.273 159.436 366.272C157.751 366.27 156.098 366.266 154.43 366.264C153.672 366.263 152.865 366.581 152.643 366.965C152.09 367.918 151.545 368.865 150.992 369.818C150.769 370.2 151.245 370.517 152.019 370.518Z" fill="#6588FC"/>
<path fill-rule="evenodd" clip-rule="evenodd" d="M141.266 370.501C143.019 370.503 144.756 370.505 146.525 370.509C147.333 370.51 148.181 370.192 148.412 369.803C148.973 368.86 149.53 367.907 150.098 366.968C150.339 366.57 149.895 366.257 149.12 366.256C147.418 366.254 145.715 366.25 144.03 366.248C143.254 366.247 142.423 366.563 142.158 366.957C141.529 367.895 140.91 368.842 140.288 369.788C140.034 370.175 140.458 370.501 141.266 370.501Z" fill="#6588FC"/>
<path fill-rule="evenodd" clip-rule="evenodd" d="M144.604 365.514C148.059 365.519 151.531 365.523 155.003 365.528C155.846 365.529 156.716 365.188 156.942 364.774C157.441 363.858 157.953 362.951 158.459 362.042C158.694 361.621 158.223 361.277 157.415 361.276C154.06 361.274 150.706 361.272 147.369 361.268C146.577 361.267 145.711 361.6 145.43 362.026C144.834 362.929 144.229 363.842 143.626 364.754C143.352 365.168 143.795 365.513 144.604 365.514Z" fill="#6588FC"/>
<path fill-rule="evenodd" clip-rule="evenodd" d="M147.857 360.53C151.801 360.532 155.762 360.536 159.723 360.541C160.515 360.542 161.355 360.204 161.577 359.786C162.062 358.873 162.574 357.965 163.06 357.052C163.282 356.635 162.823 356.291 162.065 356.291C158.239 356.289 154.43 356.284 150.604 356.282C149.863 356.282 149.022 356.625 148.75 357.038C148.147 357.951 147.532 358.857 146.929 359.769C146.655 360.185 147.065 360.53 147.857 360.53Z" fill="#6588FC"/>
<path fill-rule="evenodd" clip-rule="evenodd" d="M151.093 355.549C156.52 355.554 161.965 355.553 167.409 355.557C168.168 355.557 168.957 355.217 169.162 354.802C169.615 353.886 170.075 352.98 170.528 352.062C170.732 351.647 170.291 351.304 169.567 351.304C164.325 351.302 159.083 351.299 153.858 351.299C153.133 351.299 152.327 351.64 152.055 352.054C151.451 352.97 150.838 353.874 150.234 354.788C149.96 355.201 150.334 355.548 151.093 355.549Z" fill="#6588FC"/>
<path fill-rule="evenodd" clip-rule="evenodd" d="M154.329 350.565C156.486 350.565 158.643 350.565 160.818 350.565C161.543 350.565 162.329 350.219 162.57 349.805C163.104 348.892 163.635 347.987 164.155 347.076C164.393 346.656 164.037 346.31 163.345 346.31C161.255 346.31 159.182 346.31 157.109 346.31C156.418 346.31 155.63 346.658 155.356 347.073C154.754 347.985 154.138 348.89 153.536 349.802C153.263 350.217 153.621 350.565 154.329 350.565Z" fill="#6588FC"/>
<path fill-rule="evenodd" clip-rule="evenodd" d="M159.234 365.534C161.021 365.536 162.79 365.538 164.56 365.539C165.369 365.54 166.199 365.211 166.397 364.799C166.839 363.882 167.28 362.962 167.712 362.036C167.903 361.627 167.426 361.289 166.65 361.288C164.931 361.284 163.211 361.284 161.509 361.282C160.735 361.281 159.892 361.616 159.673 362.028C159.184 362.947 158.683 363.874 158.173 364.787C157.942 365.201 158.442 365.533 159.234 365.534Z" fill="#6588FC"/>
<path fill-rule="evenodd" clip-rule="evenodd" d="M169.465 365.549C171.218 365.551 172.988 365.552 174.774 365.554C175.566 365.555 176.376 365.224 176.543 364.811C176.915 363.895 177.277 362.975 177.639 362.049C177.799 361.64 177.268 361.298 176.493 361.297C174.791 361.295 173.071 361.296 171.369 361.294C170.577 361.293 169.787 361.629 169.599 362.041C169.18 362.964 168.765 363.888 168.335 364.804C168.142 365.216 168.639 365.548 169.465 365.549Z" fill="#6588FC"/>
<path fill-rule="evenodd" clip-rule="evenodd" d="M179.663 365.563C181.415 365.567 183.203 365.565 184.972 365.568C185.798 365.57 186.561 365.237 186.692 364.825C186.983 363.907 187.271 362.985 187.551 362.06C187.675 361.649 187.147 361.312 186.354 361.311C184.635 361.309 182.915 361.304 181.213 361.302C180.438 361.302 179.662 361.639 179.51 362.052C179.173 362.974 178.815 363.893 178.465 364.815C178.31 365.225 178.837 365.561 179.663 365.563Z" fill="#6588FC"/>
<path fill-rule="evenodd" clip-rule="evenodd" d="M189.86 365.577C191.63 365.579 193.4 365.581 195.169 365.582C195.995 365.583 196.738 365.254 196.838 364.839C197.058 363.921 197.263 362.997 197.462 362.071C197.55 361.658 196.99 361.319 196.198 361.318C194.496 361.316 192.776 361.315 191.074 361.313C190.281 361.312 189.542 361.646 189.422 362.062C189.155 362.985 188.892 363.911 188.613 364.827C188.486 365.241 189.052 365.576 189.86 365.577Z" fill="#6588FC"/>
<path fill-rule="evenodd" clip-rule="evenodd" d="M200.057 365.588C201.827 365.59 203.597 365.595 205.383 365.596C206.192 365.597 206.905 365.264 206.968 364.85C207.107 363.931 207.232 363.003 207.372 362.082C207.434 361.668 206.849 361.331 206.057 361.33C204.338 361.328 202.618 361.328 200.916 361.324C200.141 361.322 199.421 361.654 199.332 362.073C199.136 362.993 198.957 363.922 198.76 364.841C198.671 365.255 199.266 365.587 200.057 365.588Z" fill="#6588FC"/>
<path fill-rule="evenodd" clip-rule="evenodd" d="M210.271 365.602C212.041 365.604 213.811 365.609 215.597 365.611C216.389 365.611 217.105 365.275 217.131 364.865C217.189 363.942 217.241 363.019 217.3 362.094C217.326 361.68 216.692 361.343 215.917 361.342C214.198 361.34 212.496 361.336 210.794 361.336C210.001 361.336 209.334 361.671 209.277 362.086C209.149 363.009 209.034 363.932 208.906 364.854C208.849 365.268 209.463 365.602 210.271 365.602Z" fill="#6588FC"/>
<path fill-rule="evenodd" clip-rule="evenodd" d="M220.486 365.616C222.238 365.618 224.025 365.622 225.795 365.622C226.604 365.622 227.267 365.285 227.261 364.876C227.25 363.954 227.222 363.028 227.21 362.102C227.206 361.688 226.554 361.349 225.778 361.349C224.059 361.349 222.339 361.348 220.637 361.346C219.845 361.346 219.208 361.68 219.188 362.093C219.141 363.018 219.1 363.945 219.053 364.867C219.032 365.279 219.66 365.616 220.486 365.616Z" fill="#6588FC"/>
<path fill-rule="evenodd" clip-rule="evenodd" d="M230.684 365.628C232.436 365.63 234.224 365.635 235.993 365.637C236.818 365.638 237.45 365.299 237.409 364.891C237.315 363.965 237.216 363.043 237.122 362.114C237.081 361.701 236.414 361.362 235.622 361.361C233.903 361.359 232.2 361.356 230.498 361.356C229.705 361.356 229.084 361.692 229.099 362.105C229.133 363.033 229.148 363.954 229.183 364.879C229.199 365.292 229.875 365.627 230.684 365.628Z" fill="#6588FC"/>
<path fill-rule="evenodd" clip-rule="evenodd" d="M240.881 365.642C242.651 365.644 244.421 365.649 246.19 365.65C247.016 365.651 247.617 365.316 247.539 364.901C247.365 363.977 247.213 363.051 247.05 362.125C246.977 361.71 246.258 361.373 245.483 361.372C243.764 361.371 242.044 361.366 240.342 361.364C239.567 361.363 238.964 361.699 239.011 362.116C239.115 363.041 239.226 363.966 239.331 364.894C239.377 365.302 240.09 365.641 240.881 365.642Z" fill="#6588FC"/>
<path fill-rule="evenodd" clip-rule="evenodd" d="M251.095 365.656C252.865 365.658 254.635 365.663 256.422 365.665C257.214 365.666 257.811 365.324 257.703 364.915C257.458 363.987 257.223 363.061 256.978 362.135C256.868 361.72 256.118 361.384 255.343 361.383C253.624 361.381 251.905 361.379 250.219 361.377C249.427 361.376 248.855 361.711 248.938 362.127C249.125 363.055 249.291 363.978 249.477 364.904C249.56 365.315 250.287 365.655 251.095 365.656Z" fill="#6588FC"/>
<path fill-rule="evenodd" clip-rule="evenodd" d="M261.309 365.67C263.062 365.674 264.849 365.677 266.619 365.679C267.428 365.679 267.979 365.344 267.832 364.926C267.506 364.003 267.214 363.073 266.888 362.146C266.742 361.728 265.978 361.391 265.203 361.391C263.484 361.391 261.764 361.387 260.062 361.385C259.27 361.385 258.733 361.721 258.848 362.138C259.104 363.063 259.378 363.99 259.624 364.918C259.732 365.327 260.484 365.669 261.309 365.67Z" fill="#6588FC"/>
<path fill-rule="evenodd" clip-rule="evenodd" d="M271.506 365.685C273.259 365.689 275.046 365.689 276.816 365.691C277.642 365.692 278.149 365.353 277.979 364.945C277.592 364.016 277.193 363.084 276.799 362.159C276.62 361.74 275.838 361.405 275.046 361.404C273.327 361.402 271.608 361.399 269.922 361.399C269.131 361.399 268.609 361.735 268.759 362.151C269.097 363.079 269.428 364.011 269.754 364.934C269.9 365.348 270.68 365.683 271.506 365.685Z" fill="#6588FC"/>
<path fill-rule="evenodd" clip-rule="evenodd" d="M164.628 360.546C166.313 360.548 168.016 360.55 169.718 360.553C170.51 360.554 171.293 360.223 171.488 359.807C171.916 358.891 172.315 357.968 172.735 357.048C172.922 356.638 172.465 356.299 171.707 356.298C170.055 356.296 168.419 356.297 166.785 356.295C166.027 356.294 165.247 356.629 165.032 357.041C164.556 357.958 164.088 358.881 163.6 359.798C163.38 360.211 163.836 360.546 164.628 360.546Z" fill="#6588FC"/>
<path fill-rule="evenodd" clip-rule="evenodd" d="M174.42 360.559C176.105 360.56 177.808 360.562 179.51 360.564C180.302 360.565 181.061 360.231 181.213 359.816C181.55 358.896 181.904 357.976 182.242 357.056C182.393 356.643 181.904 356.308 181.146 356.308C179.494 356.306 177.859 356.303 176.224 356.302C175.483 356.301 174.721 356.637 174.539 357.051C174.133 357.966 173.731 358.891 173.325 359.81C173.142 360.223 173.645 360.558 174.42 360.559Z" fill="#6588FC"/>
<path fill-rule="evenodd" clip-rule="evenodd" d="M184.196 360.567C185.915 360.569 187.618 360.573 189.32 360.573C190.095 360.573 190.835 360.238 190.955 359.827C191.223 358.906 191.492 357.983 191.747 357.065C191.863 356.651 191.343 356.313 190.601 356.312C188.95 356.31 187.314 356.311 185.663 356.31C184.921 356.309 184.189 356.649 184.045 357.055C183.717 357.979 183.402 358.905 183.067 359.818C182.913 360.237 183.438 360.566 184.196 360.567Z" fill="#6588FC"/>
<path fill-rule="evenodd" clip-rule="evenodd" d="M194.006 360.578C195.692 360.578 197.411 360.582 199.113 360.584C199.888 360.584 200.592 360.249 200.681 359.834C200.878 358.913 201.067 357.992 201.253 357.069C201.337 356.656 200.798 356.321 200.04 356.321C198.388 356.319 196.753 356.317 195.118 356.315C194.36 356.314 193.666 356.65 193.551 357.065C193.295 357.983 193.075 358.911 192.809 359.83C192.689 360.248 193.231 360.578 194.006 360.578Z" fill="#6588FC"/>
<path fill-rule="evenodd" clip-rule="evenodd" d="M203.799 360.587C205.485 360.588 207.187 360.59 208.906 360.592C209.682 360.593 210.371 360.261 210.423 359.847C210.539 358.926 210.644 358.001 210.76 357.079C210.812 356.666 210.238 356.326 209.479 356.326C207.844 356.326 206.192 356.323 204.557 356.323C203.798 356.323 203.135 356.659 203.056 357.073C202.882 357.992 202.708 358.917 202.534 359.838C202.458 360.252 203.025 360.586 203.799 360.587Z" fill="#6588FC"/>
<path fill-rule="evenodd" clip-rule="evenodd" d="M213.592 360.598C215.277 360.6 216.98 360.602 218.682 360.603C219.474 360.604 220.128 360.268 220.149 359.854C220.196 358.932 220.232 358.006 220.267 357.086C220.283 356.67 219.676 356.335 218.918 356.334C217.284 356.332 215.631 356.33 213.997 356.328C213.255 356.327 212.605 356.665 212.564 357.078C212.47 358.001 212.365 358.923 212.26 359.846C212.213 360.262 212.801 360.598 213.592 360.598Z" fill="#6588FC"/>
<path fill-rule="evenodd" clip-rule="evenodd" d="M223.385 360.61C225.087 360.612 226.79 360.613 228.492 360.613C229.268 360.613 229.902 360.276 229.891 359.863C229.868 358.94 229.808 358.015 229.773 357.092C229.757 356.679 229.116 356.341 228.374 356.341C226.74 356.339 225.087 356.338 223.453 356.338C222.711 356.338 222.064 356.674 222.053 357.088C222.029 358.01 222.02 358.936 221.985 359.859C221.971 360.271 222.61 360.609 223.385 360.61Z" fill="#6588FC"/>
<path fill-rule="evenodd" clip-rule="evenodd" d="M233.195 360.618C234.88 360.618 236.583 360.622 238.285 360.624C239.077 360.625 239.669 360.287 239.617 359.872C239.501 358.948 239.396 358.023 239.279 357.101C239.228 356.689 238.571 356.346 237.813 356.346C236.177 356.346 234.526 356.343 232.891 356.343C232.15 356.343 231.55 356.678 231.576 357.092C231.634 358.018 231.681 358.941 231.728 359.867C231.749 360.279 232.403 360.618 233.195 360.618Z" fill="#6588FC"/>
<path fill-rule="evenodd" clip-rule="evenodd" d="M242.97 360.627C244.673 360.629 246.376 360.631 248.078 360.632C248.853 360.633 249.425 360.297 249.342 359.883C249.155 358.958 248.982 358.029 248.786 357.107C248.697 356.691 248.01 356.354 247.252 356.354C245.618 356.354 243.965 356.352 242.347 356.352C241.588 356.352 241.026 356.686 241.083 357.1C241.211 358.024 241.338 358.951 241.455 359.874C241.506 360.288 242.196 360.626 242.97 360.627Z" fill="#6588FC"/>
<path fill-rule="evenodd" clip-rule="evenodd" d="M252.764 360.638C254.45 360.64 256.169 360.642 257.871 360.644C258.645 360.645 259.182 360.308 259.067 359.892C258.812 358.968 258.542 358.041 258.275 357.115C258.155 356.7 257.449 356.361 256.691 356.36C255.056 356.358 253.404 356.359 251.786 356.357C251.028 356.356 250.484 356.697 250.572 357.109C250.77 358.033 250.97 358.96 251.178 359.883C251.274 360.301 251.989 360.637 252.764 360.638Z" fill="#6588FC"/>
<path fill-rule="evenodd" clip-rule="evenodd" d="M262.557 360.646C264.259 360.648 265.962 360.653 267.68 360.655C268.438 360.656 268.961 360.316 268.81 359.9C268.473 358.975 268.135 358.049 267.798 357.122C267.647 356.707 266.888 356.368 266.146 356.367C264.511 356.366 262.86 356.364 261.224 356.362C260.483 356.361 259.954 356.703 260.078 357.114C260.359 358.045 260.64 358.963 260.921 359.894C261.045 360.305 261.782 360.646 262.557 360.646Z" fill="#6588FC"/>
<path fill-rule="evenodd" clip-rule="evenodd" d="M172.078 355.563C173.696 355.565 175.331 355.566 176.966 355.566C177.708 355.566 178.464 355.228 178.634 354.82C179.02 353.897 179.391 352.976 179.764 352.055C179.929 351.643 179.478 351.309 178.769 351.309C177.185 351.309 175.618 351.308 174.066 351.306C173.342 351.305 172.595 351.641 172.398 352.052C171.955 352.972 171.525 353.897 171.083 354.815C170.885 355.225 171.319 355.563 172.078 355.563Z" fill="#6588FC"/>
<path fill-rule="evenodd" clip-rule="evenodd" d="M181.466 355.568C183.084 355.57 184.719 355.569 186.337 355.571C187.095 355.572 187.814 355.239 187.955 354.825C188.268 353.906 188.573 352.986 188.865 352.057C188.994 351.65 188.512 351.311 187.787 351.311C186.219 351.311 184.652 351.31 183.084 351.308C182.36 351.307 181.644 351.644 181.483 352.054C181.122 352.976 180.763 353.902 180.404 354.819C180.241 355.235 180.708 355.568 181.466 355.568Z" fill="#6588FC"/>
<path fill-rule="evenodd" clip-rule="evenodd" d="M190.838 355.575C192.473 355.576 194.108 355.579 195.743 355.581C196.484 355.582 197.189 355.248 197.293 354.831C197.525 353.912 197.734 352.989 197.968 352.063C198.071 351.654 197.546 351.317 196.839 351.317C195.271 351.316 193.687 351.315 192.119 351.315C191.411 351.315 190.709 351.653 190.585 352.06C190.305 352.986 190.016 353.905 189.725 354.826C189.594 355.24 190.097 355.574 190.838 355.575Z" fill="#6588FC"/>
<path fill-rule="evenodd" clip-rule="evenodd" d="M200.226 355.583C201.86 355.583 203.478 355.586 205.114 355.586C205.856 355.586 206.546 355.253 206.614 354.838C206.764 353.918 206.9 352.992 207.053 352.067C207.12 351.657 206.58 351.32 205.873 351.32C204.289 351.32 202.721 351.317 201.17 351.317C200.446 351.317 199.78 351.651 199.687 352.063C199.477 352.986 199.267 353.91 199.046 354.831C198.947 355.244 199.485 355.583 200.226 355.583Z" fill="#6588FC"/>
<path fill-rule="evenodd" clip-rule="evenodd" d="M209.615 355.589C211.232 355.589 212.867 355.592 214.503 355.592C215.245 355.592 215.882 355.255 215.918 354.842C216 353.919 216.084 352.999 216.154 352.072C216.185 351.662 215.615 351.323 214.89 351.323C213.323 351.323 211.755 351.322 210.187 351.32C209.463 351.319 208.833 351.659 208.772 352.067C208.631 352.994 208.507 353.916 208.367 354.838C208.305 355.251 208.856 355.589 209.615 355.589Z" fill="#6588FC"/>
<path fill-rule="evenodd" clip-rule="evenodd" d="M218.986 355.595C220.62 355.597 222.239 355.596 223.874 355.597C224.632 355.598 225.239 355.261 225.239 354.849C225.239 353.923 225.239 353.001 225.239 352.075C225.239 351.662 224.65 351.326 223.924 351.326C222.357 351.326 220.789 351.326 219.222 351.326C218.496 351.326 217.898 351.662 217.873 352.073C217.815 352.999 217.758 353.921 217.688 354.846C217.657 355.255 218.245 355.594 218.986 355.595Z" fill="#6588FC"/>
<path fill-rule="evenodd" clip-rule="evenodd" d="M228.374 355.6C230.01 355.6 231.645 355.603 233.279 355.603C234.004 355.603 234.597 355.266 234.56 354.853C234.479 353.927 234.406 353.005 234.325 352.077C234.289 351.667 233.684 351.328 232.976 351.328C231.392 351.328 229.824 351.33 228.257 351.328C227.548 351.327 226.953 351.664 226.959 352.073C226.97 352.998 226.998 353.925 227.009 354.847C227.014 355.261 227.632 355.6 228.374 355.6Z" fill="#6588FC"/>
<path fill-rule="evenodd" clip-rule="evenodd" d="M237.762 355.606C239.38 355.607 241.016 355.61 242.651 355.611C243.393 355.612 243.965 355.275 243.898 354.859C243.747 353.933 243.606 353.009 243.443 352.082C243.37 351.667 242.718 351.333 241.994 351.332C240.426 351.331 238.858 351.33 237.291 351.33C236.582 351.33 236.019 351.667 236.06 352.078C236.154 353.005 236.253 353.928 236.347 354.855C236.388 355.269 237.021 355.605 237.762 355.606Z" fill="#6588FC"/>
<path fill-rule="evenodd" clip-rule="evenodd" d="M247.151 355.614C248.769 355.616 250.405 355.617 252.039 355.617C252.781 355.617 253.302 355.281 253.202 354.866C252.982 353.94 252.749 353.013 252.528 352.086C252.429 351.675 251.752 351.337 251.028 351.337C249.46 351.337 247.892 351.336 246.325 351.334C245.601 351.333 245.084 351.672 245.162 352.084C245.337 353.011 245.488 353.94 245.65 354.861C245.724 355.278 246.392 355.613 247.151 355.614Z" fill="#6588FC"/>
<path fill-rule="evenodd" clip-rule="evenodd" d="M256.522 355.62C258.14 355.62 259.776 355.621 261.41 355.623C262.168 355.623 262.659 355.286 262.523 354.87C262.221 353.944 261.916 353.019 261.612 352.091C261.478 351.678 260.786 351.339 260.062 351.339C258.495 351.339 256.91 351.341 255.359 351.339C254.635 351.338 254.138 351.677 254.247 352.088C254.492 353.019 254.728 353.945 254.971 354.867C255.081 355.283 255.781 355.62 256.522 355.62Z" fill="#6588FC"/>
<path fill-rule="evenodd" clip-rule="evenodd" d="M265.945 355.628C268.877 355.63 271.828 355.632 274.777 355.634C275.535 355.634 276.007 355.289 275.822 354.868C275.418 353.951 274.996 353.03 274.592 352.111C274.406 351.689 273.648 351.346 272.923 351.345C270.075 351.343 267.243 351.342 264.411 351.342C263.686 351.342 263.205 351.68 263.349 352.105C263.66 353.022 263.97 353.943 264.292 354.862C264.441 355.285 265.17 355.628 265.945 355.628Z" fill="#6588FC"/>
<path fill-rule="evenodd" clip-rule="evenodd" d="M165.285 350.568C166.836 350.568 168.387 350.566 169.954 350.568C170.679 350.569 171.433 350.239 171.639 349.821C172.09 348.909 172.533 347.981 172.988 347.059C173.19 346.649 172.819 346.31 172.128 346.31C170.628 346.31 169.128 346.31 167.627 346.31C166.936 346.31 166.184 346.655 165.959 347.061C165.443 347.985 164.932 348.9 164.408 349.82C164.175 350.233 164.56 350.568 165.285 350.568Z" fill="#6588FC"/>
<path fill-rule="evenodd" clip-rule="evenodd" d="M174.252 350.571C175.803 350.571 177.37 350.569 178.921 350.571C179.646 350.572 180.366 350.24 180.539 349.825C180.921 348.908 181.296 347.984 181.668 347.062C181.834 346.652 181.432 346.311 180.741 346.311C179.24 346.311 177.74 346.311 176.257 346.311C175.566 346.311 174.83 346.653 174.639 347.062C174.207 347.985 173.775 348.908 173.324 349.821C173.118 350.241 173.544 350.571 174.252 350.571Z" fill="#6588FC"/>
<path fill-rule="evenodd" clip-rule="evenodd" d="M183.236 350.574C184.787 350.574 186.354 350.575 187.905 350.576C188.613 350.577 189.315 350.241 189.456 349.827C189.769 348.908 190.063 347.984 190.366 347.061C190.501 346.652 190.046 346.31 189.372 346.31C187.872 346.31 186.372 346.31 184.889 346.31C184.197 346.31 183.497 346.653 183.337 347.061C182.975 347.988 182.614 348.905 182.242 349.824C182.074 350.238 182.511 350.574 183.236 350.574Z" fill="#6588FC"/>
<path fill-rule="evenodd" clip-rule="evenodd" d="M192.22 350.576C201.963 350.578 211.705 350.582 221.448 350.585C231.19 350.588 240.949 350.593 250.692 350.596C251.416 350.596 251.927 350.249 251.821 349.83C251.59 348.911 251.378 347.996 251.147 347.079C251.041 346.658 250.389 346.31 249.697 346.31C240.325 346.31 230.954 346.31 221.6 346.31C212.229 346.31 202.874 346.31 193.52 346.31C192.829 346.31 192.146 346.66 192.02 347.076C191.742 347.99 191.421 348.898 191.143 349.813C191.014 350.231 191.496 350.576 192.22 350.576Z" fill="#6588FC"/>
<path fill-rule="evenodd" clip-rule="evenodd" d="M201.17 350.579C202.72 350.579 204.289 350.58 205.856 350.582C206.563 350.583 207.199 350.246 207.272 349.833C207.434 348.909 207.575 347.987 207.726 347.061C207.794 346.651 207.288 346.31 206.597 346.31C205.097 346.31 203.596 346.31 202.113 346.31C201.423 346.31 200.774 346.65 200.681 347.061C200.471 347.984 200.289 348.91 200.056 349.83C199.953 350.244 200.462 350.579 201.17 350.579Z" fill="#6588FC"/>
<path fill-rule="evenodd" clip-rule="evenodd" d="M210.154 350.582C211.687 350.582 213.255 350.583 214.823 350.585C215.53 350.586 216.151 350.248 216.188 349.833C216.269 348.911 216.337 347.987 216.407 347.061C216.438 346.651 215.918 346.31 215.227 346.31C213.727 346.31 212.227 346.31 210.726 346.31C210.052 346.31 209.418 346.65 209.361 347.061C209.233 347.985 209.107 348.909 208.957 349.833C208.889 350.246 209.445 350.582 210.154 350.582Z" fill="#6588FC"/>
<path fill-rule="evenodd" clip-rule="evenodd" d="M219.137 350.585C220.671 350.585 222.238 350.588 223.806 350.588C224.515 350.588 225.1 350.249 225.104 349.835C225.115 348.913 225.104 347.99 225.104 347.065C225.104 346.652 224.531 346.31 223.857 346.31C222.357 346.31 220.857 346.31 219.373 346.31C218.683 346.31 218.085 346.651 218.058 347.061C218 347.986 217.959 348.911 217.89 349.835C217.859 350.25 218.413 350.585 219.137 350.585Z" fill="#6588FC"/>
<path fill-rule="evenodd" clip-rule="evenodd" d="M228.104 350.588C229.655 350.588 231.206 350.589 232.773 350.59C233.497 350.591 234.051 350.25 234.02 349.838C233.95 348.911 233.866 347.99 233.785 347.065C233.749 346.652 233.162 346.31 232.47 346.31C230.97 346.31 229.47 346.31 227.987 346.31C227.296 346.31 226.73 346.652 226.74 347.061C226.763 347.99 226.779 348.912 226.79 349.835C226.795 350.248 227.38 350.588 228.104 350.588Z" fill="#6588FC"/>
<path fill-rule="evenodd" clip-rule="evenodd" d="M237.072 350.59C238.622 350.59 240.174 350.593 241.741 350.593C242.465 350.593 242.983 350.252 242.921 349.841C242.781 348.914 242.617 347.99 242.466 347.065C242.399 346.652 241.775 346.31 241.084 346.31C239.584 346.31 238.084 346.31 236.6 346.31C235.909 346.31 235.379 346.653 235.42 347.061C235.514 347.99 235.625 348.91 235.707 349.838C235.742 350.249 236.347 350.59 237.072 350.59Z" fill="#6588FC"/>
<path fill-rule="evenodd" clip-rule="evenodd" d="M246.039 350.593C247.589 350.593 249.156 350.596 250.708 350.596C251.433 350.596 251.934 350.253 251.837 349.844C251.615 348.915 251.38 347.993 251.147 347.065C251.043 346.653 250.405 346.31 249.714 346.31C248.214 346.31 246.714 346.31 245.213 346.31C244.539 346.31 244.023 346.653 244.101 347.065C244.276 347.992 244.443 348.915 244.606 349.841C244.678 350.253 245.33 350.593 246.039 350.593Z" fill="#6588FC"/>
<path fill-rule="evenodd" clip-rule="evenodd" d="M255.039 350.596C257.854 350.598 260.668 350.599 263.501 350.599C264.208 350.599 264.683 350.256 264.529 349.833C264.195 348.915 263.869 347.996 263.534 347.079C263.381 346.658 262.675 346.31 261.984 346.31C259.287 346.31 256.574 346.31 253.86 346.31C253.17 346.31 252.704 346.655 252.815 347.079C253.056 347.994 253.279 348.91 253.522 349.83C253.633 350.248 254.315 350.596 255.039 350.596Z" fill="#6588FC"/>
<path fill-rule="evenodd" clip-rule="evenodd" d="M268.254 350.602C269.737 350.602 271.203 350.602 272.703 350.602C273.378 350.602 273.786 350.281 273.614 349.887C273.196 348.931 272.751 347.982 272.333 347.027C272.162 346.636 271.49 346.31 270.833 346.31C269.4 346.31 267.985 346.31 266.552 346.31C265.911 346.31 265.511 346.633 265.658 347.027C266.016 347.977 266.381 348.934 266.737 349.884C266.886 350.281 267.579 350.602 268.254 350.602Z" fill="#6588FC"/>
<path fill-rule="evenodd" clip-rule="evenodd" d="M286.11 333.036C276.801 333.406 261.989 333.871 257.77 334.788C253.552 335.706 245.733 344.91 243.035 349.248C241.535 351.661 245.211 352.252 253.247 345.931C243.757 357.934 245.779 362.957 247.029 363.662C248.947 364.743 251.141 355.785 257.668 353.012C256.879 356.816 258.175 363.23 260.392 362.857C263.335 362.36 264.054 355.1 265.826 353.998C272.634 349.759 281.009 362.83 304.299 350.593C327.591 338.354 305.438 330.486 286.11 333.036Z" fill="#FBC9BE"/>
<path fill-rule="evenodd" clip-rule="evenodd" d="M292.342 355.645C313.114 358.312 363.366 355.92 375.748 342.018C387.309 329.038 370.27 314.839 349.524 315.75C327.695 316.709 303.19 328.839 288.394 332.783C296.219 336.767 299.092 343.393 292.342 355.645Z" fill="white"/>
<path fill-rule="evenodd" clip-rule="evenodd" d="M171.824 155.043C157.035 165.559 116.214 204.774 108.994 233.703C105.11 249.269 128.586 253.422 142.068 240.729C154.188 229.317 184.322 185.249 191.643 173.011C182.344 171.842 175.285 167.611 171.824 155.043Z" fill="white"/>
<path fill-rule="evenodd" clip-rule="evenodd" d="M287.593 153.674C283.122 153.674 279.476 147.175 279.476 139.206C279.476 131.236 283.122 124.737 287.593 124.737C292.064 124.737 295.71 131.236 295.71 139.206C295.71 147.174 292.063 153.674 287.593 153.674Z" fill="#425682"/>
<path fill-rule="evenodd" clip-rule="evenodd" d="M289.442 150.453C285.967 150.453 283.132 145.4 283.132 139.206C283.132 133.011 285.966 127.958 289.442 127.958C292.917 127.958 295.752 133.011 295.752 139.206C295.753 145.4 292.918 150.453 289.442 150.453Z" fill="#5571AD"/>
<path fill-rule="evenodd" clip-rule="evenodd" d="M87.8015 230.263H266.339L271.222 345.295H92.6849L87.8015 230.263Z" fill="#5571AD"/>
<path fill-rule="evenodd" clip-rule="evenodd" d="M169.089 401.079C150.491 401.079 135.323 397.837 135.323 393.864C135.323 389.889 150.491 386.648 169.089 386.648C187.687 386.648 202.856 389.889 202.856 393.864C202.856 397.837 187.687 401.079 169.089 401.079Z" fill="#435C94"/>
<path d="M135.323 390.586H202.856V393.864H135.323V390.586Z" fill="#435C94"/>
<path fill-rule="evenodd" clip-rule="evenodd" d="M169.089 397.802C150.491 397.802 135.323 394.561 135.323 390.586C135.323 386.612 150.491 383.371 169.089 383.371C187.687 383.371 202.856 386.612 202.856 390.586C202.856 394.561 187.687 397.802 169.089 397.802Z" fill="#5571AD"/>
<path fill-rule="evenodd" clip-rule="evenodd" d="M92.4734 234.955H262.065L266.55 340.602H96.9582L92.4734 234.955Z" fill="#435C94"/>
<path d="M155.784 294.906H182.395V390.586H155.784V294.906Z" fill="#6784C2"/>
<path d="M155.784 357.072H182.395V390.586H155.784V357.072Z" fill="#435C94"/>
<path d="M290.587 139.206C292.753 118.075 290.105 83.3113 259.045 78.8669" stroke="#425682" stroke-width="3.8398" stroke-miterlimit="22.9256" stroke-linecap="round" stroke-linejoin="round"/>
<path d="M290.759 144.445C289.031 144.445 287.631 141.949 287.631 138.869C287.631 135.79 289.031 133.293 290.759 133.293C292.486 133.293 293.887 135.79 293.887 138.869C293.887 141.949 292.486 144.445 290.759 144.445Z" fill="#425682"/>
<path fill-rule="evenodd" clip-rule="evenodd" d="M256.405 159.768H264.091C265.736 159.768 267.082 161.112 267.082 162.755V162.756C267.082 164.398 265.736 165.742 264.091 165.742H256.405C254.76 165.742 253.415 164.398 253.415 162.756V162.755C253.416 161.113 254.761 159.768 256.405 159.768Z" fill="#5571AD"/>
<path d="M292.156 139.636C287.093 152.134 281.284 162.768 270.081 162.768H257.465" stroke="#425682" stroke-width="3.8398" stroke-miterlimit="22.9256" stroke-linecap="round" stroke-linejoin="round"/>
<path fill-rule="evenodd" clip-rule="evenodd" d="M328.195 372.54C315.512 371.172 301.85 395.462 323.892 397.84C345.935 400.219 340.879 373.908 328.195 372.54Z" fill="#435C94"/>
<path fill-rule="evenodd" clip-rule="evenodd" d="M328.195 372.54C316.762 371.306 305.656 389.842 324.899 391.919C344.142 393.995 339.628 373.773 328.195 372.54Z" fill="#6784C2"/>
<path fill-rule="evenodd" clip-rule="evenodd" d="M328.002 373.676C327.385 373.609 326.796 374.054 326.693 374.665L326.24 377.325C326.136 377.936 326.554 378.49 327.171 378.557C327.787 378.623 328.375 378.177 328.479 377.566L328.932 374.906C329.037 374.296 328.618 373.742 328.002 373.676Z" fill="#435C94"/>
<path fill-rule="evenodd" clip-rule="evenodd" d="M162.812 -0.117676H92.7503C84.4675 -0.117676 77.6902 6.65079 77.6902 14.9228V50.8892C77.6902 59.1613 84.4666 65.9297 92.7503 65.9297H162.812C171.095 65.9297 177.872 59.1613 177.872 50.8892V14.9228C177.871 6.65079 171.095 -0.117676 162.812 -0.117676Z" fill="#6588FC"/>
<path fill-rule="evenodd" clip-rule="evenodd" d="M134.621 59.554H113.668L152.112 106.45L134.621 59.554Z" fill="#6588FC"/>
<path fill-rule="evenodd" clip-rule="evenodd" d="M152.778 38.4542C149.719 38.4542 147.223 35.9619 147.223 32.9062C147.223 29.8504 149.719 27.3582 152.778 27.3582C155.838 27.3582 158.334 29.8504 158.334 32.9062C158.334 35.9619 155.838 38.4542 152.778 38.4542Z" fill="white"/>
<path fill-rule="evenodd" clip-rule="evenodd" d="M127.78 38.4542C124.72 38.4542 122.225 35.9619 122.225 32.9062C122.225 29.8504 124.72 27.3582 127.78 27.3582C130.84 27.3582 133.335 29.8504 133.335 32.9062C133.335 35.9619 130.84 38.4542 127.78 38.4542Z" fill="white"/>
<path fill-rule="evenodd" clip-rule="evenodd" d="M102.783 38.4542C99.7233 38.4542 97.2278 35.9619 97.2278 32.9062C97.2278 29.8504 99.7233 27.3582 102.783 27.3582C105.843 27.3582 108.338 29.8504 108.338 32.9062C108.338 35.9619 105.843 38.4542 102.783 38.4542Z" fill="white"/>
<path fill-rule="evenodd" clip-rule="evenodd" d="M115.772 134.026L105.293 121.504L115.772 113.095V134.026Z" fill="#6588FC"/>
<path fill-rule="evenodd" clip-rule="evenodd" d="M80.0632 134.026V113.095L90.5421 121.504L80.0632 134.026Z" fill="#6588FC"/>
<path fill-rule="evenodd" clip-rule="evenodd" d="M80.1521 134.904H80.0632V134.829L80.1521 134.904Z" fill="#6588FC"/>
<path fill-rule="evenodd" clip-rule="evenodd" d="M115.772 134.904H115.683L115.772 134.829V134.904Z" fill="#6588FC"/>
<path fill-rule="evenodd" clip-rule="evenodd" d="M80.673 134.904L80.7366 134.829L91.3465 122.15L97.917 127.423L104.488 122.15L115.098 134.829L115.162 134.904H80.673Z" fill="#6588FC"/>
<path fill-rule="evenodd" clip-rule="evenodd" d="M104.631 120.713L104.23 121.036L103.826 121.359L97.9173 126.1L92.0083 121.359L91.606 121.036L91.2037 120.713L80.8876 112.435H114.948L104.631 120.713Z" fill="#6588FC"/>
<path fill-rule="evenodd" clip-rule="evenodd" d="M297.48 16.9947L298.575 14.9454L294.246 12.6372L293.149 14.6865C291.389 14.1286 289.502 13.9287 287.596 14.1445L286.919 11.9214L282.224 13.3474L282.901 15.5705C281.198 16.4508 279.74 17.6657 278.589 19.1076L276.537 18.0142L274.227 22.3381L276.279 23.4314C275.72 25.1901 275.521 27.074 275.736 28.9776L273.51 29.6532L274.938 34.3424L277.163 33.6668C278.045 35.3676 279.261 36.8235 280.705 37.9729L279.611 40.0232L283.94 42.3304L285.035 40.2811C286.796 40.839 288.684 41.039 290.589 40.8231L291.266 43.0462L295.961 41.6211L295.285 39.398C296.989 38.5177 298.445 37.3029 299.596 35.861L301.649 36.9543L303.96 32.6305L301.908 31.5362C302.467 29.7784 302.665 27.8936 302.45 25.99L304.676 25.3144L303.248 20.6252L301.022 21.3008C300.14 19.6 298.925 18.145 297.48 16.9947ZM291.979 36.9665C286.735 38.5588 281.191 35.604 279.597 30.3662C278.002 25.1284 280.962 19.5926 286.206 18.0002C291.449 16.4078 296.992 19.3627 298.587 24.6005C300.181 29.8382 297.223 35.3741 291.979 36.9665Z" fill="#6588FC"/>
<path fill-rule="evenodd" clip-rule="evenodd" d="M254.421 45.2293L253.202 46.2507L255.734 49.2625L256.953 48.2411C257.813 48.9046 258.77 49.4036 259.808 49.726L259.67 51.3081L263.592 51.6501L263.731 50.068C264.801 49.9297 265.845 49.6008 266.8 49.1008L267.824 50.3175L270.839 47.7907L269.816 46.5731C270.481 45.7143 270.979 44.7574 271.303 43.721L272.887 43.8602L273.23 39.9438L271.646 39.8055C271.507 38.729 271.181 37.7001 270.677 36.7395L271.894 35.7172L269.365 32.7063L268.146 33.7276C267.286 33.0642 266.327 32.5661 265.29 32.2437L265.428 30.6616L261.507 30.3196L261.368 31.9017C260.299 32.04 259.254 32.3689 258.297 32.8698L257.275 31.6531L254.259 34.1799L255.282 35.3976C254.618 36.2564 254.119 37.2133 253.796 38.2496L252.212 38.1113L251.868 42.0277L253.454 42.1651C253.591 43.2398 253.916 44.2686 254.421 45.2293ZM258.596 36.2816C259.237 35.7452 259.964 35.3499 260.756 35.1097C263.119 34.393 265.671 35.149 267.257 37.0376C269.436 39.6317 269.095 43.5117 266.5 45.6881C265.859 46.2245 265.132 46.6198 264.339 46.8599C261.977 47.5776 259.426 46.8198 257.838 44.9321C255.661 42.337 255.999 38.458 258.596 36.2816Z" fill="#6588FC"/>
<path fill-rule="evenodd" clip-rule="evenodd" d="M357.918 199.394C348.933 199.394 341.65 192.12 341.65 183.148C341.65 174.175 348.934 166.901 357.918 166.901C366.901 166.901 374.186 174.175 374.186 183.148C374.186 192.12 366.902 199.394 357.918 199.394ZM367.784 194.326L369.112 193.001L366.053 189.946L364.725 191.272L367.784 194.326ZM356.981 198.019H358.857V193.698H356.981V198.019ZM343.027 182.211V184.085H347.354V182.211H343.027ZM348.052 171.969L346.725 173.295L349.785 176.349L351.111 175.023L348.052 171.969ZM349.785 189.945L346.725 193L348.052 194.325L351.11 191.269L349.785 189.945ZM358.857 168.275H356.981V172.597H358.857V168.275ZM360.528 179.35L357.735 182.05L352.636 177.048L351.321 178.386L357.725 184.668L361.833 180.697L360.528 179.35ZM367.784 171.969L364.726 175.024L366.053 176.349L369.113 173.296L367.784 171.969ZM368.484 182.211V184.085H372.809V182.211H368.484Z" fill="#6588FC"/>
<path fill-rule="evenodd" clip-rule="evenodd" d="M129.556 156.754C133.57 161.235 133.183 168.12 128.696 172.128C124.579 175.805 118.441 175.787 114.356 172.301L112.284 174.151C112.321 174.84 112.056 175.538 111.502 176.033L104.031 182.704C103.06 183.572 101.569 183.489 100.703 182.52C99.8346 181.551 99.9169 180.061 100.889 179.194L108.359 172.523C108.914 172.027 109.638 171.842 110.319 171.956L112.391 170.106C109.378 165.663 110.042 159.568 114.16 155.892C118.648 151.885 125.541 152.27 129.556 156.754ZM115.335 169.453C118.343 172.812 123.51 173.1 126.875 170.094C130.238 167.09 130.528 161.93 127.521 158.571C124.514 155.212 119.344 154.923 115.98 157.926C112.615 160.931 112.327 166.092 115.335 169.453Z" fill="#6588FC"/>
<path fill-rule="evenodd" clip-rule="evenodd" d="M349.064 39.7598H419.126C427.408 39.7598 434.186 46.5273 434.186 54.8003V90.7667C434.186 99.0387 427.409 105.807 419.126 105.807H349.064C340.781 105.807 334.004 99.0397 334.004 90.7667V54.8003C334.004 46.5282 340.78 39.7598 349.064 39.7598Z" fill="#6588FC"/>
<path fill-rule="evenodd" clip-rule="evenodd" d="M377.254 99.4312H398.207L359.763 146.327L377.254 99.4312Z" fill="#6588FC"/>
<path fill-rule="evenodd" clip-rule="evenodd" d="M372.201 67.6139H380.182C380.182 64.6824 381.314 63.2938 383.528 63.2938C385.381 63.2938 386.411 64.117 386.411 65.9683C386.411 70.4416 380.439 71.0584 380.439 78.8753H388.214C388.214 73.1161 395.988 71.8826 395.988 64.2722C395.988 58.4101 391.663 55.1189 384.506 55.1189C376.783 55.118 372.253 59.7455 372.201 67.6139ZM384.145 82.2171C381.313 82.2171 379.305 84.171 379.305 86.9988C379.305 89.8779 381.313 91.8833 384.145 91.8833C387.028 91.8833 389.036 89.8779 389.036 86.9988C389.036 84.1701 387.029 82.2171 384.145 82.2171Z" fill="white"/>
</svg>
