<?xml version="1.0" encoding="utf-8"?>
<!-- Generator: Adobe Illustrator 27.9.0, SVG Export Plug-In . SVG Version: 6.00 Build 0)  -->
<svg version="1.1" id="Слой_1" xmlns="http://www.w3.org/2000/svg" xmlns:xlink="http://www.w3.org/1999/xlink" x="0px" y="0px"
	 viewBox="0 0 600 500" style="enable-background:new 0 0 600 500;" xml:space="preserve">
<style type="text/css">
	.st0{fill:#79C4EE;}
	.st1{fill:#FFFFFF;filter:url(#Adobe_OpacityMaskFilter);}
	.st2{mask:url(#mask0_82_1199_00000037685632216030609660000014496173784578305710_);}
	.st3{fill:#97D0F0;}
	.st4{fill:none;stroke:#79C4EE;stroke-linecap:round;stroke-linejoin:round;stroke-miterlimit:10;}
	.st5{fill:none;stroke:#2E2854;stroke-linecap:round;stroke-linejoin:round;stroke-miterlimit:10;}
	.st6{fill:#2E2854;}
	.st7{fill:#FFFFFF;}
	.st8{opacity:0.15;fill:#2E2854;enable-background:new    ;}
	.st9{fill:#0F67BF;}
	.st10{fill:#FF98AA;}
	.st11{fill:#FF8095;}
	.st12{fill:none;stroke:#CBE7F7;stroke-linecap:round;stroke-linejoin:round;stroke-miterlimit:10;}
	.st13{fill:none;stroke:#0F67BF;stroke-linecap:round;stroke-linejoin:round;stroke-miterlimit:10;}
	.st14{fill:#E35D76;}
	.st15{fill:none;stroke:#FFFFFF;stroke-linecap:round;stroke-linejoin:round;stroke-miterlimit:10;}
	.st16{fill:#BFE8FF;}
	.st17{fill:#FFFFFF;filter:url(#Adobe_OpacityMaskFilter_00000093159830428975125510000008246505262740454305_);}
	.st18{mask:url(#mask1_82_1199_00000022551860666527053880000012062462431190149505_);}
	.st19{fill:#2B7DCF;}
	.st20{fill:#FFFFFF;stroke:#2E2854;stroke-linecap:round;stroke-linejoin:round;stroke-miterlimit:10;}
	.st21{fill:#FFFFFF;filter:url(#Adobe_OpacityMaskFilter_00000016033802443976347930000013331710312841563546_);}
	.st22{mask:url(#mask2_82_1199_00000060009956830053056580000008746929017364423040_);}
	.st23{fill:#FDFDFD;}
</style>
<path class="st0" d="M297,452.4C-27.4,412.1-71.8,17.4,173.1,51.7c67.1,9.4,126.2,50.9,194.8,35.2c96.2-22,171.7-17.6,203.1,69.7
	C618.9,290.2,461.1,472.8,297,452.4z"/>
<defs>
	<filter id="Adobe_OpacityMaskFilter" filterUnits="userSpaceOnUse" x="-14.7" y="199.7" width="621.9" height="278.1">
		<feColorMatrix  type="matrix" values="1 0 0 0 0  0 1 0 0 0  0 0 1 0 0  0 0 0 1 0"/>
	</filter>
</defs>
<mask maskUnits="userSpaceOnUse" x="-14.7" y="199.7" width="621.9" height="278.1" id="mask0_82_1199_00000037685632216030609660000014496173784578305710_">
	<path class="st1" d="M297,452.4C-27.4,412.1-71.8,17.4,173.1,51.7c67.1,9.4,126.2,50.9,194.8,35.2c96.2-22,171.7-17.6,203.1,69.7
		C618.9,290.2,461.1,472.8,297,452.4z"/>
</mask>
<g class="st2">
	<path class="st3" d="M587.2,199.7C500,250,400.2,278.4,299.6,281.5c-100.6,3.1-201.9-19-292.1-63.7l-22.2,131.6
		c0,0,226.9,162.7,415.2,121.9c188.2-40.9,206.8-197.2,206.8-197.2L587.2,199.7z"/>
	<path class="st4" d="M20.1,235.9c36,15.5,73.2,28.1,110.5,39c-3.2,37.4-9.3,74.5-18.5,110.9"/>
	<path class="st4" d="M121.8,388.4c7.5-36.4,12.9-73.3,16.4-112.1c45.8,9.7,121.5,21.9,171.8,20.1c0.5,38.4,0,76.8-1.3,115.2"/>
	<path class="st4" d="M387.9,282.8c22.5-2.4,44.4-9.7,67.3-15.2c15.5,45.7,24.9,89.7,29.9,137.7"/>
	<path class="st4" d="M494.6,403.4c-3.5-46.9-13.2-93.3-28.7-139.5c43.4-11.1,84.8-30.3,121.3-56.4"/>
</g>
<path class="st5" d="M96.8,111.2c-4.7,6.8-9.5,13.8-11.6,21.8c-2.1,8-0.9,17.4,4.9,23.2c6.3,6.2,16.1,7,23.2,12.2
	c6.2,4.6,9.7,12.3,10.1,20.1c0.4,6.3-1,12.5-3.4,18.4"/>
<path class="st6" d="M96.4,207.9c-1-3.4-1.7-6.9-1.7-10.5c0-1.6,1-3,2.5-3.4c4.1-1.2,8.5-1.8,13-1.8c1.7,0,3.1,1.1,3.4,2.7
	c0.7,3.6,1.1,7.2,1.1,10.9L96.4,207.9z"/>
<path class="st6" d="M103.9,200.5c-1.2-0.1-2.1-1-2.3-2.1c-1.9-15.4-3.6-30.9-5.2-45.9c-1.7-16.1-3.5-32.7-5.6-49
	c-0.2-1.3,0.8-2.6,2.1-2.7c1.3-0.2,2.6,0.8,2.7,2.1c2,16.4,3.9,33,5.6,49.1c1.6,14.9,3.3,30.4,5.2,45.8c0.2,1.3-0.8,2.6-2.1,2.7
	C104.2,200.5,104.1,200.5,103.9,200.5z"/>
<path class="st6" d="M140.4,214.9c-30.1-26.3-77.3,0.4-70,39.8c3.2,17.3,18.1,31.8,35.4,34.4c17.4,2.7,35.9-6.6,44.2-22.2
	C158.2,251.4,156.9,229.4,140.4,214.9z"/>
<path class="st7" d="M140.4,211.8c-13.2-11.6-33.9-13.7-49.1-5c-15.3,8.7-24.1,27.5-20.9,44.8c3.2,17.3,18.1,31.8,35.4,34.4
	c17.4,2.7,35.9-6.6,44.2-22.2C158.2,248.4,156.9,226.3,140.4,211.8z"/>
<path class="st3" d="M133.7,219.5c-10.1-8.8-25.8-10.4-37.4-3.8c-11.6,6.6-18.3,20.9-15.9,34.1c2.4,13.1,13.8,24.2,27,26.2
	c13.2,2,27.3-5.1,33.6-16.9C147.2,247.3,146.2,230.5,133.7,219.5z"/>
<path class="st8" d="M124.5,259.6c-9.4,7.1-21.6,10.3-33.3,8.7c4.6,3.9,10.1,6.7,16.1,7.6c13.2,2,27.3-5.1,33.6-16.9
	c4.5-8.4,5.2-19.3,0.8-28.9C140.1,241.7,133.8,252.6,124.5,259.6z"/>
<path class="st7" d="M86.6,238.6c-1.1,3.6-1.7,7.5-1,11.2c0.7,3.7,2.6,7.3,5.7,9.5c1.8,1.3,4.5,2,6.2,0.6c1-0.9,1.4-2.3,1.4-3.6
	c-0.1-1.3-0.6-2.6-1.1-3.8c-0.8-1.8-1.8-3.5-2.4-5.4c-0.6-1.9-0.8-4-0.2-5.8c0.7-2,2.3-3.6,3.5-5.3c1.3-1.7,2.3-3.9,1.5-5.9
	c-0.8-2.1-3.3-3.1-5.4-2.7c-2.2,0.4-3.9,2-5.1,3.9C88.6,233.1,87.7,235.1,86.6,238.6z"/>
<path class="st5" d="M79.9,216.4c-1,1.2-1.9,2.5-2.8,3.8"/>
<path class="st5" d="M73.9,226c-3.7,7.9-5.1,17-3.5,25.6c3.2,17.3,18.1,31.8,35.4,34.4c17.4,2.7,35.9-6.6,44.2-22.2
	c8.2-15.5,6.9-37.6-9.6-52c-13.2-11.6-33.9-13.7-49.1-5c-1.1,0.6-2.1,1.3-3.1,1.9"/>
<path class="st9" d="M404.6,292.2c7.8-11.4,6.2-28.3-3.6-38c-5-5-11.8-8.1-16.6-13.3c-7.5-8.1-9.2-19.8-10.7-30.7
	c-1.5-10.9-3.3-22.6-10.9-30.6c-7.4-7.7-19.2-10.3-29.7-8.3c-10.5,2-19.9,8-27.9,15.2c-7.9,0.9-15,8.1-17.6,16.2
	c-2.6,8.1-1.7,16.8-0.8,25.2c0.9,8.4,1.8,17.2-0.8,25.2c-3.8,11.7-14.5,20.1-19.3,31.4c-6.3,14.6-0.9,33.3,12.9,43.5
	c21.4-8.1,43.4-16.2,66.3-16.5c7.7-0.1,15.5,0.7,23.2,0.8c7.7,0,15.7-0.9,22.7-4.2C398.7,304.7,404.7,298.7,404.6,292.2z"/>
<path class="st10" d="M354.6,279.3c-1.1-5.3-2.7-10.6-5-15.7l-13.6,1.9l4.6,15.4L354.6,279.3z"/>
<path class="st11" d="M349.7,263.6l-13.6,1.9l1.5,5c3.3,0.3,8.7,0.2,14.1-2.1C351,266.8,350.3,265.2,349.7,263.6z"/>
<path class="st10" d="M368.2,218.4c7.5,12.1,4.5,29.2-6,39c-10.5,9.8-27.1,12.2-40.5,6.9c-13.5-5.3-23.6-17.4-26.9-31.6
	c7.9-10.1,12.3-22.8,13.1-34.4c6.6,8.8,16.1,15.5,26.6,18.9C345.1,220.7,356.7,220.7,368.2,218.4z"/>
<path class="st10" d="M367.2,220.1c2.9-2.6,6.7-4.4,10.6-4.4s7.9,1.6,10.3,4.7c1.8,2.4,2.6,5.4,2.6,8.4c0,5.4-2.8,10.7-7.3,13.8
	c-4.4,3.1-10.4,3.9-15.5,2.1L367.2,220.1z"/>
<path class="st5" d="M383.9,226.1c-2.8-2-6.7-2.2-9.7-0.5"/>
<path class="st5" d="M379.6,224.5c0.7,2.6,0.4,5.5-0.9,7.9"/>
<path class="st7" d="M382.6,241.6c-1-1.3-3-1.7-4.4-0.8c-1.4,0.9-1.8,2.9-1,4.3c0.8,1.4,2.8,2,4.2,1.3
	C382.9,245.7,383.9,243.5,382.6,241.6z"/>
<path class="st10" d="M295.6,233.1c-3.2-1.7-7.5-0.3-9.7,2.6c-2.2,2.9-2.5,6.9-1.4,10.4c1.4,4.2,5,7.7,9.2,9
	c4.3,1.3,9.2,0.5,12.7-2.2L295.6,233.1z"/>
<path class="st5" d="M287.3,245.1c1.1-3.2,4.2-5.6,7.6-6"/>
<path class="st5" d="M289.9,241.3c0.9,2.6,2.8,4.8,5.2,5.9"/>
<path class="st7" d="M298.6,253.7c-1-1.3-3-1.7-4.4-0.8c-1.4,0.9-1.8,2.9-1,4.3c0.8,1.4,2.8,2,4.2,1.3
	C298.9,257.8,300,255.6,298.6,253.7z"/>
<path class="st5" d="M299.1,223.8c0.8,1.6,1.8,3.1,2.8,4.7c3.3-2.8,7.8-4.1,12.1-3.5"/>
<path class="st5" d="M305.3,226.4c-0.3-1.1-0.7-2.1-1-3.2"/>
<path class="st5" d="M308.9,225.2c-0.1-0.8-0.3-1.7-0.4-2.5"/>
<path class="st5" d="M355.9,219.9c-0.4,1.8-1,3.5-1.6,5.2c-3.9-1.9-8.6-2.1-12.6-0.5"/>
<path class="st5" d="M350.5,223.9c0.1-1.1,0.2-2.2,0.2-3.4"/>
<path class="st5" d="M346.8,223.6c-0.1-0.8-0.2-1.7-0.2-2.5"/>
<path class="st5" d="M324.7,223.1c-0.1,2.9-0.5,5.7-1.4,8.5"/>
<path class="st5" d="M294.8,232.7l13.7,4.6"/>
<path class="st5" d="M353.5,235.4c5.5-5.5,9.3-11,14.9-16.5"/>
<path class="st5" d="M355.7,254.7c5-1.9,9.7-5,14.5-9.4"/>
<path class="st5" d="M303.3,254.6c2.3,1.5,4.5,2.5,7.6,3.1"/>
<path class="st3" d="M351.7,257.6c-11.5,2.7-23.4,3.9-35.2,3.6c-2.5-0.1-4.8-1.6-5.8-4c-2-4.8-3.4-9.8-3.9-14.9
	c-0.2-2.3,0.7-4.5,2.5-5.8c4.7-3.5,9.7-6.4,15.4-7c3.1-0.3,6.3,0.1,9.4,0.6c5.3,0.8,10.5,1.7,16.1,3.2c2.2,0.6,4,2.3,4.5,4.5
	c1.1,4.4,1.7,8.9,1.8,13.5C356.6,254.3,354.6,257,351.7,257.6z"/>
<path class="st5" d="M351.7,257.6c-11.5,2.7-23.4,3.9-35.2,3.6c-2.5-0.1-4.8-1.6-5.8-4c-2-4.8-3.4-9.8-3.9-14.9
	c-0.2-2.3,0.7-4.5,2.5-5.8c4.7-3.5,9.7-6.4,15.4-7c3.1-0.3,6.3,0.1,9.4,0.6c5.3,0.8,10.5,1.7,16.1,3.2c2.2,0.6,4,2.3,4.5,4.5
	c1.1,4.4,1.7,8.9,1.8,13.5C356.6,254.3,354.6,257,351.7,257.6z"/>
<path class="st7" d="M351.3,240.4c0.6,2.7,1.1,5.4,1.3,8.2c0.2,2.5-1.5,4.9-4,5.5c-10,2.4-20.2,3.6-30.4,3.4c-2.4,0-4.4-1.5-5.1-3.7
	c-1.1-3.5-1.9-7-2.5-10.5c-0.4-2.1,0.6-4.2,2.5-5.3c2.8-1.7,5.8-3.1,9-4c4.5-1.2,9.2-1.1,13.8-0.4c3.8,0.6,7.5,1.6,11.8,2.9
	C349.5,237.1,350.9,238.6,351.3,240.4z"/>
<path class="st12" d="M311.8,243.8c5-4.2,11.5-6.6,18.1-6.5c6.6,0.1,12.9,2.4,19.5,3.2"/>
<path class="st12" d="M313.5,249.9c4.3-3.4,9.7-5.4,15.1-5.6c7.1-0.2,14,2.6,21.1,1.9"/>
<path class="st12" d="M315.5,255c5.2-2.3,11.1-2.6,16.8-2.6c5.7,0,11.5,0.2,17.1-1.3"/>
<path class="st10" d="M161.3,237c0,0-1.1,9.5,4.8,13.3c5.9,3.8,0.4,18.7,0.4,18.7l-17.4,9.6c0,0-3.4-17.2,0-25.3
	C152.5,245.3,161.3,237,161.3,237z"/>
<path class="st10" d="M155.7,237.6c2.1-3.4,4.8-6.5,7.9-9c0.5-0.4,1.1-0.8,1.7-0.5c0.4,0.2,0.5,0.6,0.6,1c0,0.4-0.1,0.8-0.3,1.2
	c-1.2,3-2.8,5.8-4.7,8.4L155.7,237.6z"/>
<path class="st5" d="M155.7,237.6c2.1-3.4,4.8-6.5,7.9-9c0.5-0.4,1.1-0.8,1.7-0.5c0.4,0.2,0.5,0.6,0.6,1c0,0.4-0.1,0.8-0.3,1.2
	c-1.2,3-2.8,5.8-4.7,8.4L155.7,237.6z"/>
<path class="st10" d="M149,246.5c1.9-5.6,6.4-10.3,11.9-12.4c0.7-0.3,1.6-0.5,2.2,0c0.5,0.4,0.6,1,0.5,1.6c-0.1,0.6-0.4,1.1-0.7,1.6
	c-1.6,2.5-3.5,4.8-5.5,7L149,246.5z"/>
<path class="st5" d="M152.8,239.8c2.2-2.5,4.9-4.5,8-5.7c0.7-0.3,1.6-0.5,2.2,0c0.5,0.4,0.6,1,0.5,1.6c-0.1,0.6-0.4,1.1-0.7,1.6
	c-1.6,2.5-3.5,4.8-5.5,7"/>
<path class="st10" d="M144,254.7c0.6-3.6,2.7-6.9,5.3-9.4c2.7-2.5,5.9-4.4,9.3-6c0.5-0.2,1-0.5,1.6-0.5c0.6,0,1.2,0.2,1.4,0.7
	c0.3,0.7-0.1,1.4-0.6,2c-3.1,4.3-6.6,8.3-10.3,11.9L144,254.7z"/>
<path class="st5" d="M151.1,243.8c2.3-1.8,4.9-3.2,7.6-4.5c0.5-0.2,1-0.5,1.6-0.5c0.6,0,1.2,0.2,1.4,0.7c0.3,0.7-0.1,1.4-0.6,2
	c-3.1,4.3-6.6,8.3-10.3,11.9"/>
<path class="st10" d="M164.3,269.2c-1-3.5-0.7-7.2,0.1-10.7c0.8-3.5,1.6-7,2.9-10.3c1.1-2.9,2.3-5.9,2-9c-0.1-0.9,0.2-1.8,0.4-2.7
	c0.2-0.9,1.1-1.7,2-1.5c0.9,0.2,1.3,1.2,1.5,2.1c1.1,4.4,0.8,9.2-1,13.7c1.6,5.8,1.8,12,0.4,17.8L164.3,269.2z"/>
<path class="st6" d="M206.2,193.6c-3.4-3.2-8.9-4-13-1.8c-4.1,2.1-6.7,7.1-6,11.7c0.7,4.6,4.5,8.6,9.1,9.5c4.6,0.9,9.6-1.4,12-5.4
	C210.5,203.4,210.4,197.6,206.2,193.6z"/>
<path class="st5" d="M168.9,229.1c0.6-4.4,1.3-8.9,2.2-13c0.6-2.6,2.3-4.9,4.7-6.2c5.9-3.1,12.2-5.5,18.7-7.1"/>
<path class="st6" d="M159.2,280.8c-0.2,0-0.3,0-0.5-0.1c-1.9-0.4-3.1-2.1-2.7-4l9.7-50.9c0.4-1.9,2.1-3.1,4-2.7
	c1.9,0.4,3.1,2.1,2.7,4l-9.7,50.9C162.3,279.7,160.8,280.8,159.2,280.8z"/>
<path class="st13" d="M204.6,195.2c-2.7-2.6-7-3.2-10.3-1.5c-3.3,1.7-5.3,5.6-4.8,9.3c0.5,3.7,3.6,6.9,7.2,7.6
	c3.6,0.7,7.7-1.1,9.5-4.3C208,203.1,207.9,198.4,204.6,195.2z"/>
<path class="st10" d="M149,278.6c-3.4-6.3-5.8-13.1-6.6-19.8c-0.4-3.4,1.1-6.7,3.9-8.6c2-1.4,4.1-2.7,6.2-4c1.3-0.8,2.7-1.6,4.3-1.8
	c0.6-0.1,1.3-0.1,1.7,0.4c0.5,0.6,0,1.6-0.5,2.2c-1.7,2.1-3.6,4.1-5.7,6c2.5,0.4,4.9,1.8,6.5,3.8c1.6,2,2.4,4.6,1.8,7.9
	c-0.1,3.9-0.3,8.1-2.7,11.2C155.7,278.7,152.1,279.9,149,278.6z"/>
<path class="st5" d="M146.4,250.2c2-1.4,4.1-2.7,6.2-4c1.3-0.8,2.7-1.6,4.3-1.8c0.6-0.1,1.3-0.1,1.7,0.4c0.5,0.6,0,1.6-0.5,2.2
	c-1.7,2.1-3.6,4.1-5.7,6c2.5,0.4,4.9,1.8,6.5,3.8c1.6,2,2.4,4.6,1.8,7.9"/>
<path class="st7" d="M289.6,300.1c-6.1,4.6-11.7,9.9-16.7,15.7c-5.9,6.8-11.4,14.6-19.5,18.6c-8,3.9-17.7,3.5-26,0.2
	c-8.3-3.2-15.4-9-21.7-15.4c-14.6-15-25.1-33.9-32.1-53c-10.8,1.2-21.3,4.9-30.2,11.3c4.6,15.7,9.3,31.5,16.5,46.3
	c7.2,14.7,17.2,28.4,30.7,37.8c14.8,10.2,33.1,14.6,51,14c17.9-0.6,35.5-6.1,51.5-14.2"/>
<path class="st8" d="M291.9,340.2c-17.4,8.3-45.2,17.6-77.7,14.3c-32.4-3.3-51-27.1-61-46.5c2,5.4,4.2,10.7,6.8,15.9
	c7.2,14.7,17.2,28.4,30.7,37.8c14.8,10.2,33.1,14.6,51,14c17.9-0.6,35.5-6.1,51.5-14.2L291.9,340.2z"/>
<path class="st5" d="M173.7,266.3c-10.8,1.2-21.3,4.9-30.2,11.3c4.6,15.7,9.3,31.5,16.5,46.3c7.2,14.7,17.2,28.4,30.7,37.8
	c14.8,10.2,33.1,14.6,51,14c17.9-0.6,35.5-6.1,51.5-14.2"/>
<path class="st7" d="M420.5,346.4l-9.4-62.8c-10-5.4-21.1-9-32.4-10.3c0,0-15,16.8-28,20c-13,3.2-33.7-8.6-33.7-8.6
	c-9.9,3.9-19.1,9.1-27.4,15.4l-3.2,27.6c-2.8,20.7-4.2,41.6-5.4,63.1c45.4,13.2,93.7,16.1,138.5,9.6
	C419.9,382.5,420.2,364.4,420.5,346.4z"/>
<path class="st8" d="M406.1,342.8c-1.8,17.2-2.5,39.3-2.7,59.5c5.4-0.5,10.8-1.1,16.2-1.9c0.3-18,0.6-36,0.9-54.1l-2.8-18.7
	C411.6,328.3,407.2,332.6,406.1,342.8z"/>
<path class="st14" d="M317,284.7c11.9,21.3,23.9,42.6,35.8,64c8-25.3,16.6-50.5,25.9-75.3c-11.1-1.2-22.2,0-32.5,4.2
	C336,278.6,326.2,281.1,317,284.7z"/>
<path class="st5" d="M317,284.7c11.9,21.3,23.9,42.6,35.8,64"/>
<path class="st10" d="M367,273c-7.1,0.4-14.2,1.8-20.8,4.5c-5.7,0.6-11.3,1.7-16.7,3.1c4,5.8,12.4,9.5,20.3,8.3
	C358,287.6,365,281,367,273z"/>
<path class="st5" d="M380.4,275.1l4.7,13.6l-7.6,5.8l3.9,11.7l-32.2,53.7"/>
<path class="st5" d="M315.6,287.1l-4.1,13.6l8.8,2.9l-1.9,11.8l33.6,36.1"/>
<path class="st5" d="M378.7,273.4c-9.3,24.9-17.9,50-25.9,75.3c0,0-9.4,30.2-16.6,53.1"/>
<path class="st5" d="M285.6,334.7c-2.2,18.4-3.4,37-4.5,56.1c45.4,13.2,93.7,16.1,138.5,9.6c0.3-18,0.6-36,0.9-54.1"/>
<path class="st10" d="M492.7,276.9c-4.2-5.5-9.9-9.8-16.3-12.3c-3.3-1.3-6.8-2.1-9.5-4.4c-3-2.5-3.5-5.2-4.9-8.9
	c-0.3-0.7-0.5-1.4-0.5-2.2c0-0.8,0.4-1.5,1.1-1.8c1.1-0.4,2.1,0.8,3,1.5c2.5,2.2,3,3.4,4.5,6.2c4.8,0,10.1-0.9,13.5,2.4l12.9,13.8
	L492.7,276.9z"/>
<path class="st5" d="M492.7,276.9c-4.2-5.5-9.9-9.8-16.3-12.3c-3.3-1.3-6.8-2.1-9.5-4.4c-3-2.5-3.5-5.2-4.9-8.9
	c-0.3-0.7-0.5-1.4-0.5-2.2c0-0.8,0.4-1.5,1.1-1.8c1.1-0.4,2.1,0.8,3,1.5c2.5,2.2,3,3.4,4.5,6.2c4.8,0,10.1-0.9,13.5,2.4"/>
<path class="st10" d="M472.9,256.7c0,0,10.5-3.8,12.5-12.6s28,16.3,28,16.3s-12.5,16.1-20.6,16.6c0,0-3.2-9-9.8-13.3
	C476.3,259.2,472.9,256.7,472.9,256.7z"/>
<path class="st15" d="M408.8,223.5c1.6,0.1,3.1,0.2,4.7,0.3"/>
<path class="st15" d="M410.3,230c1.2-0.8,2.4-1.5,3.5-2.3"/>
<path class="st15" d="M416.5,229.5c-0.2,1.2-0.3,2.5-0.5,3.7"/>
<path class="st5" d="M417.9,224.7c3.1-1.2,6.3-2.3,9.8-3.5c1.8-0.6,3.7-0.5,5.3,0.4c6.9,3.5,13.4,7.7,19.4,12.5"/>
<path class="st6" d="M500,275.1c-0.7,0-1.4-0.3-2-0.8c-16.4-13.5-33.3-26.8-50.2-39.6c-1.5-1.1-1.8-3.3-0.7-4.8
	c1.1-1.5,3.3-1.8,4.8-0.7c17,12.8,33.9,26.2,50.4,39.8c1.5,1.2,1.7,3.3,0.5,4.8C502,274.7,501,275.1,500,275.1z"/>
<path class="st10" d="M486.4,239.1c-5.8,0.5-11.6,0.5-17.4,0.1c-1-0.1-2.3-0.4-2.3-1.4c0-0.9,1-1.3,1.9-1.5
	c4.4-1.1,8.9-2.3,13.5-2.1c4.6,0.2,9.3,1.9,12.1,5.5L486.4,239.1z"/>
<path class="st5" d="M486.4,239.1c-5.8,0.5-11.6,0.5-17.4,0.1c-1-0.1-2.3-0.4-2.3-1.4c0-0.9,1-1.3,1.9-1.5c4.4-1.1,8.9-2.3,13.5-2.1
	"/>
<path class="st10" d="M490.6,242.4c-5.9,0.6-11.8,1.2-17.7,1.9c-1.5,0.2-3.6,0-4-1.5c-0.2-0.8,0.2-1.7,0.8-2.2
	c0.6-0.5,1.4-0.8,2.2-1.1c5.3-1.7,10.7-3.5,16.2-3.3c5.5,0.2,11.3,2.9,13.7,8L490.6,242.4z"/>
<path class="st5" d="M490.6,242.4c-5.9,0.6-11.8,1.2-17.7,1.9c-1.5,0.2-3.6,0-4-1.5c-0.2-0.8,0.2-1.7,0.8-2.2
	c0.6-0.5,1.4-0.8,2.2-1.1c4.2-1.4,8.5-2.8,13-3.2"/>
<path class="st10" d="M513.3,260.3c-1.7-4.3-3.4-8.5-6.1-12.3c-2.7-3.7-6.4-6.8-10.9-7.8c-3.4-0.8-7-0.2-10.4,0.6
	c-4.2,1-8.3,2.3-11.9,4.6c-1.1,0.7-2.2,2-1.6,3.1c0.5,0.9,1.9,0.9,2.9,0.7c4.9-0.9,9.7-2.3,14.6-3.5c2.9,1.9,5.9,3.8,8.4,6.2
	c2.5,2.4,4.7,5.3,5.6,8.6L513.3,260.3z"/>
<path class="st5" d="M488.7,240.3c-0.9,0.2-1.8,0.3-2.7,0.5c-4.2,1-8.3,2.3-11.9,4.6c-1.1,0.7-2.2,2-1.6,3.1
	c0.5,0.9,1.9,0.9,2.9,0.7c4.9-0.9,9.7-2.3,14.6-3.5"/>
<path class="st10" d="M501.6,267.5c-5.1-4.7-8.9-10.8-11.1-17.2c-2,1.6-4.3,2.8-6.8,3.6c-0.8,0.3-1.9,0.4-2.4-0.3
	c-0.4-0.7,0-1.6,0.5-2.3c2-2.9,4.4-5.4,7.2-7.7c1.9-1.6,4.5-1.9,6.8-0.9c7.5,3.3,13.6,10,16,17.9L501.6,267.5z"/>
<path class="st5" d="M501.6,267.5c-5.1-4.7-8.9-10.8-11.1-17.2c-2,1.6-4.3,2.8-6.8,3.6c-0.8,0.3-1.9,0.4-2.4-0.3
	c-0.4-0.7,0-1.6,0.5-2.3c2-2.9,4.4-5.4,7.2-7.7c1.9-1.6,4.5-1.9,6.8-0.9"/>
<path class="st7" d="M411.1,283.6c19.8,10.7,35.6,27.3,49.8,44.8c5.3,6.5,10.5,13.3,17.7,17.6c7.2,4.3,16.9,5.6,23.7,0.7
	c7.3-5.2,8.9-15.4,7.9-24.2c-1.8-16.2-10.4-31.5-23.6-41.2c6-10.4,15.2-19.1,26.5-23.1c14.7,8.8,25.8,23,32.1,38.9
	c6.3,15.9,8,33.4,6.2,50.4c-1.5,14.9-6.3,30.5-18,39.9c-9.1,7.2-21.1,9.7-32.7,10c-19.4,0.5-38.9-4.5-55.6-14.3
	c-16.7-9.8-30.6-24.4-39.6-41.6L411.1,283.6z"/>
<path class="st16" d="M500.6,397.4c9.9-0.3,20.1-2.1,28.6-7.2c-5.1-4.8-12.6-7-19.5-5.5c-6.7,1.4-12.5,6.3-15.2,12.6
	C496.4,397.5,498.5,397.5,500.6,397.4z"/>
<path class="st8" d="M551.2,347.5c1.2-11.5,0.8-23.1-1.5-34.4c0.4,32.2-8.4,71.3-42.6,74.6c-36.8,3.5-84.6-29.1-97-38.1
	c8.8,13.7,20.8,25.3,34.9,33.5c16.7,9.8,36.2,14.9,55.6,14.3c11.6-0.3,23.6-2.8,32.7-10C544.9,378,549.7,362.4,551.2,347.5z"/>
<path class="st5" d="M486.5,281.3c6-10.4,15.2-19.1,26.5-23.1c14.7,8.8,25.8,23,32.1,38.9c6.3,15.9,8,33.4,6.2,50.4
	c-1.5,14.9-6.3,30.5-18,39.9c-9.1,7.2-21.1,9.7-32.7,10c-19.4,0.5-38.9-4.5-55.6-14.3c-16.7-9.8-30.6-24.4-39.6-41.6"/>
<defs>
	
		<filter id="Adobe_OpacityMaskFilter_00000093135151179441500080000010638288883082647718_" filterUnits="userSpaceOnUse" x="82.8" y="336.2" width="403.1" height="130.4">
		<feColorMatrix  type="matrix" values="1 0 0 0 0  0 1 0 0 0  0 0 1 0 0  0 0 0 1 0"/>
	</filter>
</defs>
<mask maskUnits="userSpaceOnUse" x="82.8" y="336.2" width="403.1" height="130.4" id="mask1_82_1199_00000022551860666527053880000012062462431190149505_">
	<path style="fill:#FFFFFF;filter:url(#Adobe_OpacityMaskFilter_00000093135151179441500080000010638288883082647718_);" d="
		M297,452.4C-27.4,412.1-71.8,17.4,173.1,51.7c67.1,9.4,126.2,50.9,194.8,35.2c96.2-22,171.7-17.6,203.1,69.7
		C618.9,290.2,461.1,472.8,297,452.4z"/>
</mask>
<g class="st18">
	<path class="st19" d="M447.8,381.4c-19.5-3.7-44.4-6.4-70.8-11.8s-53-9.3-69.8-8.9c-16.8,0.4-44-1.3-64-4.2s-41.3,0-57.7,0.6
		c-16.4,0.6-36.8-8.3-58.4-9.1c-21.6-0.8-44.2,15.3-44.2,15.3c48.7,57.4,120.3,94.9,195.2,102c74.9,7.2,152.4-15.9,207.9-65.5
		C474.8,390.7,467.3,385,447.8,381.4z"/>
	<path class="st20" d="M276.5,348.8c2.5,0.9,4,3.4,3.8,6c-0.4,7-1.2,14-4.1,20.4c-3.4,7.7-10.5,14.5-19.2,15.3
		c-6.7,0.6-13.4-2.6-17.9-7.5c-4.5-4.9-7-11.2-8.1-17.6c-0.9-4.8-1-9.7-1-14.5c0-2.9,2.1-5.4,5-6
		C248.5,342.5,262.7,343.6,276.5,348.8z"/>
	<path class="st20" d="M286.1,350.6c-2.7,0.5-4.6,2.7-4.8,5.3c-0.6,7-0.9,14,1.1,20.8c2.3,8.2,8.6,16,17.4,18.1
		c6.8,1.6,14.1-0.5,19.5-4.6c5.3-4.1,8.8-10,11-16.2c1.6-4.6,2.5-9.4,3.3-14.2c0.4-2.9-1.3-5.7-4.2-6.7
		C315.8,348.7,301,347.7,286.1,350.6z"/>
	<path class="st20" d="M220.8,344.9c4.8,1,8.2,5.1,8,9.9c-0.2,6.8-1.1,13.6-2.9,20.1c-1,3.7-2.3,7.5-5.5,9.8
		c-2.7,1.9-6.3,2.4-9.6,1.6c-3.3-0.8-6.1-2.7-8.5-4.9c-4.5-4.3-7.3-10.1-8.8-16c-0.9-3.5-1.3-7.1-1.3-10.6c-0.1-4.6,3.1-8.6,7.8-9.8
		C206.6,343.4,213.7,343.4,220.8,344.9z"/>
	<path class="st20" d="M344.1,352.9c-5.2,0.3-9.3,3.9-9.8,8.6c-0.7,6.8-0.6,13.6,0.4,20.4c0.5,3.8,1.5,7.8,4.5,10.5
		c2.6,2.3,6.4,3.2,9.9,2.9c3.5-0.3,6.8-1.8,9.7-3.7c5.3-3.6,9.1-8.9,11.4-14.6c1.4-3.3,2.3-6.8,2.8-10.3c0.7-4.6-2.1-9-6.9-10.8
		C359.3,353.4,351.8,352.4,344.1,352.9z"/>
	<path class="st20" d="M178.1,338.1c-7.6-0.8-13.7,7-15.1,14.3c-1.4,7.3,0.9,14.7,3.9,21.6c1.4,3.3,3.1,6.7,5.9,9
		c2.8,2.3,7.1,3.4,10.3,1.6c3-1.7,4.3-5.2,5.2-8.5c2-7,3.7-14.3,2.7-21.5C189.9,347.4,185.9,339,178.1,338.1z"/>
	<path class="st20" d="M387.9,354.7c7.6,0.1,12.8,8.6,13.3,16c0.5,7.4-2.6,14.5-6.4,21c-1.8,3.1-3.9,6.3-7,8.3
		c-3.1,2-7.4,2.5-10.4,0.4c-2.8-2-3.6-5.7-4.2-9.1c-1.2-7.2-2-14.6-0.1-21.7C375.1,362.4,380,354.6,387.9,354.7z"/>
	<path class="st20" d="M158.3,340.2c2.5,1.1,4.1,3.6,4.1,6.4c-0.1,4.8-0.9,9.5-2.4,14.1c-0.9,2.8-2.1,5.5-4.1,7.6
		c-4.1,4.3-11.1,5.2-16.6,2.9c-5.5-2.3-9.5-7.3-11.7-12.9c-1.6-4.1-2.2-8.4-2.3-12.7c-0.1-2.9,1.8-5.6,4.5-6.5
		C138.6,335.9,148.6,336.1,158.3,340.2z"/>
	<path class="st20" d="M408.2,368.1c-2.9,0.5-5.1,2.6-5.7,5.3c-0.9,4.7-1,9.5-0.4,14.3c0.4,2.9,1.1,5.9,2.7,8.4
		c3.4,5.2,10.6,7.7,16.9,6.7c6.3-1,11.6-5,15.1-9.9c2.5-3.6,4.1-7.7,5.1-11.9c0.7-2.9-0.7-5.8-3.4-7.4
		C429.9,368.5,419.3,366.3,408.2,368.1z"/>
	<path class="st20" d="M119.6,338.3c2.2,0.6,3.9,2.4,4.2,4.7c0.4,3.3,0.7,6.6,0.4,9.9c-0.4,4.5-2,9.1-5.3,12.2
		c-4.1,4-10.6,5.2-16.1,3.6c-5.5-1.6-10.2-5.6-13.2-10.5c-2.2-3.6-3.6-7.6-4.5-11.6c-0.6-2.6,0.8-5.3,3.3-6.3
		C98,336.4,108.9,335.5,119.6,338.3z"/>
	<path class="st20" d="M448.2,376.5c-2.3,0.1-4.4,1.6-5.1,3.8c-1.1,3.1-2,6.3-2.4,9.6c-0.5,4.5,0.1,9.3,2.6,13.1
		c3.2,4.8,9.2,7.3,15,6.9c5.7-0.4,11.1-3.3,15.1-7.5c2.9-3,5.1-6.6,6.8-10.4c1.1-2.4,0.3-5.4-1.9-6.9
		C469.7,379.2,459.2,376.1,448.2,376.5z"/>
	<path class="st9" d="M398.9,447.6c-16.2-17.4-38.3-29.3-61.7-33.3c-22.1-3.7-45.3-0.5-65.5,9.2c-13.4-8.6-28.7-14.3-44.5-16.3
		c-21.7-2.8-44.2,1.2-63.6,11.4c0,0,45.5,39.6,123.9,42.6C365.9,464.3,398.9,447.6,398.9,447.6z"/>
	<path class="st5" d="M271.6,423.5c5,3.2,9.7,6.8,14.1,10.8"/>
	<path class="st5" d="M362.7,422c-8.2-3.6-16.8-6.2-25.6-7.7c-22.1-3.7-45.3-0.5-65.5,9.2c-13.4-8.6-28.7-14.3-44.5-16.3
		c-14.5-1.9-29.4-0.7-43.5,3.4"/>
	<path class="st8" d="M377.9,430.1c-11.2,5.9-34.4,14.6-76.6,17.5c-55.1,3.7-116-22.4-134.1-30.9c-1.2,0.6-2.5,1.2-3.7,1.9
		c0,0,45.5,39.6,123.9,42.6c78.4,3.1,111.4-13.7,111.4-13.7C392.7,440.9,385.6,435,377.9,430.1z"/>
</g>
<defs>
	
		<filter id="Adobe_OpacityMaskFilter_00000008110712844417593730000010651862887537280131_" filterUnits="userSpaceOnUse" x="43.3" y="-8.4" width="521" height="188.3">
		<feColorMatrix  type="matrix" values="1 0 0 0 0  0 1 0 0 0  0 0 1 0 0  0 0 0 1 0"/>
	</filter>
</defs>
<mask maskUnits="userSpaceOnUse" x="43.3" y="-8.4" width="521" height="188.3" id="mask2_82_1199_00000060009956830053056580000008746929017364423040_">
	<path style="fill:#FFFFFF;filter:url(#Adobe_OpacityMaskFilter_00000008110712844417593730000010651862887537280131_);" d="
		M297,452.4C-27.4,412.1-71.8,17.4,173.1,51.7c67.1,9.4,126.2,50.9,194.8,35.2c96.2-22,171.7-17.6,203.1,69.7
		C618.9,290.2,461.1,472.8,297,452.4z"/>
</mask>
<g class="st22">
	<path class="st19" d="M518.2,48.5c-17.9-14.7-39-25.1-60.7-33.1c-95.9-35.5-203.2-27.4-302-1.1c-42.1,11.2-85.8,27.4-112.2,62
		c21.9,13.1,44.5,24.5,67.7,34.4c1.6,1.2,3.4,2.3,5.5,3.1c11.7,4.4,34.4,14.9,50.6,18.8c5.1,1.2,9.9,2,14.8,2.7
		c16.2,4.4,32.6,8.1,49.1,11.1c16.2,6.2,18.2,11.8,32.3,12.8c16.5,1.2,34.7,5.9,58.9,6c24.2,0.1,49.6,1.8,62.1-2.3
		c10.3-3.4,19-10.5,38-14.5c3.3-0.5,6.7-1.1,10-1.6c1.2-0.1,2.4-0.3,3.7-0.4c29.1-2.8,38.6-1.7,54.7-5.3
		c16.1-3.6,57.1-20.2,73.6-33.7C550.6,82.7,536,63.3,518.2,48.5z"/>
	<path class="st8" d="M155.4,14.3C118,24.3,79.2,38.2,52.5,65.6c58.5-9.7,133.2,6.3,193.5,26.7c63,21.4,113.2,18.1,158,3.7
		c28.4-9.1,83.2-22.2,145.8-12.1c-9.6-13.9-19.9-25.7-31.7-35.4c-17.9-14.7-39-25.1-60.7-33.1C361.5-20.1,254.3-12.1,155.4,14.3z"/>
	<path class="st20" d="M155.7,141.1c7.9,5.2,17.6,8,27.8,7.7c4.3-0.1,7.9-3.2,8.8-7.4c1-4.6,1.6-9.3,1.1-14
		c-0.7-6.9-4.1-14-10.4-17.3c-7.1-3.7-16.5-1.4-22.3,4c-4.7,4.4-7.5,10.4-8.9,17.7C151.1,135.5,152.6,139.1,155.7,141.1z"/>
	<path class="st20" d="M467.3,157.5c-7.9,5.2-17.6,8-27.8,7.7c-4.3-0.1-7.9-3.2-8.8-7.4c-1-4.6-1.6-9.3-1.1-14
		c0.7-6.9,4.1-14,10.4-17.3c7.1-3.7,16.5-1.4,22.3,4c4.7,4.4,7.5,10.4,8.9,17.7C471.9,151.8,470.4,155.4,467.3,157.5z"/>
	<path class="st20" d="M141.5,136.2c-8-1.2-15.7-4-22.5-8.3c-3.4-2.1-5-6.2-4-10.1c1.9-7.3,6.7-13.9,13.2-17.7
		c4.6-2.7,10.2-4.1,15.2-2.4c6.8,2.3,10.7,10,10.9,17.2c0.1,5.1-1.2,10-2.9,15.2C150,134.2,145.8,136.9,141.5,136.2z"/>
	<path class="st20" d="M481.7,154.4c7.5-1.1,14.8-3.7,21.2-7.6c3.2-2,4.7-5.7,3.8-9.3c-1.8-6.7-6.3-12.8-12.4-16.4
		c-4.3-2.5-9.6-3.8-14.3-2.2c-6.4,2.2-10.1,9.2-10.2,15.9c-0.1,4.7,1.1,9.2,2.8,14C473.8,152.5,477.7,155,481.7,154.4z"/>
	<path class="st20" d="M106.3,120.2c-12.4-0.8-24.5-6-34.1-15.1c-2.6-2.5-3.5-6.4-2-9.7c2.1-4.7,4.9-9,8.9-12.2
		c9.3-7.4,24.3-6.1,32.1,2.8c6.6,7.4,7.3,19.2,3.5,28.9C113.5,118.3,110,120.4,106.3,120.2z"/>
	<path class="st20" d="M516.2,143.6c12.4-0.8,24.5-6,34.1-15.1c2.6-2.5,3.5-6.4,2-9.7c-2.1-4.7-4.9-9-8.9-12.2
		c-9.3-7.4-24.3-6.1-32.1,2.8c-6.6,7.4-7.3,19.2-3.5,28.9C509.1,141.7,512.5,143.8,516.2,143.6z"/>
	<path class="st20" d="M401.3,166.8c3-1.7,4.6-5.1,4-8.5c-1.4-8.2-3.7-16.4-8.5-23.2c-3.7-5.2-9.8-9.7-16.1-8.6
		c-4.4,0.8-8,4.1-10.4,7.9c-5.4,8.5-6,18.9-5.7,29.5c0.1,3.7,2.8,6.8,6.4,7.7C380.6,174,391.5,172.6,401.3,166.8z"/>
	<path class="st20" d="M218.1,160.8c-2.9-1.9-4.2-5.4-3.4-8.7c2-8.1,4.8-16.1,10.1-22.5c4-5,10.4-9.1,16.7-7.5
		c4.4,1.1,7.7,4.7,9.9,8.6c4.9,8.8,4.8,19.2,3.7,29.8c-0.4,3.6-3.2,6.6-6.9,7.2C238.2,169.4,227.5,167.2,218.1,160.8z"/>
	<path class="st20" d="M214.8,116.1c-5.2-2.6-11.9-0.2-15.5,4.3s-4.9,10.5-5,16.4c-0.2,5.4,0.5,10.8,1.8,16c0.8,2.9,2.2,6.1,5.1,6.9
		c1.7,0.4,3.5-0.2,4.9-1.2c1.4-1,2.5-2.4,3.5-3.8c6.1-8.4,11.5-18.1,11.3-28.4C220.9,122.4,219.7,118.6,214.8,116.1z"/>
	<path class="st20" d="M420.6,127.2c-5.1-1.5-10.9,1.3-13.8,5.5c-2.9,4.2-3.4,9.6-2.8,14.6c0.5,4.7,1.9,9.4,4,13.7
		c1.2,2.4,2.6,4.7,4.8,6.3c2.2,1.6,5.3,2.3,7.8,1.3c2.9-1.2,4.3-4.3,5.2-7.2c1.6-5.1,2.6-10.5,2.9-15.8c0.2-3.3,0.1-6.7-1-9.9
		C426.7,132.4,424.9,128.4,420.6,127.2z"/>
	<path class="st20" d="M301.5,175.8c4.3-1.1,7.5-4.9,7.7-9.4c0.5-11.7-1.2-23.5-5-34.6c-1.8-5.2-4.4-10.6-9.3-13.4
		c-6.1-3.5-14.3-1.8-20.2,2.1c-7.7,5-12.7,13.2-15.4,21.8c-2.1,6.5-3,13.3-3.9,20.7c-0.5,4.6,2.2,9,6.5,10.7
		C274,178.4,287.8,179.3,301.5,175.8z"/>
	<path class="st20" d="M356.7,177.1c4.7-1.1,8-5.4,7.7-10.3c-0.7-10.5-2-21-6.2-30.7c-1.8-4.2-4.3-8.2-7.7-11.3
		c-3.5-3.1-8.1-5.3-12.9-5.2c-5.2,0.1-10.1,2.7-13.6,6.4c-3.5,3.6-5.8,8.2-7.7,12.8c-3.6,8.8-5.7,18.1-6.3,27.7
		c-0.3,4.7,2.7,9,7.2,10.2C329.5,180.1,343.1,180.2,356.7,177.1z"/>
</g>
<path class="st23" d="M63.4,121.3c-1.2-0.2-2.4-0.3-3.6-0.5c-1.4-0.1-2.4-1.3-2.5-2.6c0-1.4-0.1-2.7-0.2-4.1c0-0.3-0.1-0.7-0.2-1
	c-0.2-0.3-0.5-0.5-0.8-0.4c-0.3,0.1-0.5,0.5-0.6,0.9c-0.3,1.5-0.6,3-0.7,4.5c-0.1,1.4-1.2,2.4-2.6,2.5c-1.3,0.1-2.5,0.2-3.8,0.3
	c-0.4,0-1,0.2-1,0.7c0,0.3,0.4,0.5,0.8,0.6c1.3,0.3,2.7,0.6,4.1,0.7c1.3,0.2,2.3,1.3,2.3,2.6c0,1.5,0.1,2.9,0.3,4.4
	c0,0.4,0.1,0.7,0.3,1c0.2,0.3,0.7,0.4,1,0.2c0.2-0.1,0.2-0.4,0.3-0.6c0.3-1.6,0.5-3.2,0.6-4.8c0.1-1.3,1.2-2.3,2.4-2.4
	c1.3-0.1,2.5-0.3,3.8-0.4c0.6-0.1,1.3-0.3,1.2-0.8C64.4,121.6,63.9,121.4,63.4,121.3z"/>
<path class="st23" d="M106.2,310.1c-1.2-0.2-2.4-0.3-3.6-0.5c-1.4-0.1-2.4-1.3-2.5-2.6c0-1.4-0.1-2.7-0.2-4.1c0-0.3-0.1-0.7-0.2-1
	c-0.2-0.3-0.5-0.5-0.8-0.4c-0.3,0.1-0.5,0.5-0.6,0.9c-0.3,1.5-0.6,3-0.7,4.5c-0.1,1.4-1.2,2.4-2.6,2.5c-1.3,0.1-2.5,0.2-3.8,0.3
	c-0.4,0-1,0.2-1,0.7c0,0.3,0.4,0.5,0.8,0.6c1.3,0.3,2.7,0.6,4.1,0.7c1.3,0.2,2.3,1.3,2.3,2.6c0,1.5,0.1,2.9,0.3,4.4
	c0,0.4,0.1,0.7,0.3,1c0.2,0.3,0.7,0.4,1,0.2c0.2-0.1,0.2-0.4,0.3-0.6c0.3-1.6,0.5-3.2,0.7-4.8c0.1-1.3,1.2-2.3,2.4-2.4
	c1.3-0.1,2.5-0.3,3.8-0.4c0.6-0.1,1.3-0.3,1.2-0.8C107.2,310.4,106.6,310.2,106.2,310.1z"/>
<path class="st23" d="M471.2,187.8c-1.2-0.2-2.4-0.3-3.6-0.5c-1.4-0.1-2.4-1.3-2.5-2.6c0-1.4-0.1-2.7-0.2-4.1c0-0.3-0.1-0.7-0.2-1
	c-0.2-0.3-0.5-0.5-0.8-0.4c-0.3,0.1-0.5,0.5-0.6,0.9c-0.3,1.5-0.6,3-0.7,4.5c-0.1,1.4-1.2,2.4-2.6,2.5c-1.3,0.1-2.5,0.2-3.8,0.3
	c-0.4,0.1-1,0.2-1,0.7c0,0.3,0.4,0.5,0.8,0.6c1.3,0.3,2.7,0.6,4.1,0.7c1.3,0.2,2.3,1.3,2.3,2.6c0,1.5,0.1,2.9,0.3,4.4
	c0,0.4,0.1,0.7,0.3,1c0.2,0.3,0.7,0.4,1,0.2c0.2-0.1,0.2-0.4,0.3-0.6c0.3-1.6,0.5-3.2,0.6-4.8c0.1-1.3,1.2-2.3,2.4-2.4
	c1.3-0.1,2.5-0.3,3.8-0.4c0.6-0.1,1.3-0.3,1.2-0.8C472.2,188,471.7,187.8,471.2,187.8z"/>
<path class="st23" d="M231.7,248.8c-1.2-0.1-2.4-0.1-3.7-0.1c-1.4,0-2.5-1-2.7-2.4c-0.2-1.4-0.3-2.7-0.6-4.1
	c-0.1-0.3-0.1-0.7-0.3-0.9c-0.2-0.3-0.6-0.4-0.9-0.3c-0.3,0.2-0.4,0.6-0.5,0.9c-0.2,1.5-0.3,3-0.3,4.6c0,1.4-1,2.5-2.3,2.7
	c-1.3,0.2-2.5,0.4-3.8,0.7c-0.4,0.1-1,0.3-0.9,0.7c0.1,0.3,0.5,0.4,0.8,0.5c1.4,0.2,2.7,0.3,4.1,0.4c1.3,0.1,2.4,1,2.6,2.3
	c0.2,1.4,0.4,2.9,0.7,4.3c0.1,0.4,0.2,0.7,0.4,1c0.2,0.3,0.7,0.4,1,0.1c0.2-0.2,0.2-0.4,0.2-0.6c0.1-1.6,0.2-3.3,0.2-4.9
	c0-1.3,0.9-2.4,2.2-2.6c1.3-0.2,2.5-0.5,3.7-0.8c0.6-0.1,1.3-0.4,1.1-1C232.7,248.9,232.2,248.8,231.7,248.8z"/>
<path class="st23" d="M559.3,261.5c-1.2-0.1-2.4-0.1-3.7-0.1c-1.4,0-2.5-1-2.7-2.4c-0.2-1.4-0.3-2.7-0.6-4.1
	c-0.1-0.3-0.1-0.7-0.3-0.9c-0.2-0.3-0.6-0.4-0.9-0.3c-0.3,0.2-0.4,0.6-0.5,0.9c-0.2,1.5-0.3,3-0.3,4.6c0,1.4-1,2.5-2.3,2.7
	c-1.3,0.2-2.5,0.4-3.8,0.7c-0.4,0.1-1,0.3-0.9,0.7c0.1,0.3,0.5,0.4,0.8,0.5c1.4,0.2,2.7,0.3,4.1,0.4c1.3,0.1,2.4,1,2.6,2.4
	c0.2,1.4,0.4,2.9,0.7,4.3c0.1,0.4,0.2,0.7,0.4,1c0.2,0.3,0.7,0.4,1,0.1c0.2-0.2,0.2-0.4,0.2-0.6c0.1-1.6,0.2-3.3,0.2-4.9
	c0-1.3,0.9-2.4,2.2-2.6c1.3-0.2,2.5-0.5,3.7-0.8c0.6-0.1,1.3-0.4,1.1-1C560.3,261.7,559.7,261.6,559.3,261.5z"/>
<path class="st23" d="M81,321c0-1.4-1.1-2.5-2.5-2.5S76,319.6,76,321c0,1.4,1.1,2.5,2.5,2.5S81,322.4,81,321z"/>
<path class="st23" d="M231.1,306.4c0-0.9-0.7-1.6-1.6-1.6c-0.9,0-1.6,0.7-1.6,1.6c0,0.9,0.7,1.6,1.6,1.6
	C230.3,308,231.1,307.3,231.1,306.4z"/>
<path class="st23" d="M407,197.7c0-0.9-0.7-1.6-1.6-1.6c-0.9,0-1.6,0.7-1.6,1.6c0,0.9,0.7,1.6,1.6,1.6
	C406.3,199.3,407,198.6,407,197.7z"/>
<path class="st3" d="M149.2,179.2c0-0.9-0.7-1.6-1.6-1.6c-0.9,0-1.6,0.7-1.6,1.6c0,0.9,0.7,1.6,1.6,1.6
	C148.4,180.8,149.2,180.1,149.2,179.2z"/>
<path class="st23" d="M166.1,167.3c0-1.4-1.1-2.5-2.5-2.5c-1.4,0-2.5,1.1-2.5,2.5s1.1,2.5,2.5,2.5
	C165,169.8,166.1,168.7,166.1,167.3z"/>
<path class="st3" d="M262.4,200.5c0-1.4-1.1-2.5-2.5-2.5c-1.4,0-2.5,1.1-2.5,2.5s1.1,2.5,2.5,2.5C261.3,203,262.4,201.9,262.4,200.5
	z"/>
<path class="st3" d="M554.4,150.6c0-1.4-1.1-2.5-2.5-2.5c-1.4,0-2.5,1.1-2.5,2.5s1.1,2.5,2.5,2.5C553.3,153.1,554.4,152,554.4,150.6
	z"/>
<path class="st3" d="M67,188.4c0-1.4-1.1-2.5-2.5-2.5c-1.4,0-2.5,1.1-2.5,2.5s1.1,2.5,2.5,2.5C65.9,191,67,189.8,67,188.4z"/>
<path class="st0" d="M448.9,296.2c0-1.4-1.1-2.5-2.5-2.5c-1.4,0-2.5,1.1-2.5,2.5c0,1.4,1.1,2.5,2.5,2.5
	C447.8,298.7,448.9,297.6,448.9,296.2z"/>
<path class="st0" d="M49.9,264.7c0-1.4-1.1-2.5-2.5-2.5s-2.5,1.1-2.5,2.5c0,1.4,1.1,2.5,2.5,2.5S49.9,266.1,49.9,264.7z"/>
<path class="st0" d="M248.6,317.4c0-1.4-1.1-2.5-2.5-2.5s-2.5,1.1-2.5,2.5c0,1.4,1.1,2.5,2.5,2.5S248.6,318.8,248.6,317.4z"/>
<path class="st23" d="M526.4,201.5c0-1.4-1.1-2.5-2.5-2.5s-2.5,1.1-2.5,2.5s1.1,2.5,2.5,2.5S526.4,202.9,526.4,201.5z"/>
<path class="st5" d="M573.5,164.2c14.1,47.6,3.3,100.7-23.8,148.3"/>
<path class="st5" d="M170.1,51.3c1,0.1,2,0.3,3.1,0.4c67.1,9.4,126.2,50.9,194.8,35.2c94.9-21.7,169.7-17.7,201.8,66.3"/>
<path class="st5" d="M149.2,49.7c3.1,0.1,6.3,0.2,9.6,0.5"/>
<path class="st5" d="M40.1,278.6C-9.8,172.6,20.8,56.9,133.2,49.9"/>
<path class="st5" d="M46.9,292.1c-0.7-1.2-1.3-2.5-2-3.7"/>
<path class="st5" d="M478.1,395.6c-50.9,40.7-115.5,65-181.1,56.8c-122.4-15.2-204.9-80.8-247-154.9"/>
</svg>
